<mxfile host="app.diagrams.net" modified="2024-01-10T02:25:32.539Z" agent="Mozilla/5.0 (Macintosh; Intel Mac OS X 10_15_7) AppleWebKit/605.1.15 (KHTML, like Gecko) Version/17.1.2 Safari/605.1.15" etag="GynchPlVxdnqw3tvjFWK" version="22.1.18" type="github">
  <diagram name="Page-1" id="Est3UlF_EafvFaXh6ecU">
    <mxGraphModel dx="958" dy="1805" grid="1" gridSize="10" guides="1" tooltips="1" connect="1" arrows="1" fold="1" page="1" pageScale="1" pageWidth="850" pageHeight="1100" math="0" shadow="0">
      <root>
        <mxCell id="0" />
        <mxCell id="1" parent="0" />
        <mxCell id="iuNo3M5YxEnQVM3zlHZQ-9" value="" style="shape=image;verticalLabelPosition=bottom;labelBackgroundColor=default;verticalAlign=top;aspect=fixed;imageAspect=0;image=data:image/png,iVBORw0KGgoAAAANSUhEUgAAAzgAAAISCAYAAAAAzGpmAAAAAXNSR0IArs4c6QAAAIRlWElmTU0AKgAAAAgABQESAAMAAAABAAEAAAEaAAUAAAABAAAASgEbAAUAAAABAAAAUgEoAAMAAAABAAIAAIdpAAQAAAABAAAAWgAAAAAAAACQAAAAAQAAAJAAAAABAAOgAQADAAAAAQABAACgAgAEAAAAAQAAAzigAwAEAAAAAQAAAhIAAAAAM1DCCgAAAAlwSFlzAAAWJQAAFiUBSVIk8AAAQABJREFUeAHsnQVgFEcbht+LOy4JTnB3d7ckuLsWdymlOKUUKRSXYkWKQ3F3dw0aIIEkkBB3uftn9ySXEIL8AXLknZbc7ug3z+zMzje2CpUwoCEBEiCBRAhs27ZNtm3SpAmsra0T8UErEiCB5CLw4MEDnDt3Dr169YKxsXFyRct4SIAEPkAgMjISJiYmrG8f4GPI1kaGLDxlJwES+LoE1q5diz59+lC5+bqYGTsJyATOnz+Pfv36ISYmhkRIgAS+AYGBAwfiyJEj3yAlJvGtCZh86wSZHgmQgOEQMDc3p3JjOMVFSQ2cgKmpqYHngOKTgOEQuHHjBv7++29IC5nq1q0LMzMzwxGekn6UAGdwPoqIHkiABEiABEiABEiABH4kAj179pSzs2XLFjx58uRHyhrzIghQweFjQAIkQAIkQAIkQAIkkGoIHDhwALdv35bzGxoaimXLliE2NjbV5D81ZJQKTmooZeaRBEiABEiABEiABEhAJjBlypR4JBYtWgRvb+94drwxbAJUcAy7/Cg9CZAACZAACZAACZDAJxLYsWMH7t+//57vIUOGvGdHC8MlQAXHcMuOkpMACZAACZAACZAACXwigZCQEGzatAnSsrSEZufOnbh161ZCa94bKAEqOAZacBSbBEiABEiABEiABEjg0wncuXMHu3fv/mCAESNGfNCNDoZFgAqOYZUXpSUBEiABEiABEiABEvhMAtL3pRYsWAClUvnBkNevX8fJkyc/6E4HwyFABcdwyoqSkgAJkAAJkAAJkAAJfAGBBw8eYOvWrfFCSt+eUigUOrugoCD52zg8UU2HxGAvqOAYbNFRcBIgARIgARIgARIggaQISB/ylEzfvn113qpXr449e/bIszn9+vXD6NGjdW779u3DzZs3dfe8MEwCVHAMs9woNQmQAAmQAAmQAAmQwEcISDM0x44dw+XLl5EnTx4cPHgQR48ehZOTk/ztG8nujz/+gJeXF7p3747AwECsWbMGUVFRH4mZzimZABWclFw6lI0ESIAESIAESIAESOD/IiB952bVqlVwc3NDo0aNYG5u/l58WbNmlRWbhw8fyv4SO2ntvUC0SLEETFKsZBSMBEiABEiABEiABEiABP4PAhEREUmenJYw6oIFC8qzPFRwEpIxrHvO4BhWeVFaEiABEiABEiABEiCBTyRgYWHxiT7je7O2to5vwTuDIkAFx6CKi8KSAAmQAAmQAAmQAAmQAAkkRYAKTlJ06EYCJEACJEACJEACJEACJGBQBKjgGFRxUVgSIAESIAESIAESIAESIIGkCFDBSYoO3UiABEiABEiABEiABEiABAyKABUcgyouCksCJEACJEACJEACJEACJJAUASo4SdGhGwmQAAmQAAmQAAmQAAmQgEERoIJjUMVFYUmABEiABEiABEiABEiABJIiQAUnKTp0IwESIAESIAESIAESIAESMCgCVHAMqrgoLAmQAAmQAAmQAAmQAAmQQFIEqOAkRYduJEACJEACJEACJEACJEACBkWACo5BFReFJQESIAESIAESIAESIAESSIoAFZyk6NCNBEiABEiABEiABEiABEjAoAhQwTGo4qKwJEACJEACJEACJEACJEACSRGggpMUHbqRAAmQAAmQAAmQAAmQAAkYFAEqOAZVXBSWBEiABEiABEiABEiABEggKQJUcJKiQzcSIAESIAESIAESIAESIAGDIkAFx6CKi8KSAAmQAAmQAAmQAAmQAAkkRYAKTlJ06EYCJEACJEACJEACJEACJGBQBKjgGFRxUVgSIAESIAESIAESIAESIIGkCFDBSYoO3UiABEiABEiABEiABEiABAyKABUcgyouCksCJEACJEACJEACJEACJJAUASo4SdGhGwmQAAmQAAmQAAmQAAmQgEERoIJjUMVFYUmABEiABEiABEiABEiABJIiQAUnKTp0IwESIAESIAESIAESIAESMCgCVHAMqrgoLAmQAAmQAAmQAAmQAAmQQFIEqOAkRYduJEACJEACJEACJEACJEACBkWACo5BFReFJQESIAESIAESIAESIAESSIoAFZyk6NCNBEiABEiABEiABEiABEjAoAhQwTGo4qKwJEACJEACJEACJEACJEACSRGggpMUHbqRAAmQAAmQAAmQAAmQAAkYFAEqOAZVXBSWBEiABEiABEiABEiABEggKQJUcJKiQzcSIAESIAESIAESIAESIAGDIkAFx6CKi8KSAAmQAAmQAAmQAAmQAAkkRYAKTlJ06EYCJEACJEACJEACJEACJGBQBKjgGFRxUVgSIAESIAESIAESIAESIIGkCFDBSYoO3UiABEiABEiABEiABEiABAyKABUcgyouCksCJEACJEACJEACJEACJJAUASo4SdGhGwmQAAmQAAmQAAmQAAmQgEERoIJjUMVFYUmABEiABEiABEiABEiABJIiQAUnKTp0IwESIAESIAESIAESIAESMCgCVHAMqrgoLAmQAAmQAAmQAAmQAAmQQFIEqOAkRYduJEACJEACJEACJEACJEACBkWACo5BFReFJQESIAESIAESIAESIAESSIoAFZyk6NCNBEiABEiABEiABEiABEjAoAhQwTGo4qKwJEACJEACJEACJEACJEACSRGggpMUHbqRAAmQAAmQAAmQAAmQAAkYFAEqOAZVXBSWBEiABEiABEiABEiABEggKQJUcJKiQzcSIAESIAESIAESIAESIAGDIkAFx6CKi8KSAAmQAAmQAAmQAAmQAAkkRYAKTlJ06EYCJEACJEACJEACJEACJGBQBKjgGFRxUVgSIAESIAESIAESIAESIIGkCFDBSYoO3UiABEiABEiABEiABEiABAyKABUcgyouCksCJEACJEACJEACJEACJJAUASo4SdGhGwmkcgKWlpawtrZO5RSYfRL4NgRMTEy+TUJMhQRIQCYgvd/MzMxI4wckwNb0ByxUZokEkovAwIED8e7du+SKjvGQAAkkQaBatWrYuHEjTE1Nk/BFJxIggeQgoFAosHr1apQoUSI5omMcKYyAQiVMCpOJ4pAACZAACZDAdyYgvRoVcTIkuI1z4BUJkAAJkEBKI8AlaimtRCgPCXwGgSh/V6wa1QIFrM1gbJID9YcuwIO3ys+IgV5JIBUTUMZgx5hSKNdtOnwiE3IQys2labA1Tou2q+7F03US+uQ9CXwOgaina1FBzB4oxJJEY2Nj0XaLf0bmSJ+jDNr9ugGe0Z8TG/2SAAkkRoBL1BKjQjsSMAAC0f6PMcq5AtbFtMSKA5dRxPotNk7ph5pOd3Fw12KUczA3gFxQRBL4ngRUUMbGICZWifeWMsRcRZ9mExFikh5K5Xuu31Nopm3oBFRKRMAGjUbMQNcymYFYFRRGsQh+fhlL/+qC7P+exY0Hy1GKKxUNvaQp/3ckQAXnO8Jn0iTw/xC4s7w9Vr5wxrkH61DWVh3T75v34HWlRpi6pRd2D6sMI70VNrq0kmupjV480kpXaT1zkkbP/wf9fYqfDwamAwkkF4FwHBw3GqssiqNYBncI/eejRlrsHVcFtA+y9vejwfU8fCSMSEgljf5rQiTqO74wenFrL/VD6V9r3fn7tQnEIg1K1W+DDvXt9ZLqjD7OhZC3+CD8umUq9nbOouf2OZdfv0w/noJ4TsVTqn1OP0d6ye/H4//cGJPwr5eY9lL7+8myfEKAeNVS5193kYSAhuKknxf9az359SF8wIue7//rkkvU/i98DEwC34vAO9y4HooqLbqgiEa5kSUxc4BjyUw4f/8BJKUjJsQDi0a1wpIjzxGrFVURgVu/j4LTsvNaG/EbjPObZmNw55qoVq0+2vQYj6234g4XCHc/gCGd+mD/i4i4MIpAHOnWFi13PpOVmxDXFeja4k88jPMBhN7C+JbO6LbyZtwSn6DbWDKhO5pUq46atWqhZs06aOjSAiO3iJBf+jbUT5PXJPB/EnhzbjlGz32Abn8tQfci4YiIiR+h5/l1GNq2IWo0bY/pa88iVDgrFLG4tqwnGjcbi2th0oOsfntHua5GxyZO+Pd+3Lqje7v/RK/WjVCpcWtMWX0KIXL0kn/JKBB8YQ7q1K+D2jVropaoI7VEHWnQsh2m7HOTEoLC8yiaOrfA1sdSFzLOHPmzBaYsc0WUpGk9343GrTrhsHuce9yVAjF3VsFJ1LtzvuoY1KmH4PTqKWjTpCIatu6HJQdfqINoRYuLgFf/NwEVYqPeWxcJFK2M6uZGOHvlti4Ft2PrMbCDaC8bNMfPS08gXOciXQThxNoJaFu7Fhr1HIsD9/yEnSjToLMY2bAtfr8REM93hPcF/Dx8JE54hkGlfIAFteqgTr064hkTz5n0rMn/umDF0WeQHvvQZ3vxc9/xuCNFq2cUwffRq2Nz2X/tOvXR1Kkp6tepLe5rwKXNX3guZJCerGdH12BYv7aoUrUanDv0w1+7H8mxBHucxdh25VG9Rk3UrtcYzk7NULe2eN4rlUflFdfksHrJictYPDu8GL/M3Yo39w/g114tZR4z/rmC9ygqfXHk7/FoU60mGrQagBWnPeJF9frMn2jfZAHUkggnRSgujOiNZhvu6tJVBFxDh1ZOWHgtQrZTV4Fo3Ny+AF2bV0bdZp0xa8sddbySo8js4x3D4dz0H7xWVym1W9h1THVpjW3P5KqLOyu7wmXOOTFIoXaWAkbdnI9arbphxb1grSVeHv0LvVs1lvnUqiW41G2IToN/wQ0fnRe9C7V0YS+PYlJ3J/Vz8vc5RMk+JEVTMpLs89GriwuqVKmK1r3HYt1JL9lF40Fch2DX+LriWagt3svSsyDKpm4DdB42GXfiugMIfnIMc0e2RaN61VC7dldMW7sfnnLXQIGwy3/CuW1X3ArUZRCxka+xtH8HLNr9Qh6cub/JCT2GiHYzzgveXV6NFm1H4vjzILVMyfDXKBniYBQkQALfnEA6dFt3A3tn14elftoRwfB86YmKjvlkpUMZHYLbZ/bjzssgofBoPcbC59pZ7LujadxCXmBmq4poOu8iCjQYipHDusAxYh+6l66ChbfUalFM0HOcPngcLwL1e3pRcD98AHufBsoRR/ndw+G9N+CvTUb8Xl04DHN37cXxe5pWOfgCOhWtiZmXFGjafziGDxuOUb+0Rtr/duPo4wRvUL14eEkC34pAbLAn5s2YgFcuI7GoeREgKv7ytbPTqiNbkwkILdUJQzoWwbFRtVGp21r4whjlWrkgav8f6DT5jBBXvL1VrhhZoz92Z+yEJkWl9UaB2Nw1N8oM2of0tbthdMcyuDWrKewbT8CT8Li3fbTXVZy5nB/dJ4zG0KHDMWKcCyx27cJpN3VdQ+hLHNi7F4/1K5uI/eWNvbh01089mBHohkP7DkFU/USN0vc+9v23F56a3rIi8j5GV7BH41k3UarDGPSqboR5TgVQZeo5KONESzQuWiYjgVdPcElMGZYr5SgiDcK24TVRrN18RJTvi5HdauD+gjbI1WIh5BY1+i3W92+KttNvoVKfIXBxeIIeDZph+a23gF1pOMRuw64/zmsUaEnGWLif2Y1DF/yRzdxCPJ9+uHr6AowqtMbQkcMwZOgQDPmpCzKGPMS1Z/5yvzcmwA3nj1+Ar9yB1cunSQZ07NZLDtOtaX64nniGEq16iPuh6NOrGhxEqjuF7MXbr4RxueaYMGowqtt7YFy7wnBZ9xi2mfPDucsoDB89Ft1LhWL/meuo2+sXDB8zCiPK5tBLSHMplvUFvXqIk3+OQsUG0/GigAuGtC+D/eMqouTAzYjUvOBUPtfRr3JxdFzqiuoDRqBrZSP80bwYWq28pYsz5PUNHDh4U+9dFQPPM8ew39VX5wcRb3Bw3z7cfqN+ByqU7pjjlA8VhuxGlibDMah5LmzrVwH5B/6HSE39CHh6BnsPPNTjLaKLeYNL/+3DE42e6XvvMP675hmnU8Adf7QZg9PHT+HeO7VK8nxTGxRwmoeowi4YPGI4hgiFtE8NG2zZdwI+8bVbjbwKqB4uRvX8zXHOug4Gd6uI61Prw7HDFvEESYrmK/zZ1BGVhh1B7oZdMGHkABSKOYrujQpi2CHxJOnqdzQe3z6F8BrdMGbkUDnd7lWtsPXAKfhq0vU/PAL5S7XDBbPq6D14nFD2rLF3hDPaDVgjP5PR3jcFgyPwUWdFlk+pDMGdEwdx2030Q4SN36N9OHLqtVC5tMYHf48Qq06OX8OrwEg9Nlr3L/vlErUv48ZQJPCdCRjBzEqc3y9LoUS4zzv4B/vg+LLh2OVdG5u7l9MtT5OWjkkDuvGNsNDYvfO8gzsBtbBt71zUt1erSy1a14T5vTIYv+MSBpeqKvxKccSF0cWlH7d0rbcmLubhNozfZ4Wa5YC7mh7Su7NLsP1VIWy/twZOabSxuOGGuLyvFUhrzV8S+OYEVHi4eRTmHS2OFXf6wMbIOP7L1nU+Ok+8hXFHvTCzno0sXeta+VG10Chs6N8cwyq5YOuu7rDv0grLOruh8M4OWGbdDmeWtYed8P1s8yB025IJKx4eR/c86sy1alcN7exqouMfzXB1UiXZUiU6c1YZKqJ5/WZiIZNkXCHG43FVU2fVlff98cn36rpUZ5Myor5qfVya1RNz7rXErbB1KCmHaYW2TiVRumBdTK3jj8nVrJKKiW6fSUDMoSHE/y28fUSbK/bgSCbi3T0sHjQUL0xbYnlbR/hdWIAJfwdi6eWr6FZYvSHHuWU1dMpTEW2XNcbJtuG46ZEDC3ctQofi6UUE1eB5qwR27bmJHqUawrlzB8yYtwiP3jVF2QwigZgoXDxzEWmqDIF9WvXzo4I18lVojBbOmgcy8i3ubl0HD+2+M/GASM+VUcLHzTIr6jZ0kuX2v+2HhVPuoGJ9F7QsoH5iY15fwXk3BWYeOYmhZdX7QZu0aIdSMfZoMHoHvLr9jKrN2snh30WshfE/b1DbqQEq694LspPeHyGDMXDvdSj6/rdNKBvZZLfGZdKjZIWJWNC7BcaUVuLUyhnYpOiEW9fmQFIRARe0ruIAh6rdsaLOLfSVLKV3le7Jlz3JdvGthA8572r3h+sn4NfDRXHY7wDqyFW/LVo0L4saWVzQt/47rGsu+L8fq9pOjkiTDozEu1lb64Cni8dier66qORzRzwRIoNiqGTnmJ2w7rgf66c30gZCmO1ldF7lobtPeHHhv5PI1GwBNi7uDamoG9vehU3rcTjl3Q7N/M/jUmAerL50AJ2yq0M2adUWBQLMMGbKQUxp1FXTzgg3U0sUrNEcTeunlT0GWJxD9w2XpKwJ44+De11Rre9W/DuzLtQKRDM4FcmA4v234+6bHiinD02OQfNHL8+SjT7/l3/3xu/uVZG7cCy0j51+0C+9poLzpeQYjgRSDIEgHOjRARNeuMP31TvkbjZKdKb0qraYCzcxs4SJrk21goU4tUdrMhRwxubjzvJtdGgQgoP98MZXLHMJExPWqrgxFpVomM0s9Ds5VjDXU2i08cm/ykCsX7YOeXoNQ9OTR9FTs4fBwjatUMoC4eYuhgOLixFE2ZjrS6ux4w8JfGMCokrEvNmHYRM2o+HPh9CmiNRh0cyYaES5sfMPuFsPQC+NciNZq7I1w88TriNUFSQ6KGmRoflS/NPmIiY414O30hS/bpiNynK18cS+lVdgO+hPnXIjR2tWAxNmOKDKvGW4/0slFBVVN9D3EUxdforrdIiR9/e2AYn6bGapq9TqqEzEchTdTK2wUhjBPN4Ur+wt/h8pCuU9LFrpikLTFqOkmPUNDFfKHRDjnC3QpdYAbNt+GeOr1dYMqMQPzrsvI2CGt1g1pCl2mklttSg00U6bWdrBvnhrrL4yHbVswvDf/mPwE53N+plDERSk1jDM7IqjR7usqL9oP979NBR/7tsUJ4AyFKERRqL8QsThGUD2el1RdvwgHLvnjbI1syIm7CFOX36KxvNqw0487yr15IRYqqa5kGKKTdjJVCDy3Ssc3PoPPNJJD5cNshUujvKl84sTBtVJx8qHdEgHdsTFY5KtAubuOaX2EBWCd0GB8Hvjh9fKKBj5meiN3oskRa9WWlKtF1wdLsFfVXQ0rKt3xoDaWXUuVqVaoVfBKZi76RzGFCuM/afOolGLgUgfGIwghZBXYQy7Uo3QOt0ELD70BH0H5lf31XUxfMqFJ7ZuvIyMg39HTeNgBAapdxeZZayPn1oCw1YdR3TzNuINKS0HM42/qsLKXFZbEqYi11yvvRi6MBLrj/yKc45OYumhxNcCGTOYIfTNc0irwiRlRTLm8nOivn7vr2BXdcx2HNJzCAwVccUoECjWzxoVboct59TKZGxkEPz8/OH71hfvhN5pHGCsnvGVwwYg9oUJKtqrlRvJKlajfKujToeOiw6io3QTE4nQYH+88fbCvWfB4hRAMdktkjS3ywSLqBgEiFe81piaiXe8cNdf/6F1g/9u9Bh7H7/sXYdbkwcj5r2GTufzsy/0ekGfHZYBSIAEUgQBOzTZvBN1Y8Px5u5pzBn+M5p3Nsel48PhIL80w7Fn3gC83pNWbtiNTGLgfVLMmbSL6xy9ubEVk+ZugOuz1wiJsESWErkQ6ResGbWRMmkMS5sXWDygBY6kNRGjLAoYm0Xi2RvRsCXCIPjmQey5lQHjpteB14k4D9ZVJmN2r/OY2LQeLtZ2hFFEuGiDg3BPxKJVd+J884oEvgUBqVNhAlsjf/zVsjeOZe2D62Mbim6cvlHXFS+PUJgpcogx7zijgC2ajZ0TZyGeZOcps7F8ozMCWy/D2BpZ1G6hIbgSGYwS2TLq+VVfZnKoIjp8VxAkqhzSiVHdh3dhZ2//nr94FmLwYd2wVrieQcwFyMOeCjy7ZAvHtnq+Inyx4KfW2J9GKU6KS4OC1Ruha492KCzS0Bkpa94vcUdMELxd3AvlN0v1W+Mq3LzvqmAb4yrGbmtDkxNdUF58OYEoZESXWdswrm4OqYcvKzimlmmQPUcm9YBPhB9e+IpBq7M30aT+XhhrmmuFOFY65KW3KKwLeIKhmg6wD3a1GYBlfs/x1Dc/5neqD3OpYc5UAU1qGOPMscsIr+mCkItrcdGnIQaXef8ZTConMSF+uHf1HAKshBITGQGPZbNhVaMvlk/qhkwWasUrsfAxL85g+sS/cO65O96FRyNLttJIFxQqz8RospNYsA/aSYpQlVxZYWuq/9axQn5za7x96gn/yAx45+mLY4sGo+5WS50iY2QSief+Kry78gD4bAVHSBryDg+Fkub/78+ocGq6Tj6pLMRhpggxuw5PtBEzPuYwVfyLPu0fwC5aKIpCuTKO9sQNM1NU14VSXyhEjd8zexPMuw9Bm5ymOCweASN5GMMGzTf+gU1NJ6N2ozMoJYoqPDIWUd63YW0lTtxLzOhmR2LhcXQD5iz4FyeuHkLdsafQwVEdIPSWWFExZS1uvfFCULQJcuYuC9NXouXT1wIinuGJaxo01m8fEqan9MKGGeOx9ugjBPhFwCxrXthn8EOwma3Y5hMN84qd0SX7XEwaPQu5pnVFluhXOHtiPU48shTKoV5kQmYroVr922sywofuRP9iIegoaUjJaPSzlozRMioSIIGvSiDSFQvGz0JQ41n4tV4WWNraiVEjO6St3hYTJp3Ffy2W49jToeiZSYyKiVGcvKVro1mt7PJL0tg8Cnef3MQ5TVvy9v5adKo7FOa95mP2mCrIml7EkzUKWyucQZxuIjpI0elQonZTNMhpLlZUKGBqHYzjYo3/ff2MijgV4gDUXSumIkPbTahsY4Kd+m2WcUb0XXoZ1TYMQL2e21Bj7Aw4l4tA9JYjcNOPh9ck8M0IiJFzGyPcWDQAv1ywxozLi1Emvnajk0SsdJeV/g93zqSHXYE7+1fjbJRQPLZswd5pvdA6r3jVikDShIuxKpFxTLmDIsLKdeUNbq4G6m3PrUs38QsjFKvhgub5xcipZpT11NuD8BMdpThjiTJ1XFA7p5ikiQzA9T2zUWvFGizeuw8u+rOvFtZQig3vzlP+wcyGacShCrIgcqfb3DYNrMQIrOi+0CQjAZWYD8uQLQ/y582VeKxiPZapiRmKOQ/ExokdYK1eoSbP0JlZ28LS2FRe9qgObInszk5w8b6D5fM2YJ80S1OsDEzMbcQG/hr4fds5+Csb4eSGFTDpfhyl9TX0xFOPZ2udsxiGTl+COtmUYpYmGp43NqK9y69YU78hxtRxiOdXexPlcRYd2jTCrVzjsPqvyciRMS3SpnfA81WHxWyC1tfn/UrVJCBUvC/iJorkCOT9N2msYW1sBVNTO7QdtRhjXPJoBt+kWRUTWNtawthU/RRrnu5PTFz4NhVTHWKWq2b/eVjWpYh2RaFcFnL9MDYTc7fAG2mmVVUAdcVePPvwGKHgmMA0/CZeHLilN0siJSuULc/d2OQaiaGDq4qm4WY8WdIUG4itF6tiXItG2OFXH+PFPivLR+Jkx23v4vnT3kj5UbdJYqAwV1HUbu2C2PArWLt1PW5MrIlST1ahcrM+MGm6DMtn1EJGOxukzeCAq1OW4dwebSzi9/FN7DCvh5GJFakMzQcrnIpjwu0qmLFmKeo4poWleBYjnm0S+6n2ibyLts2yFH4/vB+//DQMNYqOQ9q8lVC+fEGY26ol1KZmJKZ0Xt1biN9DamHTyOIwCjyrbv60HpLhlwpOMkBkFCTwzQmYZ4XRrXVY97iSWC7zk9jQGWekhsNIIS0fU9vFxpijcDUndOtWQtPgh+P49tX4Q17LEoPn4qCA447t8eCXLmJkV9MkRD7AvYgwTYdLikecyBZpi0rOndG5uHaZ2juED/4Z/8QlDYV4EQSeni5OX6qPNUtLyeH0nOVLozdb0bPnGhSYclK8uGuICf1neIrRYjSShgS+PQEjE1O8ObMBndY/Q+YJRzC+gqYnGU8UdZcoXxlHxK67iBeRg5BV9HlkI5bcLOnigGtVdmPRwGqwdFuHwf3PYMyuK8i9vRva9P0LnsdGwF6Mvja1z46Wp28iZGSVeDNENy5sg22amcgurYrzPoV/w+pjRkVtPdOkk/BHjA6XaNoVHcrHOcQc740d+p0/cytUdOmCTkXUfrp07QjzmpmwbetN1BObr2UjZU10PBvaWmPtU1+s6VVCbS//dce0skXh1uFfLB5VXYy40iQrgXjrCRPELJSbgva58fKBH9KJ58ZBDBapTTi2daiIP8L6Y9FMM0ya8ACzl/yG8l26oryYFSgf64UqG3ZgapeSyGJuhiL1WqHglMU4e2sfDmwwxpBHVeIlpO52xu98xvMg3YiljiZi1sREWtos6kvuQlVROH8AHri9BRJVcGLw4uZ/uHitMlYdHoua6bWVJRKnbsaImQ51fXovnY9YGImNQPdevhJL8KLgYKXegYpID5wRy9HqVy0FM6HgZMlmjWt+4ciWIzcstDMGwWfRvNIIKEatx64ehT+tI62PxDwtqmTIhHHPfJAjV249Kf2wuEZR7C25BDsWNoeRWPOnRAm0aNMJYtxBbUIyYNNPi+MtMVUpI7Fn5VbEVh2DinkSa2/EgIuYTV3mXwanT6xDjewmCD3+AD9tPKaNNd6vQuzRm1i3E+513IKdvcqheQHxr3spBCpqYMrR0ZjsuhWur3vj+vJ+QjqtCcDTy2LARctIWN89sRlmLaahsH7etd6lx+/VEcw/4I98/y5Dn/pxvQ63c2LmULRH2rm89PmaYOkx8U8bNvopBpbYIwZitBbiN/gFVsy9BZeev6KwlTh9LVDPLZkutfIkU3SMhgRI4NsQSIdeM+Yj6tx4jJy/D+5iOVloqD9e3TiA6ZP2IbZRD9TLaySWpWikES/SuHepGIXT3RjB1iEnbN/cxTVXDwSHhsLP+wl2LV+IQ+/8IBZOyxFo2ztp83OcEadL6eKRbE1hZXUGo4YsRs0N01E40dbFA3N7dsH1ggOxZLyk3EhGGmGjIYHvQ0DqNLm73scrh4E4OrV6kkIUaLMAzdKJ5ZzT98FLLG4PDfLFrcO/4e+j2VG0YmmhADzBzx27403d3zGyeTn0+WM6ylwfiS7Tr4l406LeBLHJ+vhk9F95A2/8gxES/A5uB8dj+MLMqDWlA3IIX1f/XomHrbqgappIhIn6GBoaKY57DZf3LMRGR8aNBItKo9KtJVOLHa86SlaivkaGiWWgkWEIC/LDk7vX8NTfAmky2Ig9eZpaJ/8UwMAJtYHfh2DSMTe8CxbpBnjhyJT+mPg0Iyo3rkjlRo342/01skS51i1Q8fY/GLH6NJ77BCE8xB/3t/6OgXs8UbCHEyqmywmLxzuxYPdZeAWEipVUz3HnqTfSW9nJx/FKwprlKiFmyX2w9ZcF2FLwD7QuINmqECWUhCBfXwQYm8BGzK4kacTsRUR4OMLDwsTBCG9w7dw+3H/tiPKFP7SM0gTpMmWHnelLnLn4RH6vBL0TS7U2zcVvp2LEAJx3/JPGkkw8zlEhlCvljR34dc1JvPILEs/oaxxYMhW7ouuKzxE4isxmQJvm7XH271lYc+Y2fIMleV9g04wxOPjGBn0bF9ZEJr3RYhARForI0DBxFYZIpXi3xYiNI+JfaITYexoWofdeyow2g5si69rJGLz9DrwDQhAe7ItLi0ZgyAVjlG1fT162qn47imV8cSKLmZ8E7zdjc6gez8Xqo8YYOah6okuzw6/MRJ/fxDH1P8+XlRspOnVV176J9ROQrguiRrF3ODJ3Do688BPtRghe3r4hzmezhYNlOmTJnU0oH/dw6panKMNQ+L9xx7mFv+L3W2nFkro36mPHo69hyYKHaN+xqlhWFybaHWk/VxTCIgULobiJlYlARkcUtVPi7RVxql5IBEIC38L12n+YMX85IoWSEin23iRmokVHJEFTBY8na3DKMgs6N/mSPVGJpfK+nXZI4H0X2pAACaRoAlaVhmDPimD8umIyOm21FRtURecnyhw2xfvgwLR+Yr28OF9fNExhwREwEmt445QIMRsTKhb7h0WJ/Bkhf6NemH78Iqb2aYFVWTMgq0MB5ChTESO77ETfHdfwEs7IFBuJoMBARMbbcChekoEhiI5Qa1GqmGgEvnuMqMYHMaNG3IKW6LAYBJqqDyu49vsgjDrqiJ8vzUAxXesjXp5CkqCEHxtJ0fQp3I9CIEoMDAA58dvKoSjwXv9BhcgQcdqVqD+ySVcDS7evxM8zZqOz83zEmkcjMsAITgs3YmQ5I+zo3g6z7tbGLo8+kCZj4NACexe0RO5uzTG28k3MqjsS2zeHYNjs4Wj5rxmsjCNFB8sCjRdvwYw2uXBr81T0mSA2LDsGol39teKEaqnWihlZk0DcEaqN/9YVOOBcGk4qqe5GQ1P1xLXaRIYKWU00soo6iyg//NnfCWL7HZTh/giMNkWm6lMxuVNhmF8Su4+VMdIp2LLJ2+lvbPGZjFkTu+KYOJhAJfYchITmwOT129G7qGa0XJMOf/5PAmIEP0gcYBH2kR3VdoXaYMmmAEye+xva7wmHpdir887fGE2mbMKC5tmFEJkxc2Jf9BbPU5t/MsE4Ngz+lo6Y91t3ZDHVjDApHNChUwVMbLNQxLFH2uIlTDCODRqAmTdP4W2lVhhRWLuVXTgJpThCvB/CNO8MlXiOXj8/i9FdmyGreC6UYe+Ecg/UHDQNnSuo94QoY4WyFByseV7lBJCpTHtMmHgBk4d3wKlsWZFZ7CnLlqMSZo5vjQb99uOB1zxo9SNVVChiAsUhHXEvKXUkCf5Khxg4liyNNHfXY0ivRfDzCUS4VTZM3fAHaslZMEOJruOxOWQaFkzth21RYpdHrB8CTHNj9tb5aJxVHaEyKloMGvyH4U6e8h4mhXg/edxwB7zGouH1TIiW9q5GeEGcWIzQaLVQWepOxKa1Fpi2YBCaL42Fqdhk7x+QBkNW/YdJVdVrWmPEBn6VUBc0NVCdmNgrF6KK0H1LKzpKvHtv+aHU3pOorNMrxXtaGSBmgMRLMfQyurUaj9d1J2N6t0I6AqrocHH6SBCi42lPWmcj1Ju6HxNe98Igl4bIYWsFn9AAOI5ajhl1syBz+DhM6dcXc1o3wb95RTlkEeWRpzZWTPZB41+P4dVTZ/w9sw+WvYhC8RntUW92lFohETN3UWLZI4TStGrTHlQb74Jpqwaj74QRqHVuPvJmzyvKNT0K95yLGn9Nx333ADjls9XN5Gilk56psKAAMdCiJiPpkWITGZzEN8Py22meU6XgFBykW26rC/t/XCjECOxHHqn/I3YGJQES+MoEVAh+6w4PT7FcTLQdNumzwkG8TGzN1I2GKjYCr93E4q8M+ZAtvXbTpRLBL5/BzSQzSmZLI8sXHeoHd3d3BITFijiyiw2IWWAa+AT3X1mjQDEHWIjNyk/E9Hz6vAWR0VLTIIlxL78HrniVMR9KZLZEbKgXHrt5wjp3aeS01foRbbL7HbwyzoOiYumA/8sn4rscVihUPIfeyFUkvG8/RGDWfCiY5TMXh39luoz+RyegQqDXY7gFiKNR8+eAVdxRg5qMi29GPb+PYNsCyJsx7hiMSDFy/ML9LULEKWnps4j6Ik4dMhZquueDp/Axs0exfBk0y0FFNDEBeHTvJYyy5Ue+TFZi2EGqsx549UbUWRFeGunO6SCFD8S2AS3FGvi2GNOlfILZUXFEriocm1bPg02L+ZhUywa3HnjAPn8JZNFbN+Yn6lqgsSNyibpmFO6DGw9fQSE6F9rRU6s0mcUAhj3SWZlAFeKJO898katICaTVrZKJRYCnaE/ECUsRRlbImjUnsme21azv/9GfhW+XP1WkHx4/9IZdnnywt/u48hju5wV3T08ER5nALqM9cuXIDHOtMi6UXT8vD7z2DkC0mPXJkC0HcmSK38kMvzgR6Tu+Ft9R+hsV5HAxeCfa7hdiUCmdQ37kyWoTV8aio+nt/hLRtg7InsFKKMai7X/gLj7KKLqK4n+F6PRapc2KnDmywspULURMuJiJFN/NyZw/D9LKpxtoWEYFweOlB94GRcLMLiNy5xKrBcTZYLddvZGjUFFoV67FBLzEg9fhcCxUSOyj+UA5iP0dN1YOxPCDWbBx5RBEvvVEoOCRMUcu5MyQ8L0RDT/xHL/29Ee0OPY4o0Nu5MwU5ycy4BWevfJBRKT2G1fSEdRiiZUYEFQf2CFkEBt+jMU+tQx5SyKHthMu191X8PB+g1ClOTJmlupuOl1dD3v7BE88bVGoVFZoF+UhNgjPRf23LlAc4jWJEE9XPPM1Rd6i+XSn0InRRnjccYPCsQiymwTgvqs7zLIVRv5MuligDPbCXY8Q5M0vTq/T1df4rGJDfUS7JLiEKmGRLhOy55Rm0dR+VEIxfS6+kecn9gZZp8uKPLnsYRHuhTviRNN8prdRseq/GPLfaEgrdPUVTYWY4fa7uwUrbppi/vRpcLCOga/7M7z2Fas7zNPBPmduZLYVhxs8eQbTLPmQRTzP2kdTK520JO/1Y3U/JHsmC4SKAxOe+lnFy4v0zb6XQvY0DnmR3lI3+qmN4ot+qeB8ETYGIgESIAESIIHkJCA+6jigOU45/oK/RtTVnZqlS0GMDi+cORB+VaZjUoNcOmtekEDSBEKxc0gtLM35J46Oqpa015TsqlFwhu3LiM2bZ0Do8DTJReDlThQrfwwLXixAXav3tSevS0vw6y4vTJ0oKTjJlejXjyd51KSvLydTIAESIAESIIEfmIAx0ubIL8+YJJpJMZKaKWsumNl+fMQ/0fC0THUEbm8YhpmbLuLEE0esPlbWwPMv9rKIvUAxYlmfmEiiSU4CZmlQWKyqsNU/WVEvflPrjGKmSuyyjVuYoeeaci85g5Nyy4aSkQAJkAAJkAAJkMAXEfC6vAbzNjxD1Z5i30hpzQaUL4opJQRS4vWV3djrao2OHRriE1b2pQShKcN3JEAF5zvCZ9IkQAIkQAIkQAIkQAIkQALJS8DAJpySN/OMjQRIgARIgARIgARIgARI4MciwD04P1Z5Mjck8AkExEGWvm/hExKGWHG80ofWM9tmckAm27iTo9QRx4hvD/jDTxwPHRWjgLmlNdKkTwdbCzYlnwCeXkiABEiABPQJiGOoAwIDECy+vRSjFB8TjXmLSxcfIFe9LqjgwDF4fVS8/jwC7JV8Hi/6JoEfgEAoTvV1RpNdV5FRHNtpnVDJEV9md3/tDZfZx7FjZJ2405xC3LH370VYdeA63gSFiA9/mSCDtQUsc5ZC+xFD0b5cTt1xmT8AJGaBBEiABEjgaxIIdseG+dPx5z+H4ObpAfGtUvHZJwtkL1gHa5p0+5opM+5UQIAKTiooZGaRBOITUMDExhwm6Ip1F6ejRGSM+KJNnFGEvMKkn5og3ETvgwRhLzC7rxPm3y+JiXNmoWFxR2QU3zbzf/0cV3fNw5CGTfByzU6McS4g4qUhARIgARIggSQIxARi86TBmOKaCxOmLkPe3OJbUGKwLVYoONkci4rvTiURlk4k8AkE2Bf5BEj0QgI/HgEVlLBDNvvskL6HHc8Eq5DWylh8ekxrInFz1W+YcrE4/ru4FHWy2modYFMwHXKMXg7b8DZoO/43NKi0DOUyJ1zWpvPOCxIwTALSOs6EX6/77Jx8IBI9a+m72wrxgUG10XeIS/+DfhKTRy+KxJxpRwLfi0CE5zVseB2CWX9OQ8tC6g9Of1SWr/Y860esd5345UfF/HQPegl8eqCP+0wQbYLbj4f/QXxwgeMPUpDMBgl8CQGp4XvPJLBUhvhiy6FtqNi5NaqKL2S/Z4ytUbnHYJT33Y2t51+/50wLEjB4AooQHGhRBWZC+TARM5vGJiZi6aZCVkamX47Lnb/rQYzvXAvFckhu1shZvDYmbH2k2eemwJuDLUW48tjuGxcGimeYKOLKs+65HJ/75lLitz6OhGoVHeFXcQeDhZ/ae7xkP4+WZhC/rXEhWs+PXpQXpxcR7qPhqnNW4eXhhWhbPTesFWbIUtwJs/Y9QpRSLxAvSSAJAsHPz+P3/nWQXWEMq4zl0H/JIbwNS/Cy0A8fHYCLG6aiYZmcUBibwr5Ka6w85IpQebmACu+87yOTcUEUCD6PnztVRGYRb7q8dfDL5msIjgIi/a6jTzGpHhnLz7xx551JDjK8PrEAzcpmhZWoJ8bGYi+PiRTWFA3+uqmRSoWQNzcxt3c9ZLU1QZpsJdFt+kEEyK4KqOtdPRz+UL2T/akQ6nMXf/ZtgGzinGpF5rzoMGoVXIP0ONyYJdK1wuI7cTBiI/zwSx0zdPvjDkTWEH3qFygyFsLlAF0Fhc/tJSgm8tp35S1Ea6ILdb+JeYMbILelKUzN8qPFL6tw3ydWHbEYDLm8pKPMxqrTIkSK2S+dUbzB/PImws0cTv+JNkPnkLouqOCkrvJmbkngswmEB93Dg1PmqFispHhxJB7cJn0h5C1uisNXXBP3QFsSMGgCCihjo1Bn4n64v3CD2wt3vDj+J7JYio/faepE+N11qFuxO67k64YNx1/hxbNzmN3SAvPbVcGYi2pNQmFsLhQMC4i+l55RQPp2uJXGUmFiCSNYxO19k30awUz8Z6HzYwWYmCfwExelsaml6NSYiXgkE42L8zqhrOgEZWi/AndePsS/40vj344V0XXJYzGTS0MCSRFQIfD2djSu1Qr/xdbFZlc3XNnaG8/nd0CHP89C092OH0FsMPbPao/WU86g9s+b8dTtITZ0y4LZPRpj+MZ7st9o/3CEnd6HDl3Hwb34OJx58QyH5jfEkQH10X7WVajSl8Dv+93wyuc51naxhpn+kun4qQH3Z6NK3XEwab0Il56+wPPnL/HS8xB6SjXARF0LlF470K5QGazxq4GNl5/iyvpB8F/tgkp9tiBSxGf8CfVO9WYP2peojJVvK2Pthad4enAOHB//jhq1R+JKiEYoI1Gbza21yWosRW20sIa5+FKmXPWFwmdhZRlXf2P9sW3ydNxHDliZCR/i/8hX5/FT0zrY6FMVa68+wqOrC5Hr3kJ06DQJ9/zV1I1M1B/9DT9xE9dC9BScx/9hqX9O2FtaCm7xGpuE5H7oey5R+6GLl5kjgf+fQEyYL/zCrcSJaWIk7UPRmZsjrV1m3PHw+pAP2pOAARNQIjwmCnkLFIZD9lzqfIRn0Ck3EGpChG0RjFu1F03aVoDYniZMNuSash5P52bBX9cfYXblwupw3/rv69OY+dc5tF5+EUtbZZNTd8w5FRdtXsKyRTt07XQTTdJ9a6GYnsEQiA3D0U3L8Kb4UJxZ/jPspZdAoZ+wdOJ1lJm9CrdG1kDZBKuSQ9zPYM6yR+i16gzGNcohZ9Wx32JsCnmEaj//iYHt/oZ1kC+OeXqg0vCt2DiqkhpHrrE4sOo5MrfuiB3dnqBTrjyyvb1YMg1VIqsH1KHw4sYGuKMRtv3cGiU0dkAg0oi5U3fNW+vIyFE4kH8y3HdOFGqEMEX6YOcWD+RptByHJ7dDBaMPvt2EZ8lNiaNjx2Bf9tF4vXsSHKQ4kBPT/6uIsJLZMWdxZ2waW+aL9qC+3tUTMz0aonmNF4iOUcoDE9c3D8dZ0x44vmESHOWeel7M35AJLao1x7LjXbCodQEx6KKEfa06aPD4PLZdDkbV+uqlfpf/XoV0gwbBadQEPJTlTJ1/OIOTOsuduSaBZCcgZszFCTgcM0l2sIwwBRAIhVe4MexsxZSN1ojORdyYqRHS5S6PtrJyE43Xrtdxeu9acVhHT/wZKvbV6L1pVSoTWNlpI5F+7cR8jei/6ayko9tNYC0maeKMLczFTZwf0eUSS81sPlLdpG7Zu1d38cwnCwql88T9e3dxV/rn+gieNmXgGHsbZ+9GxyXDKxJIQCA2MhS375xDyUqVkFbPLVfrP3DvwGwUVk8i6LkAAXeP4qFNITQqqVYDtI5lG7ZEWr+1OPkYsBYPuBVKw6VBXq2z/JupURe0MHuKJSfjljsrjS0QsbY17B0ckDVzJhSq1BSTVl9EuCZk7hJdYIv9WL3tpV5cVmJmVNQlufI9weFj3rBs2Uyt3Gh8mZQZg8u3NqK+0Ptj5CVeprBJpN6pK7AbTh71hEm1goh+6qquR1Jduu+PzEVzwOPOHfVyN6nSiWVyVnr6mLFFGliYvv9JBpXULoSdxsCujzB40e8ok1EpPt2gEApOBK6dvgrrdPngK2Zc72nq7aOnwciZ1hTXbr3Q5EAMrJgXQcuf0mLlv8fU7UPkQ6zYlwc9mlWEcbw2ShMkFf18pHlMRSSYVRIggUQJmKfNi1yOQfD3C43XwYrnOTQA7966o2pp9QhxPDfekIChExD70A4FFoJLzgRD1fr5in2LbeM7oN3sk6J/I9b4Z62AVr80R3vT/fhX589MKDen0FBahqJvRCesrO5enHBovBuVRScpnrFKg5Y6C9F1i14r1uyvVdvYOaCGc29MmjIWdfLG9dCkGPxd3yA27BpGNKisWbKmjUTsVbCyxsU33sJCPcqudeEvCWgJSN3yWDF7aSz2h+gbI4t0yPaB5j46IgrvzMzEDGf8MApjsXTSWClmKQDLtOmQJkMGZLdLUKfMhZIhnv2L4cFxyYnloSYNx2L75NpQRMUg4OEh/Dm+Coqd+Qc313aGXclRuLLqDmq0zY3lcaHEUrE0cJZnX2IQLa3q0q4n1foxtoFDDvV8q0os6TQxSazepUVLSUkK8sRWoTLF/tUZjgu1Eah/VUolKnV0RYS8v0jYRfiga26FOKdU3zhiWEP9e/EdOZH10+O74+rQ1dhdQYVfoqQhDGmlxGM82w88MBqMqgXjtwNGsbGILuKjiygm2gjlGvVEdIVDuPp3KxS/fwoXKxXA1HxWmKfzlTov9MaVUicA5poESCBpAhY2BVGhWlacPnsJoR9YsO/jdh43HqaFc5XiSUdGVxIwQALRYh+Ar40NCudIZLhazk8YTs7pibbzg/H3JR/Eig6Z3+tzWDmgHezEuvs4E42I0IpYcvW52KPzGI+fPMPLtycwTCVGYnWeokT4+lh310Pjxw3PXx9Az7BI3Yi1GG8W/aAW2PbwNZ67PcPjMxvhZHsIzoUqYd1zMf9jrO4USd2ldAXsoMzbECfCxHHwMfr/QnFfzOTsd6Zyo0PPi/cIKETn3sTUAtFKbe9d4yXcV8xi3IdX3HGburBm1pbIFBYhlnXGD6OMDoIqxgIWYjrSPLMD0tqHwD8kvh+8eYlbMSrUyqi3blLUD+MMxVG1TEVUqVQVTbpPw9HdE/Fm96/Y/0SdbKFeq7H5VxcUKN4C607dh9urfegeGS7qjFQLTGFpIn4jonUyqi9C4XblDt6IyqdQRAtFLrF6J/Ih0ocYRGgdEYESC58kqEeiTvk9xo5FU+EgTRnIyaXFjAPP8MLtiajjj/Hw/lUMruWPcOmEAY0xMjZC8JktGH2qHnaMqQ0BSzOAKM0M54KjE1Bt5Ln30vLz98bb39tpoxFNgZC7XAv8br8KKw/74+6JS6iZvSzs5fmrOG+p8Uq/5U2N+WeeSYAEPkZAjNS1794Pgftm4rcdd9/3HXkff46YhsDKA9G2Upb33WlDAgZO4NWNs7ArmgfF08TNjkgnbkhqhJE8SB2CJ7c8AZc+6FEhgy630Te2YltYLEzk4WPJWoyHK82QLV9u5MqbH/nz5UXOTHkhffJDf+xAJRak5cifXeMnD3I75EZ64UPqO6mNtOzNGo4FHZA7T17kL1kLo5YsRINoNxy58wwxRnGv9gw5S6Ng5DWs2OiqDSz/vljUHPlzdcOBd/GseUMC8QgYm1mjbKmqcD17Bn56LkGXF6BmkxG4qN1cr+eWtnhjFIu4g90X3fVsgUt7duFN5q6oV0DM4GQsivJWPth28EE8Pw/3/ou7duXQrVbCd0nc0y8HsEkDq+hoeIeqhwbc1rig5TRX9Fi+Fl1rFkGebHmQTqpvknKCfGjinB3hm3fhuX5qXlvRolJj7BVKknQWwfv1Lo+63slx5Eb1+jlwe+FCMb+iZ0KuoG2Z/Oi//rr6e3JSo2Bsgky5xcqHPPlEHc+PggUKIpNVLPQPOosNeoXZC/ag4vB+qCTpcrrsKUVNT4PSlUvAbe9q3JY+fqo1nkfQqngljNnzTGsjfmMRFZkJLr9WwOqF67HuRSwKVK+UYLZWz3squuQStVRU2MwqCXwZAQWy1OqPvUs90aVTbezb1heTB7ZDmewKPDq+HXOnL8SdLB2xffMo5LaO61h9WVoMRQIpi0CQ20Ws/Oc8shQehNduj/FW9ESkY2+NnnmLUW3grTj9KaykIyrWLQarwb9g8PICGFQ3I54cX4NZW28hWxng3su3cqa08ypKabmMzoiOj7hWu6ktpevE/OiCCN8qZSieunogjVkUQt/dxf5V03HEPCeWFc8HkydqdUnuM2VvhOkTmqLM4OqIeL0C09sVwrPjSzFwyEHUmnoJbeJvk4hLglckIBEwtkK9rsOQe0tnOPVJg8XDm8DoxWGM6b8CZbtvROPM72Oyzl4F40ZVRadh7WEWOB1dqmXD490zMOj3Z+j39zIUlo4NTFsEg8Z1RrPeLmjkvwB/dC+HV8cXYsCAw2i78hoaSVq/zohTDEM98PjVcxhFhcP36nHMnDkB0TUmoU0psc7LfQM6Dz+AzCMOYWxl7Qa3GLleaTWH2n8sRbvCDVG/jR2W/9oSGV7vx7je4xHRczFai4UHoQ+l2iKW48Wrm/pxmKDZ0iXoUKQ+6lSLwF/zhqNg1AUsHj0M+5RdcbCTOEZeklcdTbz6GytmspQq/RouHYP9Bq7KfJjeqJw6l3rOUu0t23016m6rhsatrLFyWj/kiXmAP8YOwk17F8xulFebLTmsmDBGAZfBKDegBw46t8GOUpJyqG5z1JGn0r/io2E0JEACqYpAiOpIpyqiGR6ouplYvgOfqQbXtVO1nndSJTZexjdvr6mWjGqnypfFUoS3UxWr10n15+6bqiygT58AAEAASURBVIj4vnhHAj8MgZ1DtF2WxH+NTM1UW9yl7AapTi4eqCpir1ApTG1VDX5aqrofrFJdmGyhMis4V/VK+PA93E5ljSqqnT76eJ6ppojuSqF/nsuW7lvEYnw0UR0N1fdzVzUcJqoGe71ky0fLc2m6UVqZMqkqtvpJte1GkOx+aWYp4f6z6qFeFL4X16q61cmjErsgVGny1VRN2P5Iz5WXJJA0gRjR9k/v11AlFjSqLDJVUo1cd14VGJlUmGDV9a1/qJqVyymNCIh3RS/VpnMvVVEJ3imvzq1R9ayURzyvClV6x4aqmfseqqJi48d7oH/G+M971kKqVmM2qjyjJH9vVSsb5VYhfW/VFfleG/a2agiMVXUWxb3lokOeqZb+VF+V0Vqhss1eVjVg/jmVNgvqetdYdSREG176jV/vJJuY0BeqlcOaqbLZijVvNllVDfvOVz3Qr6s356hgmk619K7kW21iwv1UExvaqXrPvaOSRIw6M1HkJ4tqxK6nWi8qVbCHalzTqqq+y6/rGEX7PFGtGNNMldvcSKUwzq6qN3Sh6t5bDUClUnVpcQeVdbXeqof+UjQ+qumVoKra+T/REknmjmqYaDMa7VO3GbJVKvujkPKbSnU7ZpsEUicBqcZrR4v0r1MnDeaaBJIksG2MKdbmf4r9fXIl4s8HcxRZkOGlEj1yJuKsbyW9ahMeHCDc9a2l17FC50evcupfxvOjn4D6Wj8+Wf2R67peBO8HoQ0JpFwCST660hI06YOeWvH1POtdxtUDrT+9X9nfBzzrWetd6gVOeCkdySDkSWgd7/7TYooX5LNvRBrSjJFGkG+R4meL+A0CcD3JN4DMJEggRRHQb331r1OUkBSGBFIGgRhxNFJAgP8HhAkQR8OqIPZEf9zE9cLi+dW3jlNuJC96lVP/Uj9AvJjUN/GcdeF0F4mEoBUJpGACST66+sqNlAc9z3qX+tbv5VT29wHPetZ6l+9FEWfxMeVG8vlpMcXF+SVXIg29ZPQuvyQygw3DPTgGW3QUnARIgARI4GsTqDPoMPKbO34gmWzocegwLBLuh/6Ab1qTAAmQAAl8GwJcovZtODMVEiABEiABEiABEiABEiCBb0CAS9S+AWQmQQKGSsDf3x9v3/I0FkMtP8ptWATCw8Ph5eUl9hV8ypo3w8obpSWBlEjA29sboaH6ZzGnRCkp05cQoILzJdQYhgRSCYFevXqhdOnSqSS3zCYJfF8CW7ZsgYODA6Ki9L4I+H1FYuok8MMSkAYS7O3tsXjx4h82j6k5Y1RwUnPpM+8k8AkEOJr8CZDohQSSgQDrWjJAZBQk8JkEWO8+E5iBeKeCYyAFRTFJ4HsRiH+y0/eSgumSwI9PgHXtxy9j5jDlEWC9S3llkhwSUcFJDoqMgwRIgARIgARIgARIgARIIEUQoIKTIoqBQpAACZAACZAACZAACZAACSQHASo4yUGRcZAACZAACZAACZAACZAACaQIAlRwUkQxUAgSIAESIAESIAESIAESIIHkIEAFJzkoMg4SIAESIAESIAESIAESIIEUQYAKToooBgpBAiRAAiRAAiRAAiRAAiSQHASo4CQHRcZBAiRAAiRAAiRAAiRAAiSQIghQwUkRxUAhSIAESIAESIAESIAESIAEkoMAFZzkoMg4SIAESIAESIAESIAESIAEUgQBKjgpohgoBAmQAAmQAAmQAAmQAAmQQHIQoIKTHBQZBwmQAAmQAAmQAAmQAAmQQIogQAUnRRQDhSCBlEnA3NwcRkZsJlJm6VCqH42AjY2NnCWp3tGQAAl8XQIKhUJOwMrK6usmxNi/CwGFvb29SpjvkjgTJQEtgejoaMTExGhv+ZsCCEiNf2hoKGJjY2Fra5sCJKIIJPBjE4iKikJ4eDjs7Oyg7Xz92Dlm7kjg+xIIDAyEhYUFOKjwfcshOVOXBmWl9tNEKtxChQrB2toaVHSSEzHj+hQC0kMovdCvX7+Oxo0b8zn8FGjfyI+JiQnOnj0LPz8/1K9f/xulymRIIHUSkNrC58+f49q1a6hXrx5nTlPnY8Bcf2MC27dvR/78+VG4cGEolcpvnDqTS24C2n7L69evobC0tFQNGDAAc+bMSe50GB8JfBKB2bNnY/z48fDx8UHatGk/KQw9fRsC7dq1w4ULF+Dh4fFtEmQqJJCKCWzZsgXt27fnYGMqfgaY9W9LQBpYWLBgAYYMGfJtE2ZqX41A27ZtsW3bNsiL66XlQTQk8L0IREZGykkHBwd/LxGY7gcISG0DR7U+AIfWJJDMBKTZbMlo28Rkjp7RkQAJ6BHQrlqKiIjQs+WloRPQbnfg7mFDL0nKTwIkQAIkQAIkQAIkQAIkoCNABUeHghckQAIkQAIkQAIkQAIkQAKGToAKjqGXIOUnARIgARIgARIgARIgARLQEaCCo0PBCxIgARIgARIgARIgARIgAUMnQAXH0EuQ8pMACZAACZAACZAACZAACegIUMHRoeAFCZAACZAACZAACZAACZCAoROggmPoJUj5SSAZCEhHdMfGxn5WTKGhofxex2cRo2cSUBOQjjENCQn5LBwBAQHQHn/6WQHpmQRIgARSIQEqOKmw0JllEkhI4PTp05g6dSpu3LiR0Om9ey8vL8ydOxdHjhyhgvMeHVqQwMcJSMrNpEmTcPLkyY96DgwMxPr16zFx4kRIHyWkIQESIAES+DgBKjgfZ0QfJPDDE6hVqxb++ecftGjRAt26dcPTp0/lPEsdKm2nKiwsDFOmTEGdOnWwZMkS5MmTB0ZGbEJ++IeDGUx2AnZ2drC1tUWDBg3g5OSEixcvymkYGxvLv+bm5vLv8uXLZT9SnaxcuTK07skuECMkARIggR+MAHsnP1iBMjsk8CUEbGxsMGbMGLi7u8uKTrFixTBq1Cj5i+pRUVGQOlqOjo7yLM/Dhw9Rt25dlCpV6kuSYhgSSPUEpIGBNm3awN7eHvv27YM0wNC4cWNIdUsymzZtQs6cOdG/f39cuXIFUn3s0KFDqudGACRAAiTwqQSo4HwqKfojgR+cwE8//SR3uFQqFSSlRlqGtn//fvj4+EBy8/b2hlKpRLp06TBy5MgfnAazRwJfl0DRokXRvHlzORGpvh06dAi//fabPCvaqVMneHh46JaALliw4OsKw9hJgARI4AcjQAXnBytQZocE/h8C0tIzyUhKzoeM1CkrWLDgh5xpTwIk8IkEevXqhQwZMsTzLQ0i6BtpSWi1atX0rXhNAiRAAiTwEQJUcD4CiM4kkJoIODs7o3z58h/MsrQfZ/78+R90pwMJkMCnEyhZsiQaNWr0wQDSUrbBgwfDzMzsg37oQAIkQAIk8D4BKjjvM6ENCaRaAlKHSjpI4ENGOvlJ2iBNQwIkkDwE5s2b98GIatSogZo1a37QnQ4kQAIkQAKJE6CCkzgX2pJAqiUgzeDUrl37vfxLBxFIBw/QkAAJJB+BzJkzY8CAAe9FKJ2k1r59e3nP23uOtCABEiABEkiSABWcJPHQkQRSH4GMGTOiY8eOMDU1jZf58ePHw8LCIp4db0iABP5/AtLhAiYmJvEiypcvH7p37x7PjjckQAIkQAKfRoAKzqdxoi8SSFUEpCNsCxcurMtzrly50LJlS36HQ0eEFySQfATSpEmDyZMnyxFqvzs1btw4aL+Hk3wpMSYSIAESSB0EfhAFxwfn1s5Bx/plkCVrLpSs2gET1p9GVOooQ+aSBJKdgNTh6tOnj+5DntLhAzw5LdkxM0IS0BFo27YtsmXLJp9gWKhQIXTu3FnnxgsSIAESIIHPI2DgCk4svG9sQtM8jqg+cimC8jfBtF+Gol5OHyzuUwvmubthv/fnAaFvEiABNYFBgwYhU6ZM8r9+/foRCwmQwFckkD9/fkjfv5HM4sWLv2JKjJoESIAEfnwC8Rf9Glh+A912oL1zJ/jUmweftcORUSv/4BGY63UQ3So4wUUcQHPm8jpUSat1lH6lb3wo9C14bYAEpO9FPH36VP4QpXZZhwFmI8WKLO23kTY5nzx5Up7JuXDhQoqV1ZAFMzY2RsWKFQ0iC+7u7nj16pVByGpoQkrPgTSDU6JECVhaWoL17euUoMRZUibTp0//dRJIxliDgoLw6NEjREdHJ2OsjCohgRcvXuDq1avknBBMMt1nzZoVefPmTabYPj0aA1ZwgrCnbz+cse2BS/P1lBs570KBsW+Mv7YMw4n6e3H0/AtUaZobEa7b8dvO5+g+fDTyWmkgiQ8a3j7wF1Y/tMfIfi2Q00azsTo2GNdP7seJo9fha5IVZRs6o3WN/JCmvO79NxjLj5vD3FQBE0sLmCIakeExUMZEIrx6DyxuVUYdeWwAbhzdjUMn7iPILAeqt3RB0zK5NAkDUe/u4d9N6/HAA6jS9zc454tfHM/PrsaiXfeRr1Ev9K1fBMYanSzS+x4OHT2BG7deIsLSDoXKN0CLppWRNn5wXTo/6oX09W/pVK+9e/f+qFn87vmSOgPSvyJFinx3WX5UASS+MTExBpE96UOws2bNMghZDVVIad9NlSpVDFV8g5B7+/btaNWqVYqX9dq1a2jSpAkiIyNTvKyGKqBU35YtW4alS5caahZSvNzdxWEpa9as+eZyGm6X2HMPJh4PQo2xHVEy3uyMxFCtCaSpNBFnL/8E6xz2MtjwB9sxbcZJ1Ogbp+DE+p7GjE7DsC1NO7Tt3FRWcJTBLzGzf3NMPuqLWhXqIUvsRWxcOgErBvyDg9NbI9jdB76+VrCxCcW9BVtxKaY8WvctCduQEIR6BMtpxQTexYxeXTH9VAjq1ayGjJFXMWj5NGyYuA2bB9eS/UT73cW6v2bj1FMgk7IJnOeo7WVHBGLXzF6YdxAoZlQZvesKBcdYCa8LK9Czy6+4k70qXPKmRYDveaxfOA+/1pqKy3uGIps6cKr4K83aSCcPNWjQANOnT+cJX1+p1CXOKjEQQJO8BKQZshkzZmDXrl3JG/FXjE2SWfro5MGDByGNysXGxn7F1Bg1CSQfAakd8/Lykt8XCU+ITL5Ukjcm6f0mtb2bNm1C8eLF2Q4nL145Nu3qD77jkheu9E29ENEnrlevHqystDMKyZvGx2IzWAUn5OZpvDSyQvnqxWD+oVwa2SF3Mb2PEhqZwMjMFKKd05ljM3/CtkBxm1XYS4qRMhYXV4zEhJPpsOX4MbQukl4sz4nEzfVD0bDbAMx3aorRgzaj0kDhW+GNZfsO4kZoR8xfPgzZREMkdwNVShyZ0x2TL6TFpuNH0K54RhgponB70wg06twGU0o+x6QaNrIMscpC6DvQHisX7cdDoeAU0kr26gD2C+Umffo0MJGmjYRoMUHeWDB5HJ7XnoUHi3rDztxIyKDAm0NTUcRpGJaeGYzpNSTPqcdIjZL04UlphsHa2jr1ZJw5/SEIGMIymYSgpRdXgQIFkD179oROvCeBFE3AED9SLA0iSMt7ihUrlqLZUjgSSEhAWmIprVD4XsaAe8OaEWU9ZeWTIWqCqi7/igGLLTHll0FIFx4hlBMFlMrX2LtuB+q1G4kmxTII5UZKwAKlXYbgf+xdBVxVydt+Lt0NIkiJqIgY2GIiJnbXiq7d3d3r2t1ird3d3YCoqCAoDdJdF7h3vvfc4oKx7q7/b9fdM/y455yJ98w8p+adt36e0gHxUTF0zDE33NmIweA23LFkw+UTjfx72LPyOdp5z0Tn6uZSGgJNVO83CyMbamHZ5lMKK6CiAiGqtx8JL6zC8WcSYpKfV0fXI8B5Mbp46qFIJO2wsCAUItWBWEjSJUMtVYgKhcjOyoJYU4skGcD7xLRiAvwejwCPAI8AjwCPAI+AAgF+lV4BBb/DI/CvR+CHleAwJmct/gSPxjVhHzB56DqUXfEY3cy3YTnHRAhUwTL88SzQFJWnloeyUI0ZuuCXlbslNwTHbkjP/vn7g731wzmhGXo7qCHiXTBYkVjSQl1PCGtLQxQcuwG/owNQnSMiLkK+VX308DLE4kMPMLduI8r8gENbnqL5kp2wPboBjyWnYdA1a4qVl+vh8dl9WHwhEh/DPiAqLhbxCdFIyid2S8KMSSrzPzwCPAI8AjwCPAI8AjwCPAI8Av9JBH5YBkff2gkGxBzkRifThbP4wsXLxsXVC5FU3Rs9PeXiXQHUSactZP147DCdgfdjqyJxt8xDiUAFLCUFHwUacDPTljgUkBNWZmiU9+XlyluWk0VuB5JxfEoXXFAWz1FDYSYnZdFFLKnFuUl4MzGK8k3RblAfLJvog6DVjeD86hC2x3XHhTZlcfGATMedGLqivFhsH9MSs2+J0bZNR9Rp1AWeVmVhk38f7frPVe4Cv88jwCPAI8AjwCPAI8AjwCPAI/CfROCHZXBQsyOGWM3ApTM3EDesCqw+x3VEkiOCKVthPa8dMTiy60tMTNGHQIw9mIklW0bCUrUQcTKVNc7+RmDrAEeWg7SwNBTBHn8GIIFZGVhrlkOf04+xpL4hhDIVs+I7TA26ZBokTJLmsKICGDXrhCrCCXgYmYXkPbuhOmoH3PWFOCPvG40v5cleLNonwpRrFzC1aXmoq6iSbQ/RCA6Hxt+n5lg8LH6PR4BHgEeAR4BHgEeAR4BHgEfgb0bgT+h3/c09VpzeGSNXdEPw4y347XoYZHIORSmxDzi3ciGeWzqhV68GxepmhRk4tXolRDX7Ybgb+cGXMxCSliKoqNVAA89MvHjyHCnKrudzX2FEkzqoO/+20jk+vytwroN2OpkIff4BIl19iRE8Z9xoYEBG8MJ85BVwKmuUFOcugoqWB9xbq8H32AGsPKGDqb1akB/pwuIqxMjkJMYisWxZONtaQZMkQ3KNNP97F5Cdo7AEktLmf3kEeAR4BHgEeAR4BHgEeAR4BP6DCPzADA7g2G8TtnVhmNu/M2ZuOYq7/m8Q+eE9Ap5cwvoh9dFpay4Gzt+P3lW0FJdWnJOBXXcTMWBMb2h9RjwjUDVBz5GzEXVtOeZsPomAoDB8eOeHvUvn41hoFkZ1/v2AfCqogyEr2+He+pFYuuMc0fiAD6GBuHdkBVrYOsFjynlyAl3Kjodcpbm7eeDegpk4b94PfeqSSEY5NAYxQ4YVasAl9gm27ziMZ2+I5rvnOL9tKRYcfC/xJBeVm6sYJ7/DI8AjwCPAI8AjwCPAI8AjwCPwX0TgM1P8HwcGgcASP6+/Ciu3LVh7cAFOr45HTrYuisSqsK/fChsujcbQ1q6Qa2+xgmzJ4Gr1GY7u1Q1ljgIYRMIc5Kdlo5CL9UFe0Jw6zsK5fC3MXU9e0JbmQKShDbPybqQedhbeNZVdD4iRn56Fgtx8yGQyUvBI2lJnwAYcE/2CFVsm4eDsPBRpFEDbyBHuU9dh0rie4GIoZ4uFyExLQ34RJ8pRRYUGbtASbkT9n5rDlqNE7qZzs9KQkVNA/u8B4+o9sWHLa4xdMhYtdhnAxKkSGtZoiTGb16NS3WZYfeYh0L8n15JPPAI8AjwCPAI8AjwCPAI8AjwC/0kEfmgGh7ti6gb26DB6GZp7z0Bubg6EhQKoqmmSjYsBDHVLRsgx6rgHUTFC6BmbF6usCdRRY/AmxPYUw8xCxryo6aBBn5k46zUCmVl5EFEdHX1DGBlol/KeZoEhH2LRXWwAy1K3j0DdHJ5DfkH9HjOQlSMkFToBNLT1YGBoqJAc6Tr2xM2wNtA2MaXWAhi79saN+JZQM5BRM7DD8jOxmK9uBHXi0gQwQvOhq/Co+0xk5ZN4R10bRoZG0COX0e7hsZioZqRwP12qO/whjwCPAI8AjwCPAI8AjwCPAI/AfwKBH57BkVwlCuCpZ2Ai+f/aVVPRNoGNdeka5FVN1whWpWNEkstoXUMz+i9dX/lYBbqWVuQT7QtJRV3CTOkZf75cQIyUuWWxREigqgXTMkodpD4YmpWFchcEqhqf5HHU9agf0tChnz8Xn8sjwCPAI8AjwCPAI8AjwCPAI/BfQOCHtsH5L1wgfow8AjwCPAI8AjwCPAI8AjwCPAI8At+OAM/gfDtWfE0eAR4BHgEeAR4BHgEeAR4BHgEegX84AjyD8w+/QHz3eAR4BHgEeAR4BHgEeAR4BHgEeAS+HYF/hw3Ot4+Xr8kjwCPAI8AjwCPAI8AjwCNACDBy0crIYyvnqZVLAgqGLqAge1wMcT7xCPzICPASnB/56vF95xHgEeAR4BHgEeAR4BH4wwgIEfvuDrZO90aD6jYw1teBlqUdGnTxxu6LgcgqlHE8f5gu34BH4J+BAM/g/NnrwD/7fxY5vh2PAI8AjwCPAI8Aj8DfhkA+/HZORSu3ztgfa4kRc31w454v7hxcifYOmVgwsBm6L72ITLlY52/rJ39iHoE/jwCvovZnsRPk4dncCZic4YErG3p92VX0n6XPt+MR4BHgEeAR4BHgEeAR+M4IxF1bhv4jNqLyL/44NMUNOgp9tGpwb90RDRx+RpcJvbCpWTRmNePCkn8mccwPBUaXp1KH8mzF9vfKFRW/YeertLjF5+Ju0cEnGd9whu9f5Z/Ri+8/rn8yRV6C86evjhjpwS/x4HUsBfHkE48AjwCPAI8AjwCPAI/APxyB/Bjs2n4K75ynYs1UZeZG3m9deHYdhY5dWiM87qMkM/fDcbQo74DVj5PllSTMTeiuttDS0kLdQxHKvA7CLv6KjrUciHEyQKVGA7A3IEdSHrR/IKwNVaCurg51DU1qqwkNbp/+De1ccChERj4/ESdXDIZrWT0IzMuj3bjdiClQPnUYllIbgYo5uk05i4ziIglzE7CxLYz11GBhMwavxErczsebmN/LA7bmutQfM9RoMxqH/JTGpExHti/KS8byHmSTJNCQ9pvOq2tcBm0m7cL7zEJpLZaFK7O6QLPmJIQJPz8jFORFYnyHKhCMPCRtk/EeU7s60RjUpHTVKJ6jWTm0H7kN74Xikj3JfYGNI7qgUlkBdCwqoOeUPQjLLVkFiafgQQynQIanBGMOo3INsOGh9DpKW+Ti5clf0bdxJcl5dY1c0HPWfoTKx1KK7I98yEtwfuSrx/edR4BHgEeAR4BHgEeAR+AbEciLD4Lvyzeo5b0J5b/UxqYpfjvVtLiUnBAUFhRApDzvTryKqfMeQygUolDEySe4VITzE2ug47qPaPrzCGwb64CA40sxzE0PD31eY3G9kVi/pSUKSAQT//gw5h2MxvCF41DLjAKea+qjmimRiL8D71bNcSDOCQMnrMcUi484smwCbA6cw/k3Z9HeijsPQ1FREWCtjuC3lxGT2hGGJjJGRvQBpw/HIL9ABCYskshvuBZ59xegUpOF0PIajOmrRqOMMALHDq2Ad9OTiDgViFmtzblqn0kM+TmAW6cZGNPNGZoCMdJCbmPj+qGoE56H2FNjJRIwsagQBYXF5/uUEPW5kLi0IhmIhEFeVhoa9J2D0a0rQoWWyhOC7mLbppFwChMh4+poGBCR3Od70KLOCATTNRk39wAci17hwPqxcNx8BMeCr6GHnexMdI3UVHQxZtVONKahFDEB8sIuYcYvzyV4c7WYOBuXZ3ZE51VB6DVzNvYNN0FW2H1s3OiNWk9jEHJ5Biw1/j1yj+/E4IiRHPQAZ4IF6N7OHUaaKhAXJOHpmbN4aFQPk1q6AgVpeHz9AALCqYwuhCIJVKFKN0yTPmPhyt3cspQW+gT3/YMQHZcONVNruNRsBPdqViUlj1Q3I9wPt+89R1QaYFm5Opp61EMZDTkVbitC9Iu7ePA0CIlCPVSuWxeN6zuDHidJinq8BQ8SG6FTp2oKNTNxfgruXTiEFyaeGN/cWbEykRnxHNfvPUJctjkad3OHqqoacd+aYEVxuH/mAp4nqcO5blu0qmWpkIpmfziF367roP2QNrBWQjvm0W4cCzdHe6+2qGikjtinW3E7pj46dasJfa5n2e9x/thdFNk3QTsPJ2hKeluI0Gc34fsiHMl5BTCyqYJ69RuikpWupJTuXoQ9OYF7abbo5lkf+gocshBw8iyelGuGkfXKUd1CRF89j0uFTvi5vSvUpa3pNxu++w/ijaYlvLp0hrlGNl7s+A2vq3VA//qSt4qkpjgvGpd9jgO126NV7YpQ//c8Dwok+B0eAR4BHgEeAR6BfxcCDDlZCUhOoM93eZqn/OmUjTMbtiDRiuYFH4vlJ/n3Z6Dnuhj8fDwQu7vbSKgPGNgfDb0rYciGDRh1ezu6O9eT5EfoBmLhMTHa9PoJLctKZzhAJg4MGor9Uc1x7MUt9LCXdtDbuwNGudXD6FGrUfvMZMh7bt12ECyjX8A/KhVVTEwl88Pc1/dwQt0B3ZsE4VQAtZfwPe+waOoKxLfZhNQLo6EnJYvuw37ChAplcOPkY4wh1TyOofhcEokEcKrXBt4/NSRGhEv94GEvQu3BR3A5dQy6Kc1dP9f+S3kiYngcm3REv5/cZFV+QpfKUajgPQcnI0djkHkQ5kyagiD3WQi4twAOsloDhvbH2FrVMdR7OurcWQF7Lj8rCwn6+pgzuA+ayAZY8DYNyxY9hXzGXRhzFgt8nmPIfl9s6ecko9YXneoZwLXNadxOmoI+1oqJo6z8x918n6kpEyHqtg+GLvTBx1ziqomZf3NsKYaMW45TD6MkbgiLsj9i35LxmLV6P65fv4WbN27i1s07dGNtw5ix43AlWg5iIXy3/AwPj56YuesMHjy4hiMrJqF161b4ac0TmpoXp6DfxqK2R3tMXXsIty4dw3zvFmjTbxKexVEfJIkewtlt0NSrP1btu4DbJ7egf+fm6D11B2Jl4r2Xh0dj8uLLSC0mi7g7O/Fzj3GYuOM23RjcyoQYCU924ac2bTFkFZ3r4i4M6zcIG57HQSX7PmZ2aopJu87j6oGl6NauKQbueCN7qICUJ/MxYuRavCXGXZEyH2Cc1xBMnr4c9+OEkuw3x0dh/LzzSJEc5eLi1HboseQQnoZGIl+yOBIPnyHu8OwzFXvPXMPt26exfmwfNGg/BL/5J0hXKcQi+B6ehVGrDiMpT3E22knB+XnjMOoY9UuShAjcsAAjfrkK5Wr5AevQ2Xskxs9aJBN/JuPC8BEYf/StrJ108+b4OLQfPRlrTjxEvvzJKVGDP+AR4BHgEeAR4BHgEfhnIcCpWqlAhWZ+ohLimD/SS4asoAvYcBdYNn+0rCHHRYhwf8sl5Gv0xkQZcyMt1ELX1ZdxYtto2KrLJgy0GCss4OZpJBkiCZAixfhi/+1w1Jj8i4K5kZRpVseyJT0Q9ewkHn9Q1IaxaQ14GKTi0eMwmZvrfPhfuQSbhm3hVU4TCsFSgSm6bbiG+welzE1uRjzePLmCPauW4l60GuGRR73/Y0mYk4MCYol0tGXtOMMgVW0Ya6r+MUKlamelCUkOZiKhmxf2CHdfFmHorJEK5kZSXbsaFi7ujYyA47gWKJvvpschUKUu9JVOn68kweLaqenWxYpL97BcwtwI8TEyBA8v7cX6XTeRjnzk5Egmm6V69OMeKskU/togVNQ0oKklIO5WhSbbkdi39zAarr2NTT2doUo+1UWcbiCdounPc/DblNbQUGEQqGlB8HIjyjQYp5AC5D7fib4zD6Hqiqc4McQZRfQQClQFuDenAdqs+BkD+rxFq7JE6PV2eAzajuoLzuHAxBYwENDKROx5/FS7OxasaYSjq7oi8/hQdFn/EgsO3MMUr/JQIwYg+uYSNG+/AJsaNMHSrpWhSsyqlhbpKcqGz1gEfJbNRDh3rCmFR5QZh9UL5yCkwXwErfWGsTZD+J3V6N//BkSh4QhacBsP5zYiSVQhHq/uhMbjuqGVZzD6lic+hxsjyV9oCLIkxu353XA6nQ7LaJNIUZqtSmIURT8iTmLMNlVsDrmJwRXosaO2obv6YciRTKy7+gAj6+qTqFiM/LQoLOpVExt9msLLdQSMqLuq6lrQ1tRQSJ2k1AVQ16KnUKP4zlfV1JKMT9EtRGB5/02IowbW2lqgS0aJdGWp49rqxe2QcQuzvM9IyGprkARLssf/8AjwCPAI8AjwCPAI/NMRUKG5kip90gvE376+XWLaS3OPw5tXQ73RfDRzyZIOl+Z3pFsG/1A6blEbjqVAUDWrgpZmpTI/c5iV8gZJZMNiHHsHe3e9KlZ9U1FFYSRN+zNS8CYyHl0cZTMPA1O0aeGAFg8eYM3w2tDJTcPV+zmoM6QxNC7I6nCd1zBD7br22PRzLXQ8+BppxM4UFuqiQsNa0LYgBud3ZjKqagzBD85i6/Ygms2JkRl+D9s2nELDOZfQkvPQwJ1DXQeGr36Frf4WCTWRrgnqtOiPibOno3OVz8uGVMkO6d2NY9jB/InJIrvukHvYvMkPtaacQU8LIPJFFFLTXVGvilznqBg0I5emsMm/j9BUbnneAukxwdBWqwEjOcNVXFWxp2LqhJrxxzGiZitcDE5DHqnUqWrawLU6N283oH7LMFO0+LF3vhuDI4GBbnIVmvSmXlmHK6H14NOuCkozsypk9KRJhmWkxSZN3CRZgWkegoNSYWM/E4tHVIcqxxGzQtIlVEcFFweIcp8ihlTRQAzOze0TkKTbB0umtYG5bBSa5btg/rpRmBqYjkIWjr1zj6Bs5W0Y2aWyQv3MscVULJnzFE/oppDLeWQ9kWyifGbiYExPdPeKwAkRx9MLkBZ1AddvW2Dso24oY0TGaZRbuWEvVKm2F/63KmHmlGbEsHHN1dBo0kL0mt4Qi476E6NW65PbRey7Dn23V8emDW4Ys+IO10iROPaQE9ReWjEVH3tswE8SCSLHXMTh0QNTtG09FP3dzSSMGunFQU1DH7b2FjicmArJYshfuJrBPvOx2XIatvaejBk+ii6V2hHj/JS+uOO1CSM0xpAhXKli/pBHgEeAR4BHgEeAR+Afi4CeaSVY2wP3XoZQHyt/vp+FoVhO6k8BFj2wcV0fGMpqCWhFOC9wHfYcV8H8gPZk6PFbifbcPF8RMbREybcfqNMk6NHBZQg4UqoNSZ5ENmRKoKaYMEIsJrsdzzYwW3weNzLGwzPDF29EeRjr7oicC7L2XHX2FlMqumF1Qg0s3HUdfdpWg5O5ERWkYX4dE9z+qvhGADVagH55bjNmPZQu6gpo0lqgZYhyeYnIKGQwpXKQDU6eZTPMndeXTINUUZSXhFtnt6GLy3L0ORCOQ30/naCpa2jD98wGhFyTqoVxAVaLinRgnR9PEhUSAkiGSoFYZUNR3kgCtJIoTp2EC1wK9jsIDfdjIPObL6a80L1oWXUQcltPxu61A9G8sTPMiNtNuDkbtT1Pf7Hdj1rwKeJ/diRkS6P5MQgXDm3Gi+NXUH/hadSSPxXfTFMbbv3m4FaPWNw6tx+bIxIRG/oWwWEReB/0FBpaFrILHob7uxh0GrZCVeUR0ANQ13sz7nLnS7+E0+8A442NiLctTgItI3gvvgHv4iwJ9y25j1JOY9Sc6+i67zGMDnTHCRkHlPrcDy9s7OiBMCxmWPRN4aFniAPl6qCKzARGQlKlEpo0BB4c8EVSaQZHHIbFc7fBadVJeDvtw5iikrdtRvILHF07Axf8GmD//q6Q3rbc+8IK3nuPoV+cP84e2oGI8BhEhwfjDUmPXgdEQreTMgjKA/u2fZbwAMu3vsHkX7eixu3JXxTV5txdhLEnK2Gf3wC8HjkG3OuRTzwCPAI8AjwCPAI8Aj8GAuplKqBzo0Y4cmgXbs3vCA9unl8qZb99isMXTiN/6iSUobJcrlygDq3CaKyfOQeGM/zQ1oryIrgCStxiNFnGuFYgC+LTfniPoSDLa0Vi2ZG49TQRzrWrw8pQPrNRFCt29E2qQJ3sEPqfTMLu1hzX8KX0QVIgJq0cdcfG8NCZivN3s+GadwlprBWqmWvjsawpp42Sf28vtoULMfr6Q8xrzi0ayxJLQspH0lWRm8DI80tsGYS5Kuj36z0cJJfa8lTwbB0cGvyEvjU9cLUfTXbFRSgwq4lBI4fCWlZp6NjhqN+qHCaM34ilfWZAiTeT1MjLTiOTBj/4DKwiJ4uCF1vgXHMAOlWuj+utHGFqvAZP3+Sih63EOltRLzHgOmJIQGCnz0mH4nH7HOA8taHCvkhRUWkn8Mgs+Nk3wv1Dq9DIRF7AkJHEqdtJZsHyzH/FVi5H+euD4aQ3BTkI9z2HG2/14eRkSfKIP55yQs5hWMu66Dx1HR4GxkCtbDV4/TQViwZ7oIATU3DXQJyKMDURVKuagRStPp9SkuFPJZqmJW+Kz1YmxkiXpvV7+41EUPu9WN7SHDlKxiUFnCSHxLocx1ycNGBA7v1QxRzGxZm0ZwRDevCFpKbHCW/l0ilORe39wU04mtcWO39yRW4eR7PkDSXKT8XzB3dpBaIMylkWMy1ctfCzk9G4kQembDyBkDQBylRqgoFjZqNfc3vy3PHV5YcSvfvcwa3fNiLYoQ9+bqZD3jY+U4OYV1KSw4RJR9FgzS50tc1B7l875WdOwmfxCPAI8Ah8ioD8lZTz7hG2r5qGn/t3R69hk7H+yGXE5nxan8/hEeAR+AoCAiN0mzAO7dh5DO66DM+KfQRIG+WHYuXcmQg16wKfwfVlhATQ0MnC+cVdMT+JvKNNdCl1Au4pVYXH8DbQKjiCtceIa1BKz7b0RedBCxCc8TWmhRrYuKF/EzscpP69VDYQpqKoC0swcN5GvIovNvwVkC0P4ICfu5XFiYMbsePmdVh17wZOG07+3qBd2idTB5pH5WeUVDt5tXkstsWqkxr+76jb0/yvqDCfqBQnDacaMCdxyeuYRMosOZcrrqVKEhYqo36WmD7KKnAqYUUF+cXVaU+jiiscSM3MLzIOmhUaoXl1DexYsglhyrVyA7Bk8WkY1ugGr2o0037jg02BDTG7i5y1klbWkphZqEBDQ8pUislenvPiVqAMA0nr9u08iESaTZMm4L8qFc+i/+qwiHvNs6uFMSvXYWSNPqjVsz0q3L6NbhV/54Yucd5UnF21CjujPHHbbwPc9XVJDUt642WdI3mlmG5Z7q5VKQMnpoaiJzESJuKzLIy5NTypanRsCv3aljhL6QMVdQ3E3l+OqZFNcfIYiV0LPpa4kXUNTaFaEEc6q8q3dz5Si2ipITwRCUSwvIJoMpLoTtRWqyxhfOQ2W8LMRGw9fROdxh8Ct8iRrKhfvGNSzgPLTpLrQS9ntG6uD/+AlajIPTfCZ5g7aB3eNdtALheH0+qAKtQ4jolEscJbGihKUX6Ui+n9/p4qqf3dp5v7Jbx3bZWs1JDQ65OkqiJE0PEteG7RBad6OEIk5EbMJx4BHgEegf8tAtybTYAo7BjdD1N9nqFsjVZoXtsFGil++HXkGixY2Bwr9x7CkHpyv0r/2/7w1HkE/g0IqJXvgWNX1qNJvfFoVHEPOnX3Rtt6zsgIPY6968/inY4zVp1cj/pW8ikiN0lOxeXrZlj5ciWxFJ9POs1X4uSkG/DqVQ3hV8djYEtLhB7dgzUXH6PvtkB42HITmq8lE4xauwv3ardEPcdX6D+yPzzsGJ6ePog9Fx6j8iAflLH8dOm8fo8BSHefi72WlbB7UcUSJ+Bmbdp1+6BruQ3YPaAissfPRqfy+TixexV8RV7EHNnjeXIAuZXuStxFiaaKA1VVhtAnl+GzL1ziJrowOwzXfLbiZYIzdnTimD1iUog70Eh9hd/27CePuaooyInH3fPb8dvlbHTbPRrlVfKLnR7IKKvS3PP93bM4oPmWPPKS2htJuq7u2ICbeTZY2LcRvfxUsWjtajyqPRQ1bR5g7PRBqFD4EvvXb8HtxNY4fG4exEHnML0v2U9X8UTU+SM4RHY1kpkqLdxzTgryWBrunrhIjNAAVOs4B47zx6F3564YN7grbEmlb83uE7Cp3hKW+scQyzGPjoph//A78rv3+wyEWFQmVkXlkZsxyccKa1YcR7MdfWGqzBV+bS5elAPfjzR5bjoIzUxL6rddO3uITFzKyfppg0ajdbBwy0X4ZgyGh7wq2aX4HZiKvgf0yKvaELSvo4KlpG8ZOaUm7OQjJBfQO2b3w7aiAXiwrq8kVyXlFZbODECXaQfQhJP2lWSoYVS1OuomXMCbmBS0s9eVSqayUuGfm0mCjWCE00pDeeK4JSn5Cc77CWC+pY6EwcmWZAoQdGgJ9dUTe1q7EHvy+cStMnDeM8bs2IT9tj0xeNMA3B/rCiRF42SmGFZtW8KOXFPLk5AeBt8HIVBz/ZSJ/L3XCDdtUCNZ8PEFI/HcdQE2uivklXLyim1O/Bss3fscHUfvQTldMkbjV00V2PA7PAI8Av87BASFEVjVrSWmnjfCZv8schVbPAPZVhSGhR2bYmj34bB/cBCedp9d6vrfdY6nzCPwAyOg6zYO/vn9cGbjHGzdvBvjtkZCaO2KXuO34ej4AahspsRI0ORdhRb/K05aiSnViucg3ARcW1ub/DHJZxyqaLf6FcI8VmDsrDUYticfDo07Y+v98/CuZ1oCLQF5VtLS0pA5NFIqsvTEkbBoHFo0E0u2z8DuWDpvo85YcW4nhrZ1kYW1IMdJmnReddl53TphvjoxOA1nowmnOkeJc7gkcdzEzfa1amFf0HO4jhyOlUtG4QqZFgyZuRe7RrVE6MYe8DgejxSaY1kqj1lChfshR0t6wPMTv2LkZekEVkzOoxwb9sbxt6vRvTLNv5gQqlp6MP14AXNG3JO0FBVpo0I9T/x69SYmtrKhQDyRtGCvSc4IZDNAEinp0OL5s6PL4H+cGwcjMx5dOHn2xfHApeheVVpPu8ZAPMx2w+ZJ5BxrmTeiRBXQ3nsLwhcOgr12Bs5QwNFtrz5CW+sIxnsflpxb8UNMjqqaEGdWHkafUV3gVGMsHvsbYIz3LCwdfhq2jUdins9j9KuajBb1r+LGizDMcS9Wl1PQ+UF3lO7U7zUCMowiLwDeM6fTqts6XHvTBl1tChAXHYFkcvagQRyr/FH45Ixq+mjkYIN1u3dh/aB66FHRhCQM6Xh1ZhVmXreCiSoFP5KoY6mi+fBtqOnTF5Ombcee6e1hpUuxeN77YfGydXDqchQG6nbov2wilvRcgPlrqmNWz2rkaU2I9w92YsteX7TbuBbk9E0itnwfuAcxHuMQ0MPhky5xN51huTYUn2YW1s1fgXprJ8OZxJIvL2/Bdf8Iqh+BpfPOwG58XeiJP2L/+GG4Z9eK7IikNwmjx1FV5TZmLDXFpKO+qKBsr/OZs0myrHtQhGE7tJozDWe7XkYnaycMsFDFvi3rcbXJbNQwEiMjLo44/Uk4+k4LulULSLgl4xxpTOL8LCQmxEOLY0ToIdIiPdPsQnrKc1KQm54DHSN6cZHHD80H0zDhaVXse9tbYUT4SZfoAUk5NhOv207BshaOEuas6JNKfAaPAI8Aj8D3RqCQDI1XYuH5BCx9+kbC3HBvOcX3Q608pmxej4d1u2H9yTfwnFQf4sIshLx8ATWbWnAso6OoW5gaiqeB0RA41oN7ueKXcGF6DN6FRCAhvRB65lZwqloJJjRfyU8JQ8Dr98gppHclvQPVVCl+m4hWRqkDAlpkqlC7Gem+S8ebGf8BoR+ikVygCnMrR7hWslKKLVaAmAdPEULvXyPzinCtWlapjM6THIqA4GgUkFpyjcYuoCDvspSL2OD3iExKRna+CgxMy8KhohPK6CkqyCuW2Ma/u0EqM4SQ7HvA9dXEuiIqO1pBWzJfYsj++AGBbyKgWKeiSaqOiSUqVq4MM20FuhK6WR/DEBoRLQk7YGJhi4pVHJT6yFXJQ+SdpwglbOhTKUukrk4TQAsrF1SpaFSsqi7KRfSHEETRQmEeBSE0MLeBU4XyMNb50pKfnB6//Z8hoGqKzhO20v/Xz6BDDpwuvFVcYFllWtC2643c3N6SY+6Wo+mGJDl4TccF+v9iomeqYvdfkND9CzU0yqHvkgP0//lyxspjVn4uZnHF3MI6iR0WZOZggeJYAK+tyUjfKsmgH+qYVlVM8XlI/1xecao79jiyxxYfl95T1TbDjGMMM0oXKB8L9NB6wW+Io/8vJaZth3Xn3mCdvIJhBfx64h1+lR9/batVDaO3nKL/TysV0Xyv7uxLuL6kzaeFXE7yeTSv+SvBJL045m7eOBroXaquLW6+4byxSR/jkm+BUlV/oMPvxuAUCXMhzCJ30JK7HHBq+TMG2W7H6KWXYFVvBfr8Eosc/a7Y7VFN4RJagpNIiPQCetHT6gBnv9Ju8hzMSZiKqW3dsMreGbZlTGFepTP2X/LANNd+uP78PSZUq0Qikx44eyId4xdsQPfmq6ClQwE38wWo0msb1szsKQ3Y5LkUF9cLMG/1WHhuUYEeeWNT0dOE55JjmEHuq7lPRaHEes4cs8aMQkU9+rJJErlgzibpjIZUUVFFxwyjlh5G9uTx6OjVBPaG5WBdtzLcbSsgXK0uGmTtQ7+uc5EZmQChkyd2ndmGxpwSKCVxQTapPGahUptdmOMhy+TyC0nsk5FJHzbpS0N6WKzj2WjGEbTyaYAlK47CY0MvzD3wKz5OXYWOdQ+jXKVKqEjuEa09x5NL68vovMIX4Tn5sNQizx2kz5l+Zzf6tL8n81QnIKYkH9HB8eSMbR76xgpw4GQXYhwzyee5CO13nkX3spKuSn6KSHqVnZklE6USDkV0YQTO+HnGLNjKpVSkT5pHBkZZFGxU2vvi9vwejwCPAI/Ad0GAFmSunj2C7GZkd1NTOgku/eHVtfbEomOXkGhEK6SUCtMoMF6fJjCb/RqbvUlaLmmQg4uLB6PLuvtQ//UFCqZWl9SNv7cRkxZswZP3Ypjoa1O8wlRUbD4AS9YsRsWQ61g1bwuicjRRlBGJF+8TYVGxGmwNyOW/hg4Gbb6N4TWKKO7YIsxdtQevsy1gbEjGugmqaNxvOtYs6ylR+SXxOw43aYJp9KK0qzUSF+9ugYuCv8rH400T0XLhRbIAbYfb+RfRjBZ4URAGnylTse5aILSJ6WJpqYhOSYBN4z5YunoVPG2+/Nk+u6AlRhy1RQ03S6iT3UBhWjQiC/TRdf42bB3YnL69RQg+vRzNRlNE9OrVoEcr74WFqYiNzYaj5wL8tm8kynN9ILPy57+twtxffsMrFX0Knk0LiAn5cHT3xsod0+GmEJbFYGfz5lhK3q3qW1LcETEBrpKOt74h5PDnBi7sbSEJqs3yw7F72misfxBPC5XqyCU72pSPhTBrMRa7142hIN+Sk3In5tMPg0BJp8Jy5ub/o/slzkUHJd4LpY9Llv5/dO+z5yjRx8/W+DOZ9Izn5pDHNfIKTGvY8rAjypRyyGNwSmo2mVh822ztf9NP5R79P+6TeJGNGzeO7Of/ShKz3KQo9uJdFMsvIlkCl8RFLDXqHfMN+sjS4vzYU9/nLCg6mdGEvmTKTWIvA/xZQm5xdkFGAgt548ee+fmz1x9iWFYBV5bDIvxesA+JOUx2BkmDvNRYFvzSn/k+C2BvFXWLaTEmYhkfw9nL537M1/cVex+TxPKVCGTE+DH/1yEsXTlTXMDiwoLYs/CkEucqzEpkwYF+zM//LUssSGTXejRgAo/1LJ1lsvA3Aex5QCCLSs5TPjkTpr5jAc/9WXhaYYl8WjlkTwLfsZQ8KSCZsf4sMDieCRW1xCzpwwv25j3lyTDLpHEEBjxjT5+/YmFxqYyDpSA9jgW+eM8yOWDFYpYWG0zjpD76+tJW/u/HXrz5wA5PUGU6ZttZIrXLDg9hAX5vWErxCSVnzorzp7rvWE4Rdyhk8QEB7OXrcJajdN3EogIWG/qEhcakMJESlhICf+Jn8eLFTE1NjUVFRf2h1vn5+axz586se/fuLDs7+w+15SvzCPwTEJg4cSIzMDD4J3Tlm/owf/58pqWlxaKjo7+p/l+plJvwlPUpD+Y57xTLk7yPfp9afqIf+6mGLht/8C2Tf4oyXm1n7haStRhmsj5QSiTyDGtgD+bUbysLioljyckpLNZvB2tC62SVuu1j8fTdSE9Oovw0FnplIbPWcGbLr75lySkpkro5RCXu6izmrAPWdNpx9iGe6lJZ+KUFzBHarOHsu7J3eSxbr6/FVL16syYt6rBdrzKLB5EZwia2bMCsrcEEKt3Z/XyuqIA9mtOMaajXZ+sfRdG5UllqUhKLeH2EdaYxNPa+zL72pts5AKxW9x0sNCmD2iazpLhQdnxBR2aANuxyHPWavm3Ptw1jWrW82dMPHyV1kpPiWfCZpcxaV4P1PiK9rhE3fmFVBXqs58qrLCw2gaUSrcin+1gHU3Vm12ob+6gYRRibR4u+w85/ZHkZqUQvnaWm32De0GAtR9ymr7Y0PVnrzvTKNWC7boeypKRklpwUx95c92H1rFXZoD0BCmr/652IiAhulsfOnj37vz7Vd6F/9+5dpkoGIE+ePPku9Hgi/zYEilhaVCjNxdJKzFWVR0nOq9i7wBCWKvzGl6hy47+4n5GRwQwNDdmoUaP+IqU/1rxLly6S5/zLS0F/iMkiHUUzG1QvFlBwcnwY21REbQkdS9RVkhKUIE3iv2o1lBuS9pSBBZyqWJSoBloHsqslXXlTLtAytkIl+v9yIvG+pT2q0f/nkoF1LbiVdDxBfVdHWYfKXLidEklNzxyVqpJ+miTlkMiP84xRROsD+rCvUgP2shLljYZxRdQo6WZNUqxmaI16ctshytG3ckNV5YZE1ax8dYk3EHm2Po2haulxGJYFmQgpkpFVJdT+AhysHAU0JUM27srr2juhhr2imWJHr6wbqisGroEyNWrIViIVVYiGOqwq1CvO4Pd4BHgEeAS+MwJiioFWSNJ9LqDwn07kmfLgmrNw7TAWLw9skpER4eFv2/A8ojMuvBuBynKzHtOh2LfpLNpfuouwxAFoYCH9Lgko9pkKfc90DY1haiKzVSyIwZYtZxBUYTaurugOqfwIMG07H6fXXETNpdNxb8xjeFrSeih5LtKxaA9P8R48uRmM/q51QHwUkkLv4oFZOYxrZYnpe6lrnEpBVjDOR2bDYsYqjGsgp0rhDsy80ILe8xui3tFqbRtFXDfZgEps1MkWwMTMgKw5uWSKhi0aw2rpZoSQxKRNWU5LgVR61LVhZGIKUyOp1oJp0xawNluGI0EROMy0cXD3XkR0mIU74zxhKg3yRlHjB2Dfnjsw6TIRm+8PxOLGJHXJj8Qr+lZVNDaHloGqzKupoWR83NmlKRg3zqijdcdJ6NGsglS7ggpMa9VFVXIXFUDhIPjEI8Aj8GcQUIWRTQXSffpyUtE0RsWqn5mEfrnJv6bkL3w5/jUY/MmB0EeiiPSOObngD5K0zV3h6mJC4Uj5xCPAI8Aj8M9GgFuKkapL/EmlCWoW98oHh0LVsHF9C5w6vEkW3DkVfo9jIew0Eg3lzI0ECgb7IRfwegh3wC0Dffm8RclRePjhLdy7LYchqYCkctUpMbI9cXDzgihjIy4FphKDI7WZUdPUQVNXC8x9dodsaojB0RAh+NZtOBi5o4LOS2lj7lOi74pl+32xJDUcLx6Qg5y4aAQFBCDgxSPcua6Ksl9Qs5cSkP4WCrORlkI6xCAvn4VpeHL5NpL13VGN0z2T9JNUekgnOp3rt4gYHBpm7K3LiM9kGEOq18hKRFRIMFr1bgCDUjovxq0Goat4H64+fU0MTi1icAqRSWyNs81X7GhYZcy+cxuFqWTX9OQ2ot+9Q2hIIB49uo/bD7JRpeXX7YqUx8bv8wjwCPAIfCsC/Fz3W5H6pJ4GHLp6Y0pu9S95Fvykxd+aQbZRlQY8w+MB1Atla8C/tVP8yXkEeAR4BD6PgKqaARnXAx8yyFBSxkB8WjMfH56RDWKmEUXidi2WbJDERVUch23jlsGq313UtI+n156MaRHnIiCHbCwrm0jsQ4ppKjM0yvvFNeR7BQWpkoDIwT6z0PKSwqiGiqldQSLUirIRFUl2jzIZPFPVgkuzlkg4eAtvMvPQ2CQLd8lxgk3vhTB+IZUsSW2ACxF6egNGT1o0ejtsAABAAElEQVSEtyrOJJ23haVJOVTvNAxGGSNwn3iWryUKSo7nl39Fzza7Kagg6ednRCMg5CPqzzgNd0MtakoEyAZG/8URDOn+lsIZCMhONBNvXgajyGU8Rrc1Q2FCENLT9VHORB5YW+mMFCibrIIQlSuUuKJViXiBW2iJOSWVMJQa0C5B8u78fAyfthlhqnaoWrkKypoYw71NX2R+XIKcb7QNKEmUP+IR4BHgEfg6AjyD83V8vlKqgYo/jcXKr9T4RxUpW+Up7/+jOsl3hkeAR4BHQIqApp416teuht3X/BG/tBvsJT4cS6GTHUdB8AZgi9o4RBODI09qOgb4cKAPNub2x5OxpPybGC3jkYjJUdGGK6lxIT5DEhGAm/ZLk4wBkh9+ZauhbixxYFCr12RMbsFN+ZUTeREjiY115fKUmSYp4DwYmTo1QI38TbgVKERjx9t48kobk3ZUgPpzqRaA5LX88S7GTZqGsBY78XgZBSw00ScmhJNwiLHz4gjcUrg+Uz5f8T4Xqq1C7W6YOaMlKU5z6tNixPsfxfJd07G9XROMaUzeAbiYdeUbYvzsMSinR1MAFaKf6IfVM7ej94x2eLjAFkYGWfiYnixZC+MYFEXKS8J70qVT0dWWaNRFvjwCVB8AVx1FjU93Mu5iZr9FiO+5mdT5+pHUyhDkD4f8GHxA+OVf4CthPD9txufwCPAI8Aj8FQR4BuevoMe35RHgEeAR4BH43yCgaYKWPbvCYd8CLD0zATt7KIwDFeeLe30JF87HoLtPO4keupArIWmJZugBeM96hYn3b6MSl1eCAzFBnfrkynneDTwTDUMThXYVeQG9Px8OcyOxces2dHIuZn04EspJjew+HS3scaLAGK1at1YuKrWvdGJ1R/xUQw3z771Crw+78dZ+GGqRavxLKX8jcbGb99EXH1LE6DugH2wsSKVMnkQPcesCOfb82qmoLscrmNpUh0frFjIbHMqsb43zpz0x9vRDYnDaUSUxCk3t0bhFK1SU2eAAzaH9Zh+a/rIN/tP3k0tqRxx55IvccY3ILXSxClnW3WO4QqzNKGfOPigVN3aEodpPjUvYisq7rNhGv8LpLB306NoNzkrx7bLi3yHyfQYEzYrpK9rwOzwCPAI8An8RAf7N8hcB5Jv/uxBg4hhMqUo66rScWvpfr0xldJi0Ef5RuSXnS/8uCPjRUOTn/UNGYMqWB8gSFkJIsUqmDeiB+VfDJGo5PED/XwgIYNdqDAWka4y9Peti6AF/JKenIys7B5kZKYj0PYYhPcYitcN0LOjqKOuUCrR1UvDrtGl4PmA35tX/XF/V0KTXYDhbHsfYKWcRn5VNLvNzkUNSjJnTF0GcaQ+XSl9mbiQUdRwwcng7FK4fjgkngpGZmQny5Ejbjzg9zhkCWw8cfMOxW/JPLMfoaKB+b3e8PzMPow/cQZNxnSXxx2T8jeSdom3iAgtieg7sP4FkGmcO0cxIC8GOQUNxXEsH6ixfKlX53LBkeSIKFZCTLZT0J5vCHSSEBCE2IRXN7MpRDa4f9G4TFSA3J1tWJwd5mUG4fzcNqroupJqmhz4D+sPi5CJM3OuPVApnwOGTHnIWw4fshVm96ZjUzgxF/scxI8AGg1u4kKtaOa185FJ8Ei5WWhHZ+eRzfbJ0QDNyO/3u5DmEkXpeTnYGxa7+gL3L5uJaLNUjJwx84hHgEeAR+N4I8BKc740oT+8HR0AADYr3Y16zFUb3a09GttynmqYEtMqb+f4Nrhwah9oXruHUjXPoYqusu/GDD5vvfjECAmN0GFMH52fMxYhnTmRIHY5sPXesqW+vmK4WV+b3/rcImKLPxn0QGszDliWtUW+hHWytzZGTG4zwd0DNrrNxZtl82BnIPmUkncjPpkmzdifcXNG5uGvk7TKHQo+JC2TsRMVeuLA7BEPmjEG9apawczBATuQbCB1GYPeJBagg50uIAhMVIofivBXKYpbJiTr2+BX7VgkxfWIruJrZoryRGlIjIpFm6IB5S1aihwsngRGhIKeQHAtIJ/GmjXrCLXQdbqu3h28rqWcjkZD0zohxEXFV7D2wZMJoTPilP+wvu8G9ugXy0lNg0fIXXFiyGe3Iy1tM0nSUK+1kVNYpMZnY+J5biX4dDxE7RZHRRakID46EdpXx2N2T89PJIBbTiXyPY3ifcOiT+ptAXID4iGCkENM2+zTFweFotZsCn80ZmL60O2rssEdFfTHRiYWxywQc278Y5q+PY1DPCUjOM8LB6V44T+eVyqronaiSipdk65NzZg329XHCuBbtsHRdb/RbNhn1722FCwU71Sb1QOPWQ7Gyy25Mvu2HzIWtFd7VZEPhNzwCPAI8An8JAZ7B+Uvw8Y3/jQjQHAnlXNwxbvJYSKcgxaOc0NkSrs2XY/Oa22i3zoPcoX4+SddJP1/2tdzfbfe7Fb5Gncr+avvfIf8txcpdUN7/lrbfWqeEHw06YJxETta4RFkJgsW9Ma4xGFs2VcPjx0HINuqNZi09YPU7i/olSPEH3w8BgQMGLjuAjiNe4c3rSMQmp6FQxxgOTlVRo6oD9BQqZhRiwNARY3/1QVfDpopgy5KOGNXG4RNHwarZKfpl024uztfuhSfPXiE8pQhm5G61RoPasJYHNJbV1K/UBfuO10SlyqXfBrrwnLwLVzr4wz/oAxIzRDCwsIVLjepwsiQbH0kyQacTx+FoTx7HuKTjhp1HTyFA3w011KVZ1QbuxtEGxnCRHOuh2cQ1OOvREwGBkcjVNISTaz3UqlwGRbE2+K1SBux0i+9TKYXi31YTD+CAFzEtXAgDLptWZnRJla52vbqwITfOnC1P+TajcexAc2SSEwLuWeBeChq6Fqjk1hDV7eQRPPXQaNRaXGg7CP6v3yE2m6GMjTPqNHCFqaqYpGfv8DivFlbuHoGy5IlOQoYjJUkCqA3MxpGVm/E2JB0iDxU0HH8Qd5rcg19INHLUTeFarQ6qV7BA+ksX2Mbo8wsHcuj47RcRKHnXf+3oiyS+XFCS3Jfrfa3kyx+Wr7X6vmXfYxzft0d/L7XvE+jzjwXh4WvzCCgj8E8K9CkWxbAZbmDV+8xlHyWB95R7yu0HsDH0PXfx2sTiZEVpL0+zaV1rszKa5sylqTfb81we3q64bfLTzay+pg4zNDZiRpJ/Y2ZiZMi03McwvySlKLcsjd3eOod1a1SZ6eqbMDvn1mzGnseKgHkUopXdGtSalem2nWXJyGcHnmE965kysyGn2JOj45mqujYzMjJiJmZlWJkyFsyEO5+RJtPWXMjeybuU+IKtndaTuRoYMgu7RmzkmkssSSmYK4u8wJpU6cqOxYlZ0LEFrLG9GbOs1IhN3nZPEmBWTuZL26KsMLZhRDNmZarNKjbsybY/Ti+umnmD9bCwYX2uxhfnUZiyhGc7WTO0YD7PE4uDlhWmsMubJ7OO9c2YvoEpK1/Viy086ldczlLY8eGtmcn4I0q0uN0YtsmmLKvS8DDVoCR6ycbbl2XOexQIcLmsKPQAc1exZgOX35DiKX7GxphWZBPOfZCUS3+KWPCJhcxVG2zB9WSl/L++ywf6/OsY8hT+vxEQscjzi5lD7Z/Z61IBrBU9yY1n87s0ZkO2+DKKoP6PSXygz+9xKUQs7s5GVr/FeBaWGsF+m9WXldcyYo4NfmK7H8WUPIHk2otZzI0drH8zJ2aiWY65d5vMrsWWvily2IUlP7HK5TSZVeUmbO4p2fs38Tnr18yB1VlxpyRd7ihwG3NzcGN7XtKHWuTLhllb0TfPRPLtk35jjZixsTHTc2nNdj6Tfmvyufd9hYZsY6BSwF0ZZd/VnszclPs+07fZzJyVsTCnb6cx0TNkjk17sAfyD37GE7ZySEdWxcGC6enZ0XimsVOvMiRU4s53Zpbm3PfWmBmbmrEylubMVELDiGnVbMV2vZF/tTPZuZXDWDMXe2aip8cqN+7GVh17oRToXdYp5U1hHjs6oyFrM3ELS+WivMtT+BXW2s2SmQ488vX28vr/j9t/SaDPv5dJ48/OI/D/iQC3SMK5UOIWXN9u6wW3kcdRpkl3TNk4GMkX9mCYmy4ub32NYyNcFN0SUWwKVWM7jJ02AbacxyHSO4+6cwBLniWDJgDSejkRWN23PabeycGQSdOxsZ8IIU9OYOvPDXDyxXWErPfkGqIgPRUJ5DpX0iovHGunzESkXT/80tIW1s6eWL+mMrS09RF6aQBWX7PAxPmbUIm8IhUU2Et0/lMDDqFtB288026JuQtWwizTD7sXtIP5kSl4/WAFrSSTfo4oH+mkL/9oTXeM3PIOHWfNhlf8ZSwf2wRHTy/HvSsz4KAYXamdomBMb+6M1RlNsXjBYiSc2IkRTW0QdeoDlnhRoFwmRFpiAtSEcusDaXtRQS6SkYLcQmm+KCMC8/s0wlLfchg/YRHa/yRC4P39+KVXbVyLfIYHU+tQQzEogjpShaR/VCKJkJOQgETtfKndDAWNzOSOc6Uqh9Kq+Tg4cxgeijVglV0gW4UuREZKItRlKkVcvcL0GOzYvhqBdIrWQtm1KnEu/oBH4L+FgIq6Fgz0dKAiFQF9Onh6TLR09aCjqSRe+7QWn/ODIsDZeeXGP8cvnWtjX4YHFv66FLFXd2JIQxuc2+yPM6NqSkcmSMPlSZ3Qbu0zuHQagyVrbfHi2DK0tvbBrOvvsMST8y+eip3dymPYVX0MnrUcNq/PYjnZ1D1dE4SrEyuiGwXc7bruFF5Pa1oiGPrDo+sQrtMBTaqRHgVFBM5IiIeoxXis6FUVKsIiep+roCDDDxsXP0SGTDWVFeUhOTEFOYWl3+NiGNUchWVLk+j7VIB3F/dira8WZs7vB1vuHjYsBytOuPlyPSrXmIAM964YP3klygrDcPjgr+je8CBWXAzBcLthWLKkLX1zRIh/dBKr98Wjz4oRqGWggQItMzQwIjUA0StMpujsa1IbYPS4KRhgJcTrY/sxpXdD3Ak5jWOzW6GUEFlxl+Rn0RcynwsyL8/KxOU92+D7PB6ptqW/gfI6/93t36aiFv/6NB6GcOaOiitFRt2qsHRyRe0q5cHNsRKCHuODqDzqOKoi6KkfQtMKYGHnArfqjtAt/d4UZyEs8BU+xH5ERq4WTK3LoaJrDVjLNQXIcDjg8iNEFRRAJJtQikVFcGvdE+UN6AYozEAotQ8NT0Khlikcq1VDVZtilYSizHA8eOQHy1pdUNlcCbbsSJy78wYu5J3G0bD4RipIi0Tgi7eISi6EgbU9qtWqBnMlfabM8Ed4EqOOhg3rFKtYiPLw9vkTvCVvO91r2BKxIiS89sPTfHO0r+VI0bTl9IWIuHoTb1EFLVrbk5pUFl5fv49Is5rwqllWXqnkNj8el2/6Qr2qBzxtuIniI8LWDq09nIsfJlESHl58hBxrNzSrZfNjxPcpOcrvdqSipg4tpeslJSxE+OGdOEChUtu1awnD8N1oMeYYyo85jxcb20vxGjoC3de0hOe47the7wWG15QSKSSDXu2Kbhg2fhhsZPr9r9VfYdWDFFmfScf9yV6seQTsvPcWg6vLXnEjRsPLri4aL9qNR8TgNCw1wuSX13EuywWrj6xDYyPpDTLaVVrpZepArH1ojG6j+qGezI0rywnHokljEe48DzHX58JaUnUoxg3ygkfNTmg7uBmi9ntRrjq0Na9hnU9X3Il9jaaSUMkTMLLLFDi1mIXFPj2wZ5Bjqd5IDz8eW4rNIdWwx/cOBlWkvDGDYeZijMPrfTDSa5rsnJ9tWiIz8tYa7H5gg0P+d9DHSXYxRo1GC3E9dF59GhHE4NiXaPHHDpJPjMK0G2VhpZdE74Qvt313diFO3hZInBQXv62+XJ8v4RH4dyOggnKtp+BF66+MUqcMZhy49JUKfNEPjYCaKtTe3MelQXuQtGcQuSSnNHYo2kxpDq+xY3Gy2wN0K0Osy/lF8CLmptM2X5wZLvswjRyGVj+7YED/QWj69jxaBG/BrFNiDL4SjF2tdYnQRFTK1UH/OXPgP+EE2o53h8kxHxx+tAZLG8onfr7YujIY1VacguIrRGqZRjW7YfggdwW0ojQrXJh1S7rIpcj93I4KKjTvQv9cmRiP0h9iTYghvEePRAXFdC8CS8fORoj7ciQ+mKHwHOg9aTjGO9J59l7H8D2dMVg2zAj9CGzd9wodh49CW0PZR5+o+y+fgDXvGuJYwkP0oPU+SRo0iczenNDz0gFEjG4FZ8n3Vlb2lU1G4B3suvAEpeLxfqXFf6tIcen+v4f9YHNX9NhXCQ3rWFJANtIXJt/8Ib6PYfvTClzZOg2m6gyPdk3FknfN0MwgABeDUmCulYOouGy4kNeczauHw0FTOqFDxissnzKNJoYJKG9riBzS0Y5MiENZt75YtXM9mnNzflEQrR63xyn7mvCw1UchMTlF5O1lhCsxOIXPsXz6OIq3kA5zOxMIMtKQLFJFh+l7sHqAmwSanPcnMKjjNHQ9l4nVbSSPsxSyqHPo1GEcFj9lmFNXmpX8cBtGTl0P/0SGspZmZLwaC41GPbBh1S/ksVN6o78/ORFdfIzh+/QKqsiZsIIkbJ09AJuMZ4MdHUHEcvBo01R0jWqHvHPToaW4i1NxurMXJrE1iM2fCCsWgY3dvLCj9WGIj/dW2BpIeyP7Tb6Pdu17wnjDW6SOtUHYueXosoYmu4+DMbe+dPYbtGMEWoy6hr4HX8BTpjJegsZ/5ECF3qGh909jzM+x0FblLH85j2oMeamhuH7yLozazMTc4U54NmM4Xoua4vo6GXMjw6f2pA3os7Iazp1+jAE1m0kYSGFaKj6o20GFI8fdArRKJCykVSbZLcztGNi0wK+neqCfhLnJw8fIaESG0IfhURw1MEFmFm24W49bvlHXleyeObAP+tWHo7qenBCVy1IBJ6ygukLOlZGMwcn6+BDn76hj8Nm+KMEK23bEsqH2aLDiF1zb4YVW1EdhrohW3tbKmBspUQOPeZjXdDU2HL+JBGJw6Bv2SWKVuuL0kVFoyDE3XEp9iVcJNGxyu1v8micJmJ7yW1xAsTd0iHUsZiEMKrTHtuvD0IljbsTZiI6NRlTgA1wLjabVjxykS6lL8dDkPozKyUg+ZOXM4v2cO+g78iY67NsPsyUeeK0s2CmuRWFM7mLh/CvotGYBnqycqFzC7/MI8AjwCPw3ESBHFbmoiQUTu0iZGwkK6mg3eRxc1/bCqsvR6DZQF6f2XgUrPw5r5MyNpJ4Wum3cgFU+A2jRNRy1ajeGz7E6qNVS/g4Px4tIkrzr60oWdbUaDEQXyw3w2X0NSxq2lcxv8m5twxFhPRzp76yEPy2XFwmVjsk/TD4taJP9ZYlEH3gdQ25V+wuJHH4UFNGHmuakQmoPPQ1pxVzygjhrH05X7iphbgpyUhD9IQgv/W/jZQp92QS5oNqyVIR8yQdYjIJ8+gAbyj7AhJp+/ek4daYSunDMTUEO4mPCaTH8GU69SIKY+iZpJifz1W0+Sctmkof3KRhUtA4rij+dX231Xyr82xgcNV0B3GfsxKVpZPBA4kRxQTbWDyyHK6oaigm6pm4hnl/cArOJW3BhlScs6P6PebAbnQaMxhDnWrg5mlNRycSl6ZMx65wBjt27gtaWpChPf0Ux59G96k+YuLUnXiziOHpVaKsLUHbiTtwcXhkZ+TSjocmfmmYW9kzohUV+NXD87EE0KG8MdZLmPNw7Gb1He8HE4T1mN9YlW00NkMQdmqURU6GbX0ULGvKFhcQr6N9hPPzrzcKlExNQidrkZ7zE/A5NMWiiCa75zIANjUNVQwd6OhQsTfnZE6hAU5sKtWTWp4SEmiat5GtzD1iJitDQ04Y2U5dNGFWgpacLdUW7z9zCKmrQI7J6GtwUUw+dVmzHlDsuWN5rDLzC9sDt3T70mUOrIeOvYUc/khZ9hsR/JYt7H2YnR+Pp03xJNHBu3CJVfVSo7o65p5aiu0ddmtgnYVdIJsQW1nhx8iiSSK2qWAhAHoRsi/Dx3R2kC4nBofl5anw8jHTq0z34BRTppKYVG6NR7EZ0rNYefgmZyMoSQsPEHo6m3FSeguvJbwENUv24MBFlLBfBtupY7DkzgLy9fYFuqezC8GAEmdphlKPFJ9fYuVETYMUhkCMoQLcIhUV10blWaRbGADY16Kl7RGPLGYYy8m+S0nmsSMppRcfZb7aj3ZD5CAwjdQaV/ji6ZZyCqRJAiEs9K8BeRxVyDT2RMB1xcJVISjhyZq6t4HJ5ORpX64D3HzOQlVsAHRMH2DFyk0XPgxwOkDqe9t5hsL00mWtGicpUipBJ10S+diDNl5Zx0dxvzJuPcM8FONrGFotm0ZVTEJPX5J4AIU6O6ILnTXZgk5cQHZbQK0NezG95BHgEeAT+qwjQorTIuTKqlZFpGshxMLdDVVLfvvXmPeXY4/bHHMA6Ew+PHcUzeh9L358UflYcDT3TbLz3fQv1Hl5o70D6KukhmDuiLnbdorizSQ2x/e0+YqEoCapj+Cg77F61DY82toW7TjrOrjgH0c+70d1UfuJv3NJ3VjP9LWa622CVBjFE1CHH+t3Rl8ICDG5V8ZNvojJVpmOFFm2a47cprVF5fwCSiJnKyVBDuVpVoKGjjrKlGSnlxvJ9poOKzVtD5bfpqOvsg7BEYoRyMqBjWws26nrQIKbnk0+RvK3ylr73eQ9WYsk5e2zz645Ht1Yrl/L7MgS+cVr0vfHKQFgQxStobQgDLW5CT8xyAU3SqTfcDadI5KsfVVpg/pROqGAlfZCqeI3Aqg6H0Xn6EbwmBqdqcgwCKLpyW7Il6FGJJmNEgIsaLXBpgBZEaNu5CKQSg2MiI6qiRUvgtNprKNN4yQ07iG07sjD8+CK0qWlPK8hcMkTbiUswyqcR5sw9gHF3RigmXTIyX9w82DQaVzMscXDzfNThZnmUDAyaYPGOtWjg7oNzU70xuk7x2vk33cwckW+uyFX+hqRWGSsPrsPFKpMwblYztHr/K14aT8TbdS1lGHwDjX9pFdJcRI2Oo3Ft3wIoayOWHC4xNMTcaiWew9S+F0rOfOlacaEdGlT6P/bOAqyKpovj/0s3iN2EiV3YiY0Bdhc2it3dndjd+trd3YGNKIqCoqgg0g13vzN7m/DV9zMAZ54H7u7kmd/uvTtn58yZBOX9/NL7ACzKDkMq+oC8WinenJiO+s2mIW+XWVjTtzmqVi6K7Hp6uL+wKuxHqX0xEmjfilozcG9RFrh2GA33/Q3h3qNsmh7d1OUWqHOJ9ADSSuXHWIsUdTY9r8e+G+x7RHNPOvpq7corYreiQEqCQjGRR6f40DKuhK69JuHZ7c1Yu+UINmy6hGpj64ozK6xW21b9MLxkFsSJ7ncFhPtewrLlAUpF0Xd3f5TptBtVXadgQ5emqFHWCuYGElzoUg8Nd6rJRfbXsWUbYRTZMMtitaBrFIQzA6fjTjKpxG6/PYNJp40w9XAbWAiByvbUs2rpGUB6bxba7auCE6FtYBmwMdV86mX4MSfACXACfwUB9kNLL0u1lW/d5L2mePZ8kIg2v/SUoLVauLoOPW+uVz4LxZz0QyxNskBrLYXSQ7E6WVGn6VTo57mATSuOY8mUjXDeS+bNlFSp+zSUmOyCXVdCUd3+Hhbc1cH0yU3Fqn7sH7lOl1igTtdBaEzuEsnVAZ7f2IbhjZZgy7hjuDTTEaT3pBokeIPp5StiytNcGL5kK7o2L4diBXLDQPIFUytnx7m0rADUa6O6786wR+XJD1BvxCIc6NoCpQpZw5IGBldnVUaTY8zE41+CRIfa9MWcAZORb/pr1M2jhWv/9jD+lyoza/IfUnAiSFvXRRYbuQaQBt0kqTZKlywL22zqbwnMUck5Hwy2HsJj/0W0TsYOE7Y+QkyAF66eOoaPn3zw6OlzvPS4hetUbyqWOxqtRT+7g3s5C2BwKWvNgb12UbTrlgPzxp7Eg/j+qPxdUxr+uLY9HFomA8ndZjiCP9PeBvLWYkxsUDKHJx7d80eiXMGJCQuCxw0PBBnGiAMzvbhAfAiit9NZ1L5hNGUpCXqN69euQl+bCaEFPbMg+NAUKi1ZUgWa/ZEGeuGaR15oRcchSd8UuXPmQ/6COWDIqlMbDyoLFR+MPStOo/Kg7rhhWAGbb01HcWXi330gkD2vuC9Fmt8QUxSg6xRbdi5CH44RF++nSUx4jru3jVF0kV3aSgjttXFh73yENhuHu5vHI5uyXSkivyaluHwCPUasyvbAhsmPUGnoIDSscgJtiqktAktDGL2CRVEscDd8/YMhJdtI9dv6+b1zVMoOWdjsfaQu2fVegceLaPRUX1xG673ee5HSnq02LFJOj1DBWJq58kWoST4UtyqPjn3IxLOPK9qUaYhyK+dgQPe6qC1qefoo5DwY/Rqr1rmFeOhh3/K11Fc2OxONQ9vWIlfLadi9YjjoxZY8hCM8kWZ8Fafsk96kCaWaY/DQzmqxgYgdPBM31GLYoZAUQruvr0O2RmT2YGOKpMTAZDnYKT24Yx5hwuBdaLX5FBoTj8j3qWTjUZwAJ8AJ/I0ESLHRev4eb8NiUD6b3ISLcfjsh8f0wioPraMmMwDUoH3k9rkcR+KGtJWREL9XeJSUFWVts8Kh21Dxb1SjQTBoOhgbPLphbEUyeyjQFK61dbFs72l4xF7G21y90Km68iH5/VeAxkGJZrlQr8cwDLKTyz10CHrM74iq41bj0tjGaMSef6mEmJvbscQzBD2O+GNRU/VXlbTJbQgpdeoP01TKi1HRdzB96RPodD+ICwtbaOSKjmCVqI39NFJVJ+wF5MM5bpirPxVvejPOb1KMD1S5/+6j/3CH/ARgib54cZO08tzfHpAJtAuJhQl5hFL7/rDWtWkBuAS+tMMyneSPwr0tCzB4xgb4W9CaHjtr5M6eHw2HD4T5tYE4/y/ihgYHQ8tYH1Ym7O21ZjDNweyJ4piDDmrvX4KYIRKfSSGR6mxC+wpHoKOmVQuJsXgeIEXdT+9J6bGn+1iCiFcPMWtEP1JcZMM1Ldql7f3LD0AxtdZ09GH84ABGDrklv/fph0U7HkHk9UlHHR+Z0CV5bMLgvodoTRNNX0rI9jTeAFVaDcDU8S6wSf6mRd6dko4dUWbQSdwpXgnlC6Rk8C+9/ouTjVCtS11k27ASY492xuoW+VQsknywjfbtMKzTHW1q2iDm6iocfVUHe2urBvOQ6EGPFmoy00k9ZlpIClUC7fxtIJCiqnb58eksVu18Sj9gDaCV7AeUKc+2LQfCxb0mRk45gYb/dPrXzfIM89ujQdmv2LPpOAY3clUulGRrTRav90W22ltRm013htNEp6EOtizdgKmOI5QKRvyTNVhJelD1bS2U5maqjrOjOBwaXgnT46bi0fmRyCVP1JbQrzLNPNGeh/JAGw4msMVBiiAgNo5mhZTftASyXSZVw5DMOBVZ6FPqcwEb7nrQUQ1VPHsoJCorlueOpTmmZIHMNMPOumNpUDR67XQGWceRgpMsD51qkxJ3ael4xJp1xZVOhVNm4DGcACfACfzNBLS1oR9/BZuPPIPz8GpKErdpTegzI9okuYW1GNfEqQqGjJkM9+EOGGwnN5thKYG3sGzZPZR1cUb4yrZwOlQZ916sRXn5WE+Lmf6TMhJIL2uZwxsgK7XTCUtcF2L1Kws0GtRT5VyA1adrKOaSkunc9wTylKyRzTirPgyk4bQZMMWnoeAkJEaIZQwFzWGzz85xWPdKG5Xr0ctojVpTOaGXc6GsY7TGXCO8/gezVr+CUYVa39RxJNq6+HRtC9q/0Macu+MgG3X8a6saTf1NJ5pX6nf13MsDB/XtcaQQu3HTDhKEkN29Fy3Gbi27x+VZYyKZ61ea1rOgiHcXMX36NGi1PYZ7o2shq7kprZNhF/wjIjEQZ9KuXkyxyJoV0qhX8IuIRU1mK6cWvvgx17Fk30/fy2S3o1ou+aGYwQS5aOG4pNJQrJpbD3rkklaznATZrYqL3rbYFyxrmdrYeHg/ChvL3P7pxwZgXJ/WWKX+JaVBb2SdgTi+vr9yBsfA8iNW5aqEaepS0FtsXYf5OLulNbRpFJlECtXne6vRznkEpuWqgq3t1Kd7FAUDsX7wcLw1r4oC4YcxeGUbXJnooEjkn/9CwKz2RGwccwnOrezxsk9vuNSvDunni9i7fAvO+FliVf1ueOxxEFt7bMJnckHpc+YEPtAgXrwnaGf1N3df04RHJE78cwX5+9RDVYdeCO89Cy17SdCvZQUI3mew8sADlKhRGZJdFxH4hQQqkEwo4yIYNKoXVnbui1m3WmFeVc17OFluWthfHIMXzcCR9qNRpt5jTOjtiKyRj7B1wUKcMm2DE1vbg32tmJCClj7y+m5DuXJ3MXa0M/SensWSVZvx1dkd07smF0TRkjk6uvbARMdRqOPoj9HdqyL+4X5MdD+Fst02wZ4VI+Xp24ERMkddp7qYOHQyWvaNxdBGJfH5yTFsOuAJ23L5oOX7Gp9iANqb5vuDtg4SLxyB/uzLaGWb7K2JWi1apBq9fCZg3rFusPr2T5RaKX7ICXACnMBfQoDewumS+dmThU6ofccVLp2K482h9eQW2QMdNtxFsxwyDoUHz4H7pYoYXK007vXpi2Y1bBD29CS2r90DD91GODDQDc179ELhZUPQuHIohrg5wzr4GmbOXwWtiqPQt5rKTMCyRjfYJ27AJu9mONCwqKwBcgjw5tlD3DuzEifYzFHB/P96AbSjv+LRmf049sqEvGeGwuvSUWxZcRDZO5NXVGY6QVsKpBbMyrVF49xLsbonrRsfPQ5NCsbhxK7luBRQAs2aWeHl16eIi29HpnuplZbHmZXHMMd8aLOhN+rpvMLAJlZ4f3o3lp97j0rNmuH5s2AEMscGaVSiTS9FXz98jCpjzsG15Lca+oYMf1HSH1Fw7p1Ygfgq41FKfQYiFeha5HLq4ctX+BySgBzibArLFIpHJz4izqYjKpP6GuzxHv4f86JTiyrIk1VN9Q68jd2U+99uAaMSlWH/eR88PH3RoVhx8S2AKEqSNw4foBFliYriIEdd5xDTU/2XH/btjCAsewfTsvYg45xvBm1dfVhmN0I2Y7mHjdg4GIoLkdSKsTcN+ibIlj0HrVFSaOoJZHpHx+JIWZGX5TNHDiNzSOTV5Wzhhg4VZ+PcgxeAc8qBr/fa/uh/OhKzrp5DK69esO/dD4scvTGiXGrKkKKdzP9JDmJEV+IaeFPttgFazL0Bn5rz4TZtDXqvmYGYnEXg1HICrlzuhyq5PpFbywlw94tGkt9CdGy2MNVapvQ9gmZ96qN8jyU4p2eJwYPmo+e2eJRrNgbTt55AM72T2LPrCk7cD0WnAvpkZkUC0uygQr6CtJZlYonVZFK1DK4eY5Q6kEAdSWJ5FRnF1rVQsN5QPLlZBjPmzMLszk4INC2GloNWwntMexRRLE6jvHFRUeiw8ywaPxuJTv0744uJPQYuuYNJPe3VPOek7FKWJsvh7WGPYW6TMKD9csQXKIcRs09h7MAGshkjuqfZPgH0PEoWmKMGMsejeJZkP+AQTuqNwYix09B2vQUqduqLOQdXo2bYUpw+PBbXHwANqtNCUXbB1GZLFZUKZAeeJNqCy2Kk0njoG3QnTnJ3h/KMYnF5eUaVPd7sHHuiU2VrRVUkEMnMUDLheOAEOAFO4G8mQC/oIi0csPrcGDydPwpDnGjtTKU2WHTdE72q5lUjUwCDaP+zSltmYPzMuei08AuMC5ZFu37rsM6tI4qxIVteN3i9o6UGrmMxv19HhJsUQPs+W3F8cjfYqI1QdU0roL5TIZz9WB6Vc4uv4ci0JhaPN85Cz6Wnkdt5IY4Okis+SgnY73YSPVcUv9sCtBMCsWNEF+yQ59E3KYn2c/7BHNe2MKf1qSyrQAM+KXvGKoqxvKaVsfvxLdj174eFo7piS/aS6DFyGi4OcULAamdU3vYan0PJc24ONk4TK6GnGbWsXgeta2297QFOFnalZ+ko8iScHQ26DMPmi/+gZNB61KywBq8+haBe3pypzgYJzOohV0vMdK2s9jqe5EzjGSjv4t/7YWhoKLi5uf2WvU2liUlCYvAZoT1dfcdNLwQhOlwICQkR/4I/+wu0Zkyo0HWW8CaEln7R3XViUgW6NXII7eYcE3wDgoSQr5+Ex4dmCTbZ9IVu+9+KMkf5HBSaWtPO8gO3CO8+fxFCQ74Kn9/cFGa0LCZYmpOHwtKbhCCWM+G20FlXIuRdq7mTuTQ+XNjYr4hgULqVcMTjjRDE5PnsKxyb10owN8ktjLrwVWwn7NFSoaQlhGEH/YWoMJnMIeExQuKdxbSflIEw7ZJ8p3a/fUI5S4lQos9mwTswmPoWKgR9eitcW9NbyKudX1hwyVdgG8Y/WlZHyFHRSXgeKVYv+xfjL4xoUVRAtw3yyDDhqFsDAa0WCjHk11oVPgorshkKhlndhY8sUuopuOU2FnTbbxWC46OEMGrzy5dA4fWFWUJJbTOh05LHghB4VCAvakL+NcSdQtLzLUJVibZg1eu4EMMi4p8Lo8plE1B8kOAhRrDI3xNmzJgh6OjoCO/evfuhBmNjYwUnJyehTZs2QmSkOsgfquYXZvYVJtplE1rtCU6zjfg7vQRzST/BI80cdHnV0uhrkSJoRCkyKD7F3Bo5UpRPNeLNEaFUDgiTLselmvz/RKpLo378X+pMq7xm96UaDDWJ/pdWf16ZYcOGCWZmZj+vwl9c05QpUwQDAwPB39///2gpVvj8zEvw/aL5Q5MYEyK88XwivP8arVl3fKTw2f+N8Pypp+Dl7SsERcjvSWmiEPTWS/Dy/STEsx9VRYiPEN689BR8Pil2DWcJiUJEUIDw2vup4PnsueAXECzEJb95pFHCey8vwdPTU+Pv2XNvwT+EdksXg1z24GSyx4ULb729hc/hMtkS40IF38c+JKv6luPyKsQPqRAb+lF48fKdEJnAhI8TPvk8ErzfafYlKTZMePPimeD3JRkT9aqob2FvfASvZ8nk9nomvHwVQqnqQSqEBfoLPi+on0+fCt6v3wnBCp7ybKEBzwTf96Ga5RKihXeviZu831Ji/NbHWwiKTFCvnJ7pQcJzYvgpUg43Jlh48fyZEBChfoE0i8SHvhG8qEwYoZJGfxVevfAUXgcl4xv+XnhG98xHlun/CH5+fmy4KRw5cuT/qOX3Fb1y5Yqgra0t3L59+/c1+q8tJQn+5+YLRbI1Ek6/i/rX3D8tQ3yQMLdtNaH7wjuC4tv40+rOwBVp/IxpnPz5ToWFhQnm5ubCwIEDf6swzs7O4vdc3bz9l2t50a9PYWi3HviHWnqxfABq1m8Mx6aO4l/zFrQx4iXaKPbISkw78Fhc9EKDFBQsbwfJpeVo29oJTRrWhvPQvbSoeh+WtJaZyBhZO2Dk8JHQ+2cgipSvAyfnjmjTZSL8Gq7DTjdLvHm3Fz7kqZDceiCGdq+NJFeF6kGia4rO0/dgWpUvGOncXJSlcb3mGLHDD/3cD2N+Pdm6CYE8urGiO0a3QaMmMpkdGzdEPZel9PY4Fhumj8CeuwFAwTY4ddAdxR7PRP2qteHYuDnqNKmDbjPJVnXRCnq7YSWuHUgi/+eRUdGaL55pHUZcNAkbw6YoWZDt1SM7Z9dLEWg3+8gYxESyNQssSBFLZRJOToNjvUZwpKlOhyqVUbXbSuTrPQWT+5am9Q+x1HdaLM128I17gdG0geRd2544uMKR3gRQnG4xzNk+DXYvV6Bnv+0IorfVPPy/BOh60gaf4aG0eDCNEBIahjCaZte8KzUzs/dBisAm7pIHjShFBsWnmFkjR/LiaZ9TMZofSTv9P6aoS6N+/F+qS6u8ZvfVXEqLjaRV6r9IwMv8OAEfzCphh6arH2kUfbhnEGxKlsagzXeVs3sJIc+wjt7kNq5TD82aOImfTbu44eDTYPp5jMW5JZ1gV6Ix9j0NldclxfMD01CkSCVMPeMni5NG4fHehehUtz6aOjeBc4umaNigGVyn7wcti1SF+LvobWeHsvWboZWTM5ycWsG5aW2UKF4ULtufy/O9wkyS3XENPaPUQgR55mtbrChmnPAVv8thtG9a8zJVsOQ8W3OZSiA3iy/2TkCxUt1w/WM09SUExybWRdESrWifJ3I0I4ZE3N8xBMVL1cGKO/RsSTOE4YBDZdhVaoDWziR3S2e0at0UVexKkAHCDjDLVlmIwd2t49GB+u/cqi3lbYhG1aujUY+pOOsdpsiEPUNLoHH//bS/vFoI9EDX2sXhtPaJGBnz4QI6Vi6JRVc+qmWiJ9H9hShODCffkJv5PF2NYsVLYNRFsidNI7zbVw92VObgB/q9+XoPwxqWRPFm8+CnvDZh2DGgOkqU74gTvmxNBg/pgwD7HU317v6J4gkI8rqFkydPYtMiV+x6aolOnSqk7aznJ7acUarSeJppnGSUHvw6OdUmAH9dI4qak2K8cP5GLszYR4vJyP1sovrYiUYk+toxODlzJB76y36S2bSbSaGqWLp6JAKePcD7sATkKVQOpYvlUpmeaZmh7qCZOOLQBt4+5DlJ1wwFi5dCSdqwM/7DGZyqHYlCzOJKi350T58kzxn5FeIoP/VzlMPoFUfR2usZXr/9gkR9S1iXoB/ZfBbKPMaF22LzYTt8jSCzF3VzGHJlNiopAMumT8fT4MnoQCVy1nbFzhNN8NjzNQLDaH2NWU4Usi6CwlZZlZ7aCrd1x7FquiiovoZAPwdc5+1EfR3mGYMFY1QfugQnYrPRPjvquqglWh0/gxIoSkvvKEisMfTQKThFxSBB7p4R5G89h1UBFKGHrqU+5dGqhbPUf13W/6RIOE3cAyermignti/7VmiX6I2jV6zgE5eHHCRQmb/bUo0A/L8hN/psP45w6zxpVmRRYRLOntShK5nOAplzhdIIh5aR8cAJ/GQCtNEeqc6mzBxXEUJuYe7AneKZMj4+HDtmd8fw4zmxehW5Cy+aHzohDzGvXy90bmOK+88XoOP4dbhxqQkGDNuMuheHIevHq5g6YjlKDdiG5V1KUn2J8Dm+DK07uaPqnLXY51SGfg+lCLixET06uaBZmCVuLq4nN/fQEx1YTt97H30KxSBWqgvdYNrIuYwbDPQVP4a0nxq9ojJTnss6IKFF0aZZaHNZXVk+tm+aKa0jM9RV/91WdFb2qa1vBGNyRShaHktyouu84zh+vxH6zj+MNxu7QEovBEeP+ge1aEuESU1sNQtrnGlB0NNBvVmHsb9jPnLkIYGBxXu456yK5WRyqpDg6/lRaNF3AxrOPwl3pyK03VoiQnyfYf6Q9piwKCfKrxgC5hCLxIIZ9UdjrEQOOkzMyQTAQN4/1l9zC6pDUbtcIB1yLU8FjRSXVtsAJnRM24SkGbTItJoF0Zw8b0Ps2DwJpRxmocv0Jrg+1R4vtg7DsJ0R6H3wJlzKmKRZD0/4fQSktDY49Gs4jTfUB3G/on3yVPpyOwa0XY3ArFUxa/chNMyt+C7+ivZ4nZmJgOJn6Pf0ib1WleZDpYaNyBWf+HOWrN2v+LgtJ56pvX4VyB2yYGyJ8jVpjUKy3KpTfeQvXpn+VDHsSD9vRfJ1roizQJlGTRQnKT91zWFbphr9pUxiMTqmtMt7batUExNjXuLECma9rwr62WxgX8dGFZHsyLRgZdQrmCyS9iEpVr4WiimjdZCDvJuldLCoj4IODaEqboLidRy+7eLZICcaKPtP7hvpLWXKoAfb6k01vZOkzMRjvpuAIQrXdPhmbr2sZdDgG7flNwv/ykRrJ3gFh5JzGqYd88AJ/FoC52d0xMUKg+AQuwL0ky+GiKBL2LPsLXqt34QODUvL1kcWzIsF84bi5rh9uECTKHblKmHivOHY7zQcQ3Y1QReP/tiXpQmlt0AWGnsnRX7B1vUzkdBxDpYNbgFL+VLEvAVmYrP/SVSe6IwDg8LQmf1UB/rjAP2IN85niWy55f01oJdL9Muu/tsuT/npH/oFKmPu7M6o06EnpnWvgWJLu+GpbUecI7nNNLSN5E1/wYu4GJiR99AsOXOT71EWpDCn56hK7iByIPICJlaTMW1IPVjLq8ibxwpt69ug+wNfhJN5v7rHX3mW3/5hXm86dtGeJDWXdsTKcktwctZmWAw9jPXOab8o+u1C/tUNaiFfgzF4HToCBor1w7+QR75mi/EseA4EbX0YGaVcS/wLm+ZVZ3ACv1XB0dIxRvZcWb4xvSiBYZZsyGoqV37YQi+2Qkv1K51OcWvDzDJHird66VRYLhYn8O8E2BtbU9mb1X/PzHNwAv+dgPBwEQYuN8SiW6640X8Feb+UhQivR7hHXgI7Vyqgcv5CSSZ1xuPxrfFiJvZoyNWIvFZ224fWAyvheGx2jNi7DFXyi1PTiI/xgQ8pQk3H1oJpMl3dvs0gSMb0wS6PAFJwaPAcF0wOJjrAOpes/bT/C4gLD8Knr7RJbCyb4qRNaj8HIzZRUwth3vjCgz8j4KMutEhQ5lTG2MQMpoZpTWdoo1ibaZhY9zYGNytJm9DmxtBTi1BO7pEqTXlII4yktktbKbQyljPZQ1PIjq7bz6OrEIUAf2/ceeOL114PceXKBZw5/RTGtRqpilA34qJD8SkgCGT4THWRiWdgEGLjNc2RJJJERHz5hIAAWb8lNHuTFBSebFE1labk6OCPCAsyRmS8FNq0ia6xsSlMjJLNEql1sMbsvRh1qigGObUESg/F87mpvZBTK8APfysBLdq+wiT5F+oXSSDRoVlAM67Y/CK8mbra36rgmNgNwFXvAd8AmgXtV58COSGgICBv2aZolrMMDNP5jKSOoS3m7X3wjX7xJE6AE+AEOAF1AhLakRvwwdAec5F/8TX0tIvGeYVJJA2KIz75IyQreZCkfcrSCrKhtRFaubkg/7rBCLVpjNa1CiqzJ8R/xmf/bCiayxQptgLLmgf16DnzOVq2PiTC5xoE0/zIKtONlHUkP2DzIg9pdqX8enoRJ3eRJE2Kwudwc9RSWmxpkdnbO7gPbY4dzJyNRvnaZhYoVM4BbiPHwblCWlpLTvQc1wTDHOZCKOCE9jVUZtLJ5VCef/HDyciyGJ+dKTUyIso0xQHj+eoYprgOwbpHUbCxKoLs5mawLl0bDar54xhtb6AItJUbnhydgvp355J5m1xRoj3aPgVKUZtpK2LQgqFpCFYNcMQuQ3mnKU1IiEyxKkNLVweHh9bAJT3aI05KnkLNspG1RQP0Gz4CHcgqQlGjon3ZZ2H0GdwOC1z+QdPWjWBLZXngBDgBTuBHCPxWBedHBGM/1OU7zP2GWdqP1cZzcwKcACfACaQXAhLo6MXj1dY5OGw2AJcHFEPi17sawhnRQFgS8QrhcarBN8ugPowXj4UALB/vDv9SjqiXsB8Llp3Hjin1aa0MmRbrWMAiGznyCJU58tAYJtMMzEN6zpQzkGk0r27dAZq1VDMR1hBHeSJQmTKu63FwYDnycyCTLeLdOQxwnqB0jiA6fkF+9J+/AwPr5qUZHNrINtgLW6b0RceWkbj8bJNoQqesVHEQ/Zzct29BlnqOKPJsFWYva4MNQyqr1pwq8ql9Rry9iajcxVDJOnVVQZb1LRa164AliR1w4uY01MyXh9ZAyRST05No7c5t5Yp+0R16yaYTsZnazsJmcEhxkQQ9gEvX9jKLCrFCcmwTmQV9lhzEkJo5ZdeENltM9FgAuzZL1aQjEqQ8tVhxFosdTGlNXyKivrzDqaWu6NbtFUxunUbZFJonFf9yidwKH4dFqaK4v3Eq9rapg852/C2+Blh+wglwAt8koHzf9M1cPJET4AQ4AU6AE/iJBCL972H0xrcYOLMPrMlqS8MAijQX01KlUDXwFbxeBGl4GZR8PIcmTm0w/ngAqRpSeG6jdSVHEzB70x6sGtcT52ZNxp4nweKgW9ewMAqUCMfZx4/Fgbu6+L5Xt5OnMCkaFWJrO3yxf28g7adWR7koXz2v5jGZUmfLD5t8BWFbyFb8s7HKC2PmmUU+4cHyS0ktyUZrXGxtWZ5CKFG5BUYNawj9gM247UfKV4qnbwyur51BntdssGTzbriPqIXtsyfgmA+ZfWkKoHYWh2dn7yNbtbIolZblG8sd+ALrXsbAotdQNC2UT6nckF9NPLnzANo6aoWpMUOzHLApVEDWP1sb2Fjng0kyxwpSqQ6y5rOifHIGBfOgcF6LFDuxs0ku09yFkauANWxsCqOUvQOGThkG23eeuPcyHEnKWSFFt0KwtX9bHP/SFEdPn0C/XAFw6bMYbxXJ/DPTEQh5+QhPX3/rPs90Xf6hDqm+/+xIdaZ++EMV/iWZU/zE/iX95t3kBDgBToAT+EMEmGLyeOVIvC1YH90r5U9VCvOcDeDYVoLlKzbgZXAUEhISyAQqBKc2zsTlI59QoWIeJL69irGzNsFyxHyMq2gC25aT4VL7EUZOWIcvcVLokgfLTp3648PyaVh64xPVQatKyNNknPdBuA29DpPGK+BSEQi5thdb3taBcx1LcryWILaVwDQumn1gwwlpkuxTKajcNE1xTps8KA6Vn8yULZHai5fXJ00Iwq3LbxAr1ES+7FSnatJELBPicxJT5++Gw5zZ6JTfFCVoUO+a7yLGzdyB0NhkmcUStEY18CXWnP6AmjVrQhovl1vcCiFRpjCSO2pxjskiG+qTqV/s3gN4RRFJicSB3Jjed++C8efIyxmztlNKzg7YZrxqgfqnmS5LSx6bWh6WMymBuXdOkvGndp+cOwofS0vkz24GbQU7+QTU6+2j0eNACNpvXYaaeWwxcskAmN2fgJ5z78ka5f8zLgFpCO7sd0fXRqVgzGYG5X+WRcth2M1gemHBQ2oEJMH7yDy0O66Rh0Rm3ZRwbhgkZRfjMweWGi5lXDo2UVPKyA84AU6AE+AEMg0Bqbh0HQZl0Xdof+Qit8RioH3A4mkcLE2UDa0lxjngNmcdXvcegDolzqJ0LRvo+b/Ao/dSDDtxAq2zfcImF1ecjuyIC+Oai1XomFth1LgpOOEwEd1WNMCRERVh33Mq1nh/xphGZXGgTgVY6cXh6f0nEMoNxfl/XGnvlvVwaTcbH3VzY+vgztgryEcNEi1oxfjhGci92JoV2FthNtrbk9JCQ/+4ZO5xaetkxMXGyt30kyjUF+ANts8dAs/txqxT+OB9Fy+CpWi37gja5EnCU1LYYmPjqTZqL8ofa4cNwrU8A3GvX3VxFkTPogjcJkzEztYTMNyhDjZ0tdPw3J8U/wSz23XDvpuvUcxoArocU3gmpfU++hHwjEpEWNx2LF5jhYn9G2PC/M64O24hStscRcPaxSDxforn2Zpi/bLBGDTfC77hUbA1NyZlhJwMJHMowPoTH5eAOMXeDtTfeOov7d0tclf+o7U6LItyuznqdzwpVOfndUen7QaQSqLg/+wRvN/po+1wd3QqAQTdI74UGDHh5R70G7gNeTr9g1XOuUWty7TaGOwetAf1x3XC7Gp3Mb6WzE+cWIj/yzgEYt7CvbcjJtKeSHaFrVC9YUNI6L5KNMmBynU7Y1RX64zTl98tadYWGD18MtyauqBJFQPcPXQBwxacQ87fLUcGa48rOOn4gn3yOIurbwqibbui4puN4Pv7sO1dSQxyLq7hVSgdd4GLxglwApxAMgK54DR/EYoWrIS25VSL6HXMrNBr4jQIJW2VDgFMbB2x8fgt3Dx7Fpeff4ZRndaY2KQxqlibIynaFxYVumJ377aoJm72JWsmT+0+WL/DDDdjIxFBUVl1c6LDoj2o0uEart2/iw+Rxmg7aAEa1S9H7pdpY1BvL/joFMP4MW1p/5dkMzWS8qhQsyEOLt2E+y/GoZ19bjgvXIpKdQto9MkwexkMXbQYOcrnEH+rjXJWxog5c+BD60vYhtXsrWu1eq1QumY91C1DJnE0sMtTpQOWzQ9DsSyGEOJDkKf2KOyv2QZ2nM+PawAAQABJREFUWRSPZW0UaeqKzduz4rV+NFOzaGc0VRCSgvHoyktUoYGPYy5txKsrG6SkVVjaBO/Pr8CpIz4Y0R8o2mMDrpRpj+M37iIg3gKl+06EQ0076H98QAPNV8hvIluhVLXbQhglVtZoC+Y2cJ28DPElZP3WtSyJwTMXIHdx1fVjkkmsm2HpkqwoW1S+2qlAfSxdsQxRtKm1qLfStFWZeu0xpXRV1KpaSNx/KKnyBCxZ8gX2NHn2xc8ULSe5Y37vNrRXEquQ/dOCw5Sd2JLrDGlOQYijlUFpu51g+XlIfwSS8OrUemx9mhfrTu5B+3Lfr6TKvj3/X4/+Sx1sYlFpPalx8v2y/Gi7mvlpfpS+xzIZ9OE4/waM9+3BrddR6Lv2ItpVZ6a1LGiWksXx/yIBQ0NDwc3NjWbYeUhvBD4/3CI0KlNeWHzivvDo2kahVTELYfCh9+lNzP9bnhkzZgg6OjrCu3fvfqiu2NhYwcnJSWjTpo0QGRn5Q2V5Zk4gPRAYNmyYYGZmlh5E+S4ZpkyZIhgYGAj+/v7flT/9Z0oSvHYNFWo2GCr4RaUhbUyAMKJ2LmHU1pdCQhpZ/kR0QvQFoZWxjTD9UVqCC4LHokZC8cbuwqc/IWA6bNPPz4+NBoUjR46kQ+lSinTlyhVBW1tbuH37dsrEdBUjFe7tmyW0qVRSsLGuLLQfsULw+JykkjAhStg5vLXQbMJZISngljBrQCOhVN7CQpUWw4SDniGyfFEfhWVudYV8BawEm8JFhfLV6wr/vFRVkdpRUvQ7YfukbkJ5uyICrXUTbOivUBEboUD+4cL18Di1IiHC5fXThXb1bASb4uWErhO2Cx/jFckRwqU5fYTiQ7eSzxDamEQZgoRdNSoIFWvuEoLEOHlatLewfVYfwb5EbqFMrZbC9N2e8hLy9JDzQtdSlYXRN4OVNdEMr/Dh8hqhiWUX4ZhfOMVLBb8zC4XKTiOFR0Hqcn4SNvVsJtgV6itcE4c00cLNEZ2Fkj23CBFqtQnCB2FZbTuhqmMH4TGrLp2GsLAwwdzcXBg4cOBvldDZ2Vn8nvM1OOlY0c1RpgPmTWuNA92qoWyrubAdfwfLnfKmY4m5aJwAJ8AJZDACZIomrpeROURLIXwief4SaBaBrRdIX0FCM10kObMpSyMk0RtgrdS8lKWRn0dzAj9MQAjBivbWqNRxNRIqtMWgwXURfXA8KpaujvUPPstMD2kNW1BgBLIFnUCZsrWxxdMa7Ue5oGjcSbQqmRc9dvvQzuxGKF+jJYa4DccwRzs8eOyJr2SymlYQkt5jev0C6Lr4Hkq16A7XAa4Y7Nqf6suGj/5vEKGY0Yx6hekNq6Bun1UILNIOg9vb48nmbshdyAW3xE23pIj46Ifn/l8UXt/lTSYi+LkXnj3/KlvHxqYT/bbDIW9RdF/igVKtRqF16XCs7lgSVl22QbmCKDEcvp5e8I9Ud5siID4iEC+/vkFoHIun87BPeO7jT54F2VhcFj5f34vlp47Dy+ctIpnNJtGLpL54+gZrOGF5v3cshlwhs9LXrxGj3oy8Hv4hI6CYC88kPJgrzvfw+pyIYkWsYKTDfvyjyfbZG+/0cqGKbW656YOAiKD3CPj0ESHRAnT1zJCzYEHks1QYg0sR9eEtfD4EIl4rO+wq2mhM1wtJMfD3foyAcBNYlyqOnMZa4s3q7RcFKzsbmOqq9MbIj1548UEPRcsXgqkqGuGBb/HufSAiBF1kzVEAhfJbqnnvicNHj6f4Qq4/y7Qcj+v0Jwvh8L57E1r5i8OWNkzlz61MctvybnACnMAfIqCF4h0W4UqHtJvXMcmPRZc/pJ3hD6XoGNbFvggaGH4j2I84Bc8RLAM3Y/kGJp70fxB4trglBu83xFJysz7E3kysadiwUZjvXBqD+s1Do0vzkVcnAZERZ7Flx1nUnn0Fl8fVkrU4ZAz6Ta2Jap0aoHRZXwxvOwQ1WMoLCQavuiLLk8b/2GsrMOdmfky5fgtTq6s2pX5p8habD76Vl4rDnZ1zyMGIOba8eIJuRWXr1IZ2bQD7Cm3Qb1FfPJlSSmYJmUY7qujXmNShLy4adcP1Z1sha3IYhnWcCrv6/TBmUwWs61VCbRynKvldR9F+2LV2Kz4xu9pvhZArGDnyLvLQEjX5csVv5f6r09SG3JmAA9k1+xyZgQotRuHZ13ixQ++vrES72g5kN32WbJRJJZYm4fGxBWjn1AoufV3Qu6cLnJs6oIFTD2y7GyiHEI9Hi0eiauUqsK9UB7sV3xV5arT/WXQrURVVqzbGlqdhFCtFwMWVqFelH24HRstzyT4ernBEpUr9cEu2jpIiY3F7x0R0dKyFxm17oGuvjmhQ1xkjll0Aq0kW/LGyUiU4LNX0GvP8wDCUrFwdA2hPgVSd6iiK809OgBPgBDgBTkBJgN4+88AJ/HQCz7Fh1jXkdRyLHnLlRtaEJboPdUV+j+3Y+zIK2uz2YzMStn2wZGBVDSmqjpuFhhI/rKVxjTIwzxRatJmsiTImxUFM+BfEZzFG0ZwypUqWgbwWkvtDcfKDRcRG4dL5vcjexQWtbRVOOCjepilWL9+JoaX0EE/Kv/jtoH2cDOiluCqYwVD+FpkNlBNu7cKKB7FovXKlXLmR5TSpNhXzOxnj0r598JfPOAk0K6xnrC6XNsyMDchJiGq2RtWOLO71lVXY/dEOU4bZp5GPlYjFqflz4NloPlYNBqKV40pVbfxIRSCTzeAA2nqGMDYzpi8UuyWDscd9MSyG78aD/rWgTxsPRLzcC7d2i5Ftyios6VQNWeiej/v6DO4uLugzcReanR0KWusIHV1dGFZsipbxJ7HmzBv07mujpPbh6l7cFpdAmkBf/ObSd1HXAGbkgUbj+0EltA3YTa6K9z8wFB1c1qLwiH24MLAGzGnvhM/nZqFBt3YI0LuEXQNK082tLS6+NDNQuzzRHpjZdZM4VWpmqPudbxyUIvMDToAT4AQ4AU6AE+AEfh6BL69wJwQwb1oVqjkUWfXZCpRGnoJf8OIVTUmUNCTX5IBlWSvk1lEb17Cs+gXIBTLw+NpH2peK8siK01j+CyY7VsQK2oc3ibzx5SvdCJ2694VzXVvRyYRFlWaoGbkRG9ceRrMFzjAVy+nBXKlISJAY9xGvPaNQpmsRaGns8muICl07oQIrI4RDSuZxxsemo3yFDaLZJ4uWaCfgc0g0dMmPBlN7/HyeQUjMghwfr+P0MXKzLlUpQ+9RFG8+euItdaAgbSmlLQ3DwR728DLXpc1xWW0C4sLe4yVKphy7SahAgidWjd2MapPuouKHHqxAisBai/A+gMXn4zB1V3Nk30U6o0qEFPl5BI3jMycE0shp47J4j43Yfb0g5q5qhLxZZD0NuHYMoQ2bYHa3ViimcEKRyxLNyxbB0jUvaLs3+RdMIJeYutXQyyUK7eYexIe+IyFb/RKEQ7sOwG5wT2Dz2WQ2m/9CM94b7ouO4235ubgzu43SxV+uriux1/s8nNxn4nGHvSgvl1W9tqtT2uJg+fFoazQb0WmbXKsX4cecACfACXACnAAnwAn8GgLk1z2GatY2UJsdkbekpaUnegDT1aM0bX1Y5raGQQSNzVKsZaN1YmzYn8RWwqkHXVRs4ITKObRpIK+Dtw93oHe9NTg8fz82DG8Ak+zNsXr7IDh1bQWLZfo0mKV9odh+TaQMJaGNTJGgcVx8rA70aDyYpi7AEkj7ii9YGk5OteUvqbWgaxSKG56euEDJYpYEmpUxCMHqAU2wWl1MxXGZVuQ+nuaOSF9ha/YK1nREu0JmouWQRCIg5MV5UpJSLpjRMdTGw2W9sUlrFF60scaHRSnzsBqZg/rjq9ZDWmUwGheW4JEmLIUU/FONQOZTcOjLoxUTgY+v7+Do1BnQdTmO2mSrqAhFXbbjsUssAl564uHl17hL63NeXL2E82cu0O1TSJFN/EyifQpK1+uCorQXwbU3I9GBTeL4HMShi3kwaEAluK8/qcrP2k2IxHvf13gVxdbySKBrKMH7YPkcIvuG+D/DFf8PaDK6DrJGRyBcsbiMvvwlqjZH2IoTuE4uAMtX1PwqCk/c0XeZAdzvDsHrYbPxSNUqP+IEOAFOgBPgBDgBTuD3E6CNWMvTgP7ivReI7WElWp4ohPga+AxfyerfwoyGmTR9ko/yfrr0iRbV01SO+rt12h/nJikmBlXMZa7BFRXom6HJgInoXVQRMQr93Nui3Kw16N+5OurkMUKJ9u44b5YNDi5LyUxuBHo0sMKXkxsxeStzDCKQJU4eWBVOxLmPb2mPqupkgqaoC4j5EoCv8UbInUcbErbxbYlmmDTJTU0R+grTOcvBDOeYyVv2fEa011VFHAq5BydN7+iqStnRFzazYoKyXcdgZB3VvNbHM1o4tOM4SaUWdPSg5b0erqNDMPHZaPGlt79asuJQQspimO92bDseC7fzTviG5Z6iCP8kAsyOK3MFLR0Y+d7CbNeOmO/dCMN6V9PwmR/vfxuTWtdB6brN0XOCO06d80BsPns0LlOMOGjceqTVJyCpSDM0Ly/BnvPPRU6P967AsxqzUbdwnOYCLy1dmHy9hOEdWqJhg4b01wD1ajpg6LaXYjn20iI2+j0EIv50zVA0aNIcLZq3kP01bYzWUw4DYWF4+zGY8ssVHAmbU32HsQMWIe/cf9C7ZAz9OChTxXr5P06AE+AEOAFOgBPgBH4/ATs4d86HDztW4OJH9dZjcPXAYfhK2qJxCXrhK9FHxZqNYeV5AutuvlXPCK+Na3BMkg/tejuArNE0Att+Rj1Y5CkIy8+BCIyOF6M/XF2OBp0XoMjIw7iyfiJ6tuuCltVLkrmafBbEwAQVaK30k9PH4B2mXtNHLGpZEuV67UI4SMlgSTTzo9zIVswaL25aKybRv6wVOqJiVg/Mn3NJtlGxmEeW+vTMJuw8/4heWssi2VxUUoJMRlkMbQSckHyPLVpjFO6F2T1HIGT8FoworqxQ84Bmr/QiHmBO7+FI7LoKLaw1bO008/IzDQJq+qxGfMY9IaUksmRTrDo6F1/cW6FFs/awvHAADfPKlIaLtOh/8Z3iWLP3GhzL5oClsWxq9c4gcsF8Mdm3ifR2QchFykhVHKSN5mL6GGLt8lfotrMlssWsE7V6JSjawTkyqwOWH3BH9Zyy7dh0aAbnzrwGaLWYclHVBgY5QfvKoZzzQPQsp08KklyRYZXQmqEhRhawq5CLTj6wGOiQDajfYXcc1WqNw31LQxr1Rozn/zgBToAT4AQ4AU6AE/izBAzQeN5udH7UCC3JnGz6iF6olD8Gt7duwLyTL9BpxTxUzWEgipivTkeMarsDrp0bw7/HcHK0ZI3317Zj2tTdqDzqOGZVTTYvkRCL59fO4soHbVI0ovH21jGsX7YbJs0nwj43TaFEPsSk7iMQZjcaC/rUlmNI5mRA2wiNKE/zrZ1p7U5bDBnVFWWzxOL69tmY9rgYFlzvAAtyM5CaUVgKrjS+27rUFRW7OqKW3zD061gLNtpfceroamzccQ320y+hRf0UpdKOoFktvTf3cbBEP3iOqpJ2PlrfrXdvC9aWdoPXlPKK199p5+cpSgKZT8FhXSNPaUnalqg3ZTv6HLXB7BkHYb+mNd3IoXhy+ysKVeyGRtXzqRazJX3C7aCPdJtbK8EoD0gxsa3fELn3X8WdQwHYHN8Llx0MEXeLTVqqBXrVINUxRu78BVAgt2q/6VwW+mImUXXKVRT5zSzw0rgonFvbqxVO/TD6izembfBAm5FrUJi++0kabyBSL8NjOQFOgBPgBDgBToAT+B0EdHLUwKqzT1FrxUQsHNIO4yOMUKpBO6w8tgHtqhWk+RF50MuD/msuokiFGZg4ZxyaLQ6HRb6qGLj7Jsa1qsyWrqgC29tJGoUlfRthiSI2eyG0IVO0TaN6wco4HDu7NMLmL/mxcf9ElJB5GBBzShPiEE3exhRKi751fezyOIM1UyZj9uCWeE9LCMo59sPJW+PQsBRzaRCGpHhaShDLFjezkZrixTOteomOQYwkQYxllefrvBzPS9fA+GGzMKzzbIRGZ0GZxk0x84gPOjWwlZmOCYmIIYUsTrEPDytIQUiKJ7li6MW2OBqkYWosWbPpY+AEN9iZK9qkbifEkOzakBWnmaC4SETQaHXqmgUopsrGDIwQTfLJq5M1wv9rEMicCg67mQS6vXWt0X/cIFQevgwX3eqhlV0W5C8CeN84hEfe7VGroD7dTNF4fmI5Np97QqWqKL8UKkoCzPLWRJ5ci+E2dR+yjbiIypSoMRurzExWn8nmVGW3MmVgB6ZlMal/NVR364iZVW9idFUzujkl9BeO48Oro/31Mjh1eA8a28oq9N86DPfrDsSkekXFKVTFF1bZXCY5SLnoMJN0jHeDE+AEOAFOgBPI5AQMs9ug57Rd9PcvHdXOgnr9F+Mm/X0zlBtFY6lRaWcRzNB5RyA6p8ihh9JDNiJ6iGaCJGtZ2l7jKP1pxsvOzOG0+qpSiVHmEHJjKO2TOJRFKPUeLWQp1QGrz9OfMmOyg+xt4SG0FSOVxUhhsW45AwHCDGXmom0XI1pIycF+7H0IY2XZBMEEjffeTCkbxdSeRePNWSyfqhVl5fxAJJDp1uBImZYcE6fUags5DkKvfI8wZsExhJGG0HjAVjhE3UfzWpXg5NwV7Tu2wuDNXzF4RmdaIHcYd1/I7gwpeQeJjWUe0klPssiHanlz4+lTU4xvwaYS6cYirxsx8THkKpDlYJNGCYhRa1eMZPGkjZMjark2DpQZvB0bRxbDlrYVULJuS7Rt1QLVilfA0Ot5MWPCJNSzZTqnVGbjmWSNziPHwUbxdoKUJ9mLhsyl6vj4+MDQ0BBmZmYKbPyTE+AEOAFOgBPgBDiBlATUZjJSJv6kGPU21I9/oPr/WEzZAlu7nXpQT1A/Tj333xqbuWZwaB1L3urdsXlOHKyZ5w4K2qY2GLpiD2zfmtHEoxRZynfDrhulcOXSfbwP00JOu7KoU7M8ssa+gpFJNdiaiioNCnUahs21zWHJ7jAtU7ToNwvb7AU0KckWeElgUaQJFmwqgKK2zBxNC9nKO2Pp6hqwyyKzN2Vts1DEeR42FDBBCfk8rUBTje0XHEW1ztdx88lLBIYJyNqvCCpWsUeRnMz7Ggs54LxhAwpbFIFjNaVXeGgb5UD3KUsRlqcSdDOJarp9+3Zs2bIFM2fOhLm5yuOIjAP/zwlwApwAJ8AJcAKcACfACfwYgcyl4DDFo1AVdC+kBoE2USpQuSlcmV2ZPJjnK4cWXcspTmWfuoXRsXtheZw2sldyQI9KiixasCxZA11LKs4Boxwl0bqnKsIkf1m066RKVxzlKOcMF7WmZLq2NvKXrY329Jd6MEVZFxeUTZaopWeKKs2Szb0my5ORTv38/ETFpl69ehg7Vj4nm5E6wGXlBDgBToAT4AQ4AU6AE0h3BDKZgpPu+HKB0iAQHx+PBQsW4M2bN7h8+TK0tbnrwzRQ8WhOgBPgBDgBToAT4AQ4gR8gwBWcH4DFs/48Avfu3cOqVaswd+5c5MiR4+dVzGviBDgBToAT4AQ4AU6AE/irCWSSlRx/9TXMcJ0PDAxEx44dUbduXbi6uvLZmwx3BbnAnAAnwAlwApwAJ8AJpF8CfAYn/V6bTCtZ//794e/vjz179sDEJNnmXpm217xjnAAnwAlwApwAJ8AJcAK/gwCfwfkdlHkbSgLbtm3DkSNHMHXqVFSrVk0Zzw84AU6AE+AEOAFOgBPgBDiBn0GAKzg/gyKv47sIvH79GhMnTkSFChUwZcqUFJuiflclPBMnwAlwApwAJ8AJcAKcACfwDQLcRO0bcHjSzyOQlJSEZcuW4evXrzhx4oRYsSTtXax+XsO8Jk6AE+AEOAFOgBPgBDiBv4oAV3D+qsv95zp76tQpuLu7Y926dShVqtSfE4S3zAlwApwAJ8AJcAKcACeQqQlwE7VMfXnTT+d69uyJmjVronXr1ulHKC4JJ8AJcAKcACfACXACnECmI8AVnEx3SdNfh7p27Yq4uDjMnj0blpaW6U9ALhEnwAlwApwAJ8AJcAKcQKYhwBWcTHMp02dHtm/fjh07dmDIkCGoUaNG+hSSS8UJcAKcACfACXACnAAnkGkIcAUn01zK9NcRPz8/0Vsacwc9efLkXyqgjg5fTvZLAfPKfwkBLS2tDOlNkDsI+SW3A6/0FxPQ1tb+xS38murZ7wQPnEBGI8Du2z/5rOCjwox2x2QQeWNjYzFjxgxxQ8+7d+9CV1f3l0luaGiIV69eIaM+vH4ZGF5xuiZgYGCA4ODgP/oA+C+A2AMrPj4eL168yJDK2X/pMy+TOQiEh4dnuI6w71tUVBSeP3+e4WTnAv/dBExNTf8oAK7g/FH8mbdxDw8PbNq0CUuWLEHWrFl/WUfZIJGZwbE/HjiBjEggW7ZsGUZsQRDAXl7Y2NhkGJm5oJyAOoEsWbJkqJcK7Pehbt266l3gx5wAJ/AdBLiC8x2QeJYfI8DeSjOvaQ0bNoSLi8sve5iwN1tNmjSBg4PDL2vjx3r+7dxMGVuwYAFCQkLE2a2EhIRvF+CpP0yAKdYPHz5E9+7doaen98Pl/0SBmJiYP9Hsf2rT1tYW69ev/09leaFvE2Az0FevXsXmzZuxevXqXzrr/W1JMncq+921trbOEJ3MkSMHJk2aBH19/Qwhb0YTkn3nVq5ciSpVqqBixYpITEzMaF3IEPKyF2N/InAF509Qz+Rturm5wdfXF1u3bsWvnKJkA9hu3bplKJr79+8XTekymtwZBfKGDRvg5eWF+vXro3DhwhlF7AwhJ3tI8fv2114qZsrLFJz+/fv/2oZ47RmCQLFixcD+ePg1BJiZLXsZW6lSJfGl2K9phdfKCLDnx+9ej8NXrvF776cS2LlzJ3bt2oVx48aBORfgQZNAUlISpFKpZiQ/+ykEjh8/jtu3byMiIkLcVPZPvTX6KZ1Jh5X87odTOkTwy0VSzOoyM0AeOAFO4NcS6Ny5s9gAM3FnL8Z4+HUE/sTzQ1Rw/kTDvw4jr/lPEXj9+jVGjBiB0qVLiyZYf0oO3u7fSaBfv37Kjru7u+Pz58/Kc37ACXACnAAnwAkoCJw+fRoPHjwQTyMjI7F27VqwF5A8ZB4Coonap0+f8PjxY2QkW/DMcwkyR0+Ym+bly5fj69evOHfuXOboFO9FhiHATNMCAgI05B0+fLg4m6gRyU84AU6AE+AE/noCU6dO1WDAxi9jx45F7ty5NeL5ScYloMOmxPfu3Yt//vkn4/aCS55uCKxbtw6lSpVKN/JwQTI/AfZiZvHixSk6unv3bowfPx4lS5ZMkcYjOAFOgBPgBP5OAgcPHoSnp2eKzrP1w/v27UsRzyMyJgEdZqc+YMAAcad5bvebMS9iepGaTe/ywWR6uRp/jxzMmYWPj0+qHR41ahROnTqVahqP5AQ4AU6AE/i7CLA9hdg6YfaZPDAnQE+ePBHN7JOn8fOMR0CHrb/JmTMnihQpkvGk5xJzApzAX03gy5cv4gy0YnF2chhsk9nLly+jTp06yZP4OSfACXACnMBfRoApMIcOHUqz18OGDcOFCxfSTOcJGYcA96KWca4Vl5QT4ASSEWBe0y5dupQsVnXK1oSxDWe5RzUVE37ECXACnMDfSIDtc8PW2nzLkynbS+3KlSt/I55M12eu4GS6S8o7xAn8HQSYSeTcuXM1OmtsbAzm8EI9MBM19tDigRPgBDgBTuDvJfD8+XPs2bNHA0ByL8Lh4eFgTmu+pQRpVMBP0i0BruCk20vDBeMEOIFvETh//jxu3LghZrGwsMDMmTPh6uoKW1tbzJ49GzY2NmIaM2PbsWMH36X6WzB5GifACXACmZSAYgZffQPd6tWr48CBA+Lsfvv27cUtLhTdZ3uqPXz4UHHKPzMoAa7gZNALx8XmBP52Ai4uLuLOyGxT2ZcvX2LMmDHIkyePOIPTrVs3PH36FOvXr0eWLFlEs4TAwMC/HRnvPyfACXACfx0BNktz8eJF3Lx5EwULFgRTYM6ePQtnZ2eRBXsZtnDhQrx//x5du3ZFaGgotmzZgrTWdv51ADNoh7mCk0EvHBebE/ibCbBFojVq1ADbw4vN1mTPnh3a2trKtTbsgWZkZITevXvj48eP4ts5tvknD5wAJ8AJcAJ/H4GlS5eKm3n6+fnB0dFRfD4oKChmePLmzYtt27bBy8sLL168ANsAlIeMS0DTWD3j9oNLzglwAn8Rgbp16yrfvv1bt/X19cW3c0wZ4oET4AQ4AU7g7yLAtkA5evTod3e6ePHi4oblqbmS/u5KeMY/ToDP4PzxS8AF4AQ4gR8lwNbc/GjIlSvXjxbh+TkBToAT4AQyOAEDA4P/1APmtIaHjEuAKzgZ99pxyTkBToAT4AQ4AU6AE+AEOAFOIBkBruAkA8JPOQFOgBPgBDgBToAT4AQ4AU4g4xLgCk7GvXZcck6AE+AEOAFOgBPgBDgBToATSEaAKzjJgPBTToAT4AQ4AU6AE+AEOAFOgBPIuAS4gpNxrx2XnBPgBDgBToAT4AQ4AU6AE+AEkhHgCk4yIPyUE+AEOAFOgBPgBDgBToAT4AQyLgGu4GTca8cl5wQ4AU6AE8hEBHR0+NZ0mehy8q5wApzAHyTAFZw/CJ83zQlwApwAJ8AJKAhUr15d3EldV1dXEcU/OQFOgBPgBP4DAf666D9A40U4AU6AE+AEfg0BgaqVqFUtUIREGZE8VS1jJji0trYG++OBE+AEOAFO4P8jwGdw/j9+vDQnwAlwApzA/0lA+m4X7LMUxsS7oRrKDatWInmPeWUtkSWvK55IlZrO/9kiL84JcAKcACeQmQlwBSczX13eN06AE+AEMgIBIQlxsXFIlLIZGs3waMUATPAMgTQ+AVLNJH7GCXACnAAnwAmkSoArOKli4ZGcACfACXACf5pArPc+jJn+GMWKF4A0KaXy81/kYyZv/3egStSrUR2rjkA5NM9Stvpv6SlLpBGjXlEaWdJPtLqw6sfpR0IuCSfACWR8AlzByfjXkPeAE+AEOIHMRyDhK7bMH4v7Rbth5ajaiE1IkvdRPigOfoi143uicfWm6DN9K55FyJJDPQ+gV1snbHwcJ0aIueOeY357R3Tf/kK1nufTXawY2xvNazVE+4HzcMkvSpWfHfkcRMf2zdHQwQH169eHg0MDNGnuiC4r74mLgiR4jy29O6HNAR81szoJwm8uRIdeGyhVAonwGu4dWqPHKXaWMkgin2NQz7ZYcD1MTJf1TID3qY0Y0LE2GjTrgBlb78hmrr6lC0ikuLawFRo3aEhy1id5HeDQsCk6dO+Ds+/U2g26jw1Te6N189qoW7cTxrnvwgs5NzEX9blFp7648kFVJik2GFsm9cSWiwFgVyD68Q449RmNR19UeRJCvbFwiBuOPQsRlbqAq6vRbsQC+Iar8qiOJPh8YSY6u06AbzSjIutYjN9lzHNtj4Y1m8Fl2no8DpGV+Fa3VXXyI06AE+AENAlwBUeTBz/jBDgBToATSAcEgi4uwdhNwODZg1EmqwQq6zUJom7PRKH8lbH2TTZ0c+sMwxsjULFSW1wJBixK2qN0sAf6t5gGH+qHBLE4P3MAxtywQG+nYmLPIu6sQtFSzbH/YwG0H+yCMloX0aJYLYy/+EGliIQ8wYG9hmg2YjAG9h8At9EdkP/iaRx8ECCjI0Tg6ckjOOj9VYNW/Ic7OHziMUS9QQjB/cMHcfxNqiN9ID4YZ08cwp33sWIdEiEQm10qoHS39UCVPhjYugQuTmgAq+47EJGahqRsWYD/3UO4V9gJI90Gop+rGwY3yoF/9h1WKhnCwwUoWrAGNn6wQpueI+HSIR885neGY+PxeC5rHgjxxrGjp/AuUlkxhMQYPL16Ak/eRoqqSOJnTxw5dQmfY1R5pHFfcff8Wfh8kVUU6f8Qhy/eQahMx1RllB9F+d3A0bNXEJrIIiT4eHokihVrjosoDZchnZD70WzYl6iLQ76C6nqkqIVHcAKcACeQNgHuRS1tNjyFE+AEOAFO4E8QSLqN0d1nwrbTOgysmRM6x+VCiIP8p5jQeAaCe52CzwoHMaFT+9qwsMqP7kuvwm9GLQzdtgybirVB30Vtcbi+J4av+YipNNivaUrZQ59hhNtMGHbbgMuLmssqbtseNS1LoZbzWDQL3I5q+jSvQOuCBN2ScGzqBFsx1xd8MnLDDpVLN0BLC1rq52I+CYuWB5rFoRNJijyKdDYZpEp/d2o5xu00wC6fm2idT5bHuXVVNM3dAJ0b1MPRLnlUBTWOZPMcOSu3QJOW8oJPfYEJx+UKQgxOH7wBy/qbcG59R5iIZZujS4PCsCs1G4efjkPxSgwOAdZKrkmxPqjFsb7Qn1qMWJusHwqhiIGYT3Ge7JOVZ3+MU8ItjOmwCOZTH+HM2DJixvZtOqHakNIY4jIfFc6MQQHuNTsZQH7KCXAC/0ZA+TP8bxl5OifACXACnAAn8EsJiCNeAWdce2OLdl1Mmd0H2alBhZkSG2dLPY5gQ3RuLBslU25k8uRDz+UD0ckyGqLlVL7WOLWtNbxHOqNJvxXI1mUCxtS2EGv67H0RN1/bYOpQ9fJATdfpyBe+A6vOh4lVRgb5IalNQcjVBYojhUfWmOo/W9Cja6A6pyNDfR1SjtSi6Fiip5lHLVXtMBQXDl6G0K4zGpqFIzwiAhERkYgzq44B7Y1xauVJyCRTK6I8jECYN9DUKrcyBknqLhkM0WTGYdw6SsqNkIiY8C94/+YFbryOgJk2zYiRMqcMpHjoq4mrY2QIXW1lquxASxv6hqo4fUMD6Gipd5r6rK0NA7U8qtyqIy1SXKLPL8P2MDtM61wGCVHh1Gfqd2QUSjl3hq7vaTz7EK8qwI84AU6AE/hOAnwG5ztB8WycACfACXACv5aAjqEuIs65oefad+i28zRaFNRsj80ahIZ4QjuxAMxk0xDyDAKsW6zEbLXseVvtwNj6ZnB7mB/7tzrDQJxykCLqwxeEG+VGNrVBvFjMMidqUJ5bgUxFMoe/rycMs3cATeakHfQMkbR9BLo/yoZ45gRBSwdxftdgbNBGVUZHFyFrXNH9sgViyRNctsKV0ah1N7Qon0OVhx3FR+JVeBBCLi9BvfpblTNDTFEI84lCYtBt+KE3ZHMcmkVBKc+eGMEqe3JNRD1fJM6tnoRlh5/gaxCpSmb5kaeQFJ/0dKFRKjwASwZ2xBFzUiapS9LEKHjcM0W77mp1vfPEFJeOyGMkUz6TYgNx+bkxqshfmbJZq1jPyxjWtSOy6AuEJRcqNG2N7u1qIqtaY9Q1eD1+SBWHYALNVM2jtUTUpBgSIt/j+aes8A0mWa2YmssDJ8AJcALfT4ArON/PiufkBDgBToAT+FUE6HW+lv8luI1bDZ0eu7Cuk2ruRLNJNgROaSKlyiNLh89O7LiUAOj448BpT7QsUhU6TMnRoVG1rgSJyY2sKI0lywbY8Xh2KBx12tmqqk3tSEq1FKuCpo1sEElOECQ6Boi68xoX36nNnkil0C9ZHU3r50O0EItgj9MYWGMxDs87hU19dVVSaOtAm2ZPKrQfjc2D69KxvEFBAj1TMxhp68NC3rUUorx/gi1wwAmbFCnyiGgc6WePHluNMXyHO9qUzAYjkyww0ruFnrsGEQu1oG2MMjUaoWpuqei2Wxofgq9PHoO6oQpUtlKtRrCzlJISJCAxwgevbp1SzlwJbArLMg+q1mmI/KYCksI/4Mzinli+pwuu7J2q7DPLZpGFVdwMC/dNR/GEGCTKLgApRQYwIS3W1MxM1S4/4gQ4AU7gOwlwBec7QfFsnAAnwAlwAr+OgE5cAPbPHIm3r1vg2PU2qc6csKGwZf4GZAY2At6+dJJVIY8EPpuaocmBUji4bw5KGfliUrs+eNd2M+739EeLXmNwtOVJtLIyQdbCVsgfuhtP3kSiTnY1GyqvB9gtaGGaHWkJ8Y9x7EMhNK9mpWgg9c+kRGiVa4H2XSsq04ONjmLMATVtgMy/DP/H3lnARZV9cfw3QXcqKSAKYhd2d2LX2q6da3fXrh1rrN2xa+ff7i5sRURUVBSV7pn53/tghgGRVZYY4Fw/z/fefTfO/d4B3plz7rmerdG+s3tCmS59Ude5KmqsmoUpXhOTlrxI9FHCyhaL3oTA0dkV+kwJS0gR2NKsFFYbT8LebV2Rwu4jFHl7YS+iGrVC+ZRWKf6UW0zCrmH51qdQzH6ISW08hDr8v5j7fvBm1payqhx2oW+Mqq27o3PhhEx55Ds83zWPKTtqhUxtUL99d9RL1EFjP17DmTUHkgJBMM1FJ39BeP3SA6US56gDUwLrVh6PAw/HwCuxKa402RdsCDF24VP8ejR2Teoj4PR01JocgDU7F6OKg9o8JRWhKyJABIjAdwnQGpzvoqEHRIAIEAEikFUEJLJoPLkWgF7rZqO2cep/mhT8JdvdC7M9zTBz1Hhc/xiK6MhwfHh9DksWHIdV8eZMuQGuzOiNmf7NsPHP7ihTvxdGl3+N3v1X4wOrb+LaEO2a6WPGhEW45xeIsMhIBAfewfRxk5jyMwOdK7AA0CeP4rJrKVR3jEUUex4ZGQ05ohDLTQ6yGAjBwZT6B89TS4L1QvksMV8RF8lMQ7GsnTB8DXyDu4+DoGWSH/o6SS5ZzGcMdbo1h9vRJRi68zbefQ1HdEQwHm6dggHHg+HRudG3yg3vWv4C6/+8jjada0KfWUAiuLyxcsiimfWKpbhoVsjIDu5WIkTevoTAsBhEhQfjjc8VTJ00B2/NtBAfoQyjJlRRWWL4nZz5qSUfIc9leWqZwph5tlpSMOUvKiKKjTkSEcGf8PTxc3yRmsBUX6JqT8aW1+jWHYwxhWIxZORs3P/wVSgf6HsSk0dPgYlbBRS2I+VGDStdEgEi8IMEyILzg6CoGBEgAkSACGQSAXksW4UB2HiNxW/NEy0dal0p4iIgj5AK+7CAhR3o8c8OBIydjKFt2sFCLMOX2DBY1VqPXbMqIfDUTHSa/ADd999EA3PeiC0GL5qB3c5d0XBMCVydVw9D569D8KgJGNqVhZjWlSBaFgWJdV/sOPkbbB7vRsees+EXZ83avyNE++KtSLRj8PxzFKJOL8O8oxUxsTELQB0SzhSJZA5e4LJGBUcxhYineEREyfF5+QA0PW6KWKboxEZFIFReBtPmToKVwVOEBMchgikkPJmX74cN22IwZflItNosh748Dp8+StBuwR4sapTKOhRmXdk0dxCmXPkEd/RFw02KBCsKCwIg/vqEmWg+Y9faZWiycAjGrZ2EF0NmoHqdLXCzt4e5hSlc2qxGn/DmeHo3AHG18kMrnik6YSFsPZEgTuJ/TLVjeYpEGRVMiUJIGOISRBbKKJirXkRoKGIS/cvkrJ1Y7yOMrxdM2SImeeRnBEWzNTojZqB5EW0EnYtAWGhYYhyEwphyYgfixs5D/9bHYMDKR7B1N1plp2HF791hlbquqy4gXRMBIkAEviEgkkqlikmTJmHy5MnfPKQMIkAEMpZA8+bN8eYN+wb3Ll9YSykjCfBvkZcsWYK1a9fixIkTsLX9XkjdjOyV2soQAmw/mCf3/KHj4AonG2PmspQ8yUJewdtPBPdSBcAMNAkpLhh+Pv74FBzLggHYwNnFHoYSOcI/vsLztzIUKlkIRtw9S0hx+PD4Adt8Mz9KeNhCm+Upor/i9as3+BgSDS1jSzg6FYC5ngT+xyaj/yRv9F8yA9ZStc1eWB2JrgH89wzCLOkc3Jnsibf37+OjdWGUyW+Q0A37P/7rSzx4o4UiJRygi0i8uvcMQXFx7GWeWz0U0NI3QT5bR9hbsjrx4XjELBt6DiXgYpb0fWPEpzfwexuAsHhtmFvbw6WANVKNlPzlAbo1GQeb/kPQyt0kmVWFx2COD32E9et2oNuC/6G6rQJfA17g1bsgxEuMkL+AKxwsdPHR9w5C9QrDxdYQ4ogPuOXzCS7uxWGe6O6mYEpWwAumLFkUhh0rL2frae75h6GQmzuMOUiWuFLn5/MKho6FYW2ohZgvr3HP5wNba5Ng/eEhpI2s7FHAgVmt2EKomKAXeBIoQ2F3N7a2KKENedRn+Pm+xuewaOiY2DI3PUeY6aUwhSUUpf+JQIYQ4D+PYuaiOXbsWMyZMydD2qRGsp9Aq1atsG/fPiT9Rs1+mUgCIkAEiAARyIsEtC1QxFO1oOYbAhITJ5QplSJbyxTOHuxIli2GobULUgYoY1EFkN+jDFNvkpJI1wwF3NmRlJV4JYKRBVOEypZAgVTWtBjeNgPecP8sCexLlFYLI51QXWrmgtKsSEJikc1KlYaT8jblWWqIoiXKpMyFgZUDirHjX5Pw/m8CJ49S8Cz37eqcyE9yZiVisgruZCKY2RUSDvV2rQuWSXJ9M8iPcqXUKbHACyz4g33hEqoqEmM7lC2uuhUuRFoGcPEoqsrUMXdEhQqOqvuUFzqWrihlmTxXrGeBgsXYkTyb7ogAESAC6SJACk66sFElIkAEiAARyI0EtI3ywcFJwgOtpZp0zArANUZlR0q1TJZlSnTZIn0HZnlK/U+5WKqH/HbOMEjV/JNlUlJHRIAIEIEsJ5D6b8UsF4M6JAJEgAgQASKQ/QRsqg7A/KpcDm72SKnlsP12Wi7G7u895vlZmYwLYdbWud/tUdesBIZNW/3d5/SACBABIpBbCaR0dc6t46RxEQEiQASIABH4CQIplRteVS1P7fInGk2zKF8TIE+24UyaxekhESACRIAIfIcAKTjfAUPZRIAIEAEiQASyksC2bdsgkbCobtHJwzZnpQzUFxEgAkQgNxAgBSc3zCKNgQgQASJABHI8gfj45CGnc/yAaABEgAgQgWwiQApONoGnbokAESACRIAIEAEiQASIABHIeAKk4GQ8U2qRCBABIkAEiAARIAJEgAgQgWwiQApONoGnbokAESACRIAIEAEiQASIABHIeAKk4GQ8U2qRCBABIkAEiAARIAJEgAgQgWwiQApONoGnbokAESACRIAIEAEiQASIABHIeAKk4GQ8U2qRCBABIkAEiAARIAJEgAgQgWwiQApONoGnbvMmAalUmjcHnoWjFovFMDAwyMIeqSsiQASIABEgAkRAkwjQ25YmzQbJkmUE/Pz8MHDgQISFhWVZn3wDv3v37qFgwYJZ1mde64grNwEBAWjevHmW7ggfFxeHQYMGoXPnznkNOY2XCBABIkAEiIDGESAFR+OmhATKCgLa2tq4dOkSjIyMYGdnl2Uvw66urihWrFhWDDFP9mFjYwNbW1tERERk2fjlcjm8vb2hpaWVZX1SR0SACBABIkAEiMD3CZCC83029CSXE1AoFBg/frxgycnqofK+RSJRVnebq/vjPNu2bSscWT1QmsusJk79EQEiQASIABH4PgFag/N9NvQkDxCIiorKllHSC3G2YM+UTqOjozOlXWqUCBABIkAEiAARSB8BUnDSx41qEQEiQASIABEgAkSACBABIqCBBEjB0cBJIZGIABEgAkSACBABIkAEiAARSB8BUnDSx41qEQEiQASIABEgAkSACBABIqCBBEjB0cBJIZGIABEgAkSACBABIkAEiAARSB8BUnDSx41qEQEiQASIABEgAkSACBABIqCBBEjB0cBJIZGIABEgAkSACBABIkAEiAARSB8BUnDSx41qEQEiQASIABEgAkSACBABIqCBBEjB0cBJIZGIABEgAkSACBABIkAEiAARSB8BUnDSx41qEQEiQASIABEgAkSACBABIqCBBEjB0cBJIZGIABEgAkSACBABIkAEiAARSB8BUnDSx41qEQEiQASIABEgAkSACBABIqCBBEjB0cBJIZGIABEgAkSACBABIkAEiAARSB8BUnDSx41qEQEiQASIABEgAkSACBABIqCBBEjB0cBJIZGIABEgAkSACBABIkAEiAARSB8BUnDSx41qEQEiQASIABEgAkSACBABIqCBBEjB0cBJIZGIABEgAkSACBABIkAEiAARSB8BUnDSx41qEQEiQASIABEgAkSACBABIqCBBEjB0cBJIZGIABEgAkSACBABIkAEiAARSB8BUnDSx41qEQEiQASIABEgAkSACBABIqCBBEjB0cBJIZGIABEgAkQg9xKIjY1N1+Di4uLSVY8qEQEiQATyGgFScPLajNN4iQARIAJEIFsJcAVn2rRpiIqK+iE5Hj58iBEjRkAspj/ZPwSMChEBIpDnCdBvyzz/ESAARIAIEAEikJUEdHR08PbtW9jZ2eHPP/9Uda1QKFTX/OLz58/o1KkTPD09YWpqColEkuw53RABIkAEiEDqBEjBSZ0L5RIBIkAEiAARyBQCWlpa6NOnDyIiIjBo0CBYW1tj//79kMlkQn+hoaEYN24cLC0tsWPHDsFyM2nSpEyRhRolAkSACORGAtLcOCgaExEgAkSACBABTSZQrFgxtGrVCjt37sSnT5/QsmVLGBsbgys/Dg4OUF+ns3DhQk0eCslGBIgAEdA4AmTB0bgpIYGIABEgAkQgtxPQ09ND586dYWRkpBoqt9zwQALqyk3hwoXRoUMHVRm6IAJEgAgQgX8nQArOvzOiEkSACBABIkAEMpxAkyZNUKJEiTTbHTlyZDIlKM3C9JAIEAEiQAQEAqTg0AeBCBABIkAEiEA2EZg5c+Z3e+bKT926dSESib5bhh4QASJABIjAtwRIwfmWCeUQASJABIgAEcgSAjVr1kSVKlW+6YtHTPPy8oKzs/M3zyiDCBABIkAE0iZACk7afOgpESACRIAIEIFMJbB27dpk7XOLDY+s1r9//2T5dEMEiAARIAI/RoAUnB/jRKWIABEgAkSACGQKAXd3dyHggLJxvh9Or169YGNjo8yiMxEgAkSACPwEAVJwfgIWFSUCRIAIEAEikBkERo8erVpro6uri+nTp2dGN9QmESACRCBPECAFJ09MMw2SCBABIkAENJlAoUKF0LVrV0HEBQsWqJQdTZaZZCMCRIAIaCoB2uhTU2eG5CICRIAIaBgBb29viMX0vVhmTAvf4LN06dI4e/YsPD098eDBg8zoJs+3KZPJYGdnBysrqzzPggAQgdxMgBSc3Dy7NDYiQASIQAYS2L9/P9atW4eoqCiyMGQgV2VT8fHxAtvGjRsrs+icwQQsLS2xcOFCNGzYMINbpuaIABHQJAKk4GjSbJAsRIAIEAENJsAXvwcGBmLz5s0ICwvTYElzrmg8ghrnTCnjCURHR2Pw4MGIjY3N+MapRSJABDSKACk4GjUdJAwRIAJEQLMJ8P1ZqlWrBltbW80WlKQjAikIBAQECApOimy6JQJEIBcSIGfqXDipNKR/J8C/IeXf5nGXEEpEgAj8OAH+syOXy3+8ApUkAhpCgH7fa8hEkBhEIAsIkIKTBZCpC80jYGRkhPHjx6e6g7jmSUsSEQEiQASIABEgAkSACPwoAXJR+1FSVC5XETA2NsakSZMoIlSumlUaDBEgAkSACBABIkAEAFJw6FOQ6QRkcdGIjolFXLwCEi1t6OrpQkssyvR+0+qAL+SVSjPu4y9nY4yIjMH3HXdYf1q60NfXRrKRK2SIYa5ysbHxrK4IEqk2dHR1oCVJViqtodAzIkAEiAARIAJEgAgQATUCGfeGp9YoXRIBJYGYd1cwb9xU7L0TgI/BMTDMVwA12w7D9BHNYJ1bPn2KeDzc9hsq9FgFmaEJDKUpPD+ZMhXy9Qs8Gi/HySMDkT8RTnyYP05t34C/Dp/Gy7tvEWaoDUsrN5Ss2xz9enVBGXsdJUY6azABriybmpqC7z5PiQgQASJABIgAEch+ArnlFTP7SZIE3xIIf4DRndvggOGv2LCpF0q7GuDD/T0Y0rId2n06g6PzK0H/21o5MIdbXnSgbVYN8/9ZiCr5ko9KLNHGoSmFsCNWF0rVRxHti8W9W2D1m+IYOHwa5q8pDVNpFAKeXsXOOeNRbd9xrN+1E+3d6EdU0z8QfIPGAwcOoEiRIpouKslHBIgAESACRCBPEKC3pzwxzdkxSBmeHliBTffLYKvPRNQy0xaEMK3aF6vnn4TLwC64NvEFapuqycb3fmDfhqcr8W0jlFXVr9PVWHoqschSWiZwcSsCDzuDbxrwNgNk75Oyb/3VE/PuFMHmE5vRwEn5Y2gG86qtUfxQSRg0KonBv0xCqStz4JaALqkyXWkUAbFYjOrVq2eTTNnyYc+msVK3RIAIEAEiQAR+jIDyC+UfK02liMAPE4hHvK4tCnVphwbGWslqWVoYA/Ff8C4wIfvEUAuIpPPwVl25ebsNtQwcsOl5UtVHf09H4woFYSAVQWTuhMYDFuDWx8TnolhsaC5CgXK7EaxUdNijN/+bgipl2uPuZ14uBPMbiVF3yf3ESoAiLhKb+7tCVKEfnnxJ2PwtKsgb87tXhpGOVNitnbsg8aPo4I2IiFNVTeXi++Fz+WtoUrqB9ZMvoXC3EaivUm6SnkLsivELZkP7wQZsvSYIrvYwr1/G4fnJVehWu4gwJ4b5qmD0posIjUlOOMdTer8LFRM/d8rPX8qzlm5n3IhX+7CzQctignF5ywx4lTWDmNXXdS6LHuNX4/7H6DTWh+V4WjQAIkAEiAARIALJCJCCkwwH3WQcAR0Uaz0JNxd1TbFgPgL//L0Jpk4DUL5QQm8ikQRiScqPInP7YhsKKmMRXJhcFiV67ESNkVtx+7kPbmwdDYvzk9G84yz4yxLbYU1IUizOF4nELE+sMu6IxKxNta5Cnq7BwlW+gAE3k7AdxOVhWNq1Fub5MMvT2bt4+uwZXjy6iQkdS7IgCYkd/VdId09jbageatUsqpLrmyaL1UHj2C+4c/4hIr95mFcz4vFg3wQ06DQNcRUn4e6Lpzi1pg0ujmmJtjPOIiI3YWHKCaCNykOXYh9zf9u3Z5/qOHjoJJb2N4FC5fCYMPCo99cwrE4RtJl+GSV/243H7LN7Y+NYmDxZgqol6mLpST9ScnLTZ4TGQgSIABEgAt8loPSN+W4BekAEMoJAuN85rFq0H34Bl7DySi1svjINbmqKRtp9fIGkQDcsO9oRA6pbJRR1ccUW2xA4N9+HZ+8moIBD2i2k/tQfy3sug36HtrB7E8te/iTMpHMXN44BHY9NhFflxHAAinDYmBlAngH6DR9yeIAP4qUSWBgYpi6WkJsf9pXj8Oh5AKLZffJVPWlUy8WPYoMfYvHkDSg69m9sH1EzYaQF3bBf+xMKNumDPf1eoKt96gDUHbnUr1MvzXLVC6lfq1VI5lGpKqO6EEomv1Or/AOXCuiiYMXGaNG84Del/T7oYeg6tWzZK8xsXR/7rCbh4qlRcFXGOyhcGItrtETTKa1Qz6sVdO5cRn93+jSpkaNLIkAEiAARyIUEfvgVMxeOnYaUlQQkujCyNIa2th60Pz3AmvmbofQu42+TIpE+1JfjwMwQUvYGyV8QAXNU6TVEUG4UEUF4ce8SDm9YhG5jtiHK0AjqRhuJ1ChZO6ZGehDzN1H1lHjrt6YbVtqMxl/dy0M3Jp6VYEGeRW5wLxeCq/vPMoe2xCQyhC5zV0PKdpTPf/b8E+2I1M1NP9tPLisfF/oWHyzKo22tEslGlq9QKVga+eLO/QQbzruLC9Gk4mTcjUsK2i2SP8OMWlUw+1p0ktXs3VXMG/0r6lRwZ3NeHZ3HrsDtr4lNMwPKo83dUKXiGrxR9wILv4IRVetgK3Od5EaWW4uaoNq0s1CoyogQdXU6PGq1wFLvUFVfPgdmoVUtTxQtWgzFixdHiVLl0KjbUNxM+iFINibljSwuwW1Sea88Cx9X5Q07vz80CguuOuP3ZWrKjeq5FHWnzcekgvcxedBhhKvy6YIIEAEiQASIQO4kQBac3DmvGjcqQ8cK6DOpAnspnI6ZQ+agWOVB6FW+Eg51d6WDgxYAAEAASURBVGey6rG1AwNhLBmkeiHkyoS+fRF0TxyJ/PVB9G7dDetvBbMcE5Ro2Bodq1XDi82PoDKssJfMF1caM3c3tmZGWU8uh22dXtw2k5RYVDOEHsWvQySY49MHVvdnJLbBdqIRW2PYmo242qI7TCVdIRXJIZeztTVMnuJDeiW1kc4r/sptWKgMDON3I+ALf5tm0QdSTS/hf1MHVnXt8W3IglQrZEhmREQEgoODERISIpz5dXx8vBAGmYdCNjExEa75Rql8TUhWJgOHJjh4uhGbo2SziYDnZxEWUhTF3RJIRX/xw83rHxGqrkgyK5zPtavQ+pqg9ARfX4qa9YbCqP0ijJzVEZKPt7Fp5ghU3O6DO68XoTgbWHiAN65cd0SU+iBlX/Hk6jVYJ/rDBb+8iatf1NdJ+WBGu2l4ElkAr0K50gw8X9cIbv2eoc+0aewzn599piQIv7UaHdbewYgY9cbTex2OM0uuILbUcNRy/F4bhdGmqxFmTluHG8Htkgf3+F4VyicCRIAIEAEikEMJkIKTQydO48WWheLowr74430LHF3QHvrsZVj5PmxQ6Rf0KDgee3bcQwRTcESiGIi0RuLUy96wCYmBTMSCEnw4gAGtVyGO2xhlN9G1pBf+V3ounkaNgVui+03MrXnYsva+Spnh5h6boguw92gTGIXFcrsQAq+swOR1wUlKEMvTlnzC9kkzIJkxn7k0KfD6jjpNEaxKdcHmdR9Qo+tmNJmyEP0rG2HzjL7YE5tmhAH1RtK+dq+PoQVG4sjxq4iu3Zg5In2bIs/ux36RDUY1KYb/shtOZGQkYmJiEM02E+VHQEAAHjx4oDp8fX0RHh4uHAp1hYCJxKODCeug2JkrOTKZSpVUCcz3fjE0NISLi4tgmShWrBj4we91dHSEvWH4WV9fX2hPVTE9F+wDxOURkjwcb576I+jNdYwfvgcekzahV8HERv9V74rEk5svoN9rPy4u8kqsVAdNq1vD2KEHdlych+LVEn41/ltTCc+TSj38fTSWlGmGKudvI05Qqz9i39jjsOx5CqvH10nsiylPOIn4VW9U9+m+ELp+gzt+TOOqbK/aYym19lyLdYAidise+4MUnNQAUR4RIAJEgAjkGgKk4OSaqdSwgUgMUMTBHndmzMTyX+pidFmLJAGDvXEjiNkuvBKtE+zFWiS2gYd9IeRXrqEwLwBt/kLN32ef3MQ2Zrj5bcYolXLDG7uyh72saZkzF7SkpvUMC6C4Y2GV1cPyQ35IZF9UBUQiGd5e2ISlXzyxdEoFls/c4JLeT4VyEU+PolPnGXAbdxhL+1RnRcJhb2mYIWtwEgRxQ9eFTInqNxxrvSpgUBU1NrzAp5P4deAcmDdegZ6eyRz3Eqr/y/8vXryAj48Pbt26hSdPnuDly5fgikxQEIPOkp2dHWxsbGBrayvs3cIVFAMDg2QHV0h4Hj9zpYJbdriypDzza64Y8Xt+fPjwAY8ePcKpU6fw7t07xMXFCYpPwYIF4ezsDA8PD3h6eqJQoUIozNaFSKX/8VdP9EPM7zoYF1gghoeB+dDdXIZA5s2VTwipzT8QWtDX5h+exMQ+j0mx/PRRadBSXBEeyRDGuHwJeg9fb38UYgpwPDuUScHUy2QrpZjL43cl99+NIZt0sPPUEBx38mLtcDkMYVtAG6EvHzKXzDqwTmxYT3B5VPbyX89JFsu0W+LWKzGzRqZdip4SASJABIgAEcjpBL77tzqnD4zkz24CEji3H47fj/+DAQ1aAX/ORuvKtvjqfRJ/jB2J8w6/4sDEqoKQwvuWQs5eCNWSELGMvWjyTI+K6GwHbB01BU3X94aT7Dn2zR+H9W+04BwTizeR3M8nYTmZQiFj35wnpXhZgkuSMkcUK4f30UsYvnILypjzjz9zS1M+FK4isW/2IDzN1wEnOlVLeMKsF9xNLSNT4WZzsfLZMAzpVB3nOg/AiF+awlYnFPdPbMX82avgU24mjq3vq3ohTqtvbnm5ePEizp07h7NnzwoKzevXrwVXsgoVKgiKRdeuXQVFw9zcHGZmZiqXM21tQSNIq/kfesatO1+/flW5tfHrt2/f4hmL5MWVrQ0bNmD27NmCYuXk5IQqVaoIe8fUrl1bUKR+qBP1QnrlMPvsGcTFhMLv7AZ07tYNTUUncXNoGaaQ6sBA/yh6V68BMxaGj1vyJArGNlqBlqo2PuH44smYueMqPgVGQNe6IDzLmoJ/kpSWRjDbmlS0Bi3qnIEB+xzxdsTxQXikq42aqnYSLkQsFMTOOX8jf58RaGorwl72sdPla7pYeIiW21fin0ajULHiURQxVSAyJg5xn1/AyNA1RSvpvTWDoym3eoYijDVh8p1mgj49YYMzRn7z7xSgbCJABIgAESACuYQAKTi5ZCI1chjMxar/hrsot20BJk5sgTEvQmDlUhkdBm7Ew37NUSAxmJOM7UUjZ+5fyVQIRTyimZVA0HPEZbDh2mkM69obTYvMgX7R2hjA9va4XD8av1ZrjscvPgButohnb6dRUcndqOSyOOaaFaP61jqOrbA2c22MHk3Kq76Jl8fHsXoxUEi1EHFiLLpsCcbo/eNQylKp+igQFxuNKHkyFUwNObMCxccikrUhSzaIpCJctmi2Mlz1WGqJJmPWokzdY5i/dBnaFx2Ed/pGKFetA3puuo6OlQvBSDftGCAXLlzA4sWLwc98rQxXMtzc3NC5c2e0adMGrq6u0NLSEiww3GKSmWtmuJXH0tJSOJJGzfTTRNc2fuaWnb1792L//v2YP38+Fi5cKMhXvnx5DBs2DK1bt1av+s11yJ3NGL7tGQaNmoXS+aUwMDIC2FG67SCM2/Enuoz9By+ZgiMVxSM22h1tBw9GUSmzWLA1L7pyHyy8fIdd82bDcGT4L2izOgYzD21B56KO0DXUg0n0adRftUtQSxI6j2OfmwroNroL7CPjmOukFFoRNzC7xxI1l0euECnw8dVu/P1GgtGTyjM16FYy2Q0Ld8f2a54Y07weDkR7YeqgRtB+yFzqtn5KVi5dN8IHKh9qdHeCYtT/8CC6N6qm5vPInOIubL8LLfsxKOuYrp6oEhEgAkSACBCBnEOAvfgopk2bxr4EpkQEsoEAW72vSurXqswfvFCvq379g9VzQjHm9qVglhHFzp07FSwSF3+1VTBrjKJBgwaK1atXK5ibWE4YhiAjH8vu3bsVTBlT5MuXT8GUL4WVlZWCKWwKtk5IwdYLfTOWsNd/K2oZ2iqG7H2giEv2NEix3staITaaqXjH8l8dGKSwQgfFxXj1QncVXXVFip7HIhWK0PsKr9ImimoLr6oXUCiuzWVMRYqxFxIqXptdkt1PUrxQLxV2VNFYrK+Yeych89Qg1m+79YrlYxoqfpl/XREjZF9TdJdYKvpd+JxYU644PNRdgaItFDcCE7JCT4xVoEAlxcnXiUVSnt7vUnjCWNFp8+OUT4T7JyvzK0TaXRTXlSCCjika6ENRfm6KMSXW/nR6psJGqq3o9M+bVNv70cwpU6Yo2LorxZs3/62dH+2PyhGBjCTw6tUr4ffmgQMHMrJZaiuHEpAnuGYoxo4dm0NHQGKnRqBly5bCz3naXxHnHD2NJM2pBJRGEi6/+vXPjke9rvr1z7ajgeX5WperV69iwoQJKgsNj2K2fPlywf3r+PHj6NOnD5iioIHSpy4Styi1bdsWW7Zsgb+/v3Dm7nTKMQ4YMEBwt/v8OSlCmaFNUwwe6Yo1I3/DrrOP8Ck4FF8D/XF6+USMPy1F643tYcO6S7DhyZMHRWDWLf4bT0iGJnC3McGL0+fw6N0XhIcEsQhrOzFk0Xphkb4va1eZuINbMpug4KqmfMrOEh3IH83DtpuWGNHXk23N+W0KPTcR/Ze8Rv+Ji1A+cRGOjEX3y9Bk0RBrdo9F9IpO+GXqDlx/EYCQ0FB8ef8Sl3bPQesuq2DXZwuWtbbP0G6pMSJABIgAESACmkiAXNQ0cVZIJiKQSODKlSuYO3cujh07Br5+pkePHmjatCnKlCkjBADIDaB4lLVffvlFOO7cuQOusG3fvh3r169HpUqVMGTIEHTo0AGQ6qLZiPVYr/U7No/rgRnMHdGI7a+kZ+WIwav+xpBWCWtaZLER+MpcspI7FMoQwdbgaLE1WBA5YtzseXjfbzqaV9kGKwdHOBdxQ4OBS2FypSGWX3wINKuG+KgQpt5EqbmsMdqKWITJIxGdqPXExbDoF48iUWPpKpRWRSOIRwQLJy1XsF+vwWfRtvVsBDdfgGkdnFTTpWBumWCKlNpWPapnwoU8FqHsX3hsMvVKVUYW85WJEp5M+XJoMgfHd5XEoqXbMbrH7wiPFEPElDlLKzs0mLEZ/brXYjtKUSICRIAIEAEikPsJkIKT++eYRphDCfAX+2XLlsHBwQEbN25Eo0aNwC03/zkCmQbz4IpbqVKl0L9/f9y/fx+D2Tqajh07YteuXVi6dCljURAdxixDw18/42tELNvzSBsGJqYwN2FhqBPH5dxkAfz8ZbDSUo+iVgp/vfYHLBMWfpmUbIuVx2vhy9cIxIu1YWRmAQsjHUTc9kc/iZXQUvmRV+HfSw+26ryMG2Kv/2vo5E/IrDn7CfzHSWFlr75bUTms9H8FUT62RkhSHuvuvILUzBYJrSbUM6k7A/6PY2D9PaNbvlY4+6omtCxTL1C4ly/8W+mCLUVKlmwrdsCckk3wNfgrImJYAA2pDowYHzMW/S2XGTaTjZtuiAARIAJEgAioE0jx51H9EV0TgdxLgC/Knz59Oho3boy6detq1EAPHz6Mnj17ClHJunfvjiVLlgiKjUYJmYnC8P13eKS3GjVq4Pbt2/jjjz8wa9Ys8JDTK1asAGdiam2L7wXQluqZwf6bhfTasGCWmqQkgr6JlXAk5QEGzBqkVFW0jfPD0Vj9KbsW68HK0UGVqWtmB8dv9mrVgYWj0hXMEPYFVKYdVT2xrikck2lOqkcJFxJ95FdG4UjxiN9qGbJ+v21WKCnVM4IVP1KpR1lEgAgQASJABPICAeWXnnlhrDRGIqAiwNe1cOsIf4HWlMQWwArWCi8vL2GvGu6WxsMrc6tNXk08Chxfl3Pt2jVBGe3duzdq1qwJb2/vvIqExk0EiAARIAJEgAj8CwFScP4FED3OnQR4yGQWDUoIoawJI3z69CmaNWuGI0eOCMEDzp8/r3GWpezkVKJECSG8NF+bw/fXadKkibCpKJeJRVHJTtGobyJABIgAESACREDDCJCCo2ETQuLkPQLcilSrVi34+fkJL/F8/Ulettqk9Qng63G48mdhYSFEYdu3b1+m7u+TlizKZ1zBYmGT2V5KUcosOhMBIkAEiAARIALZSIAUnGyET10TgUuXLqFevXr48uWL8OJeu3ZtgvIvBAoUKCC4Frq7uwubmh46dOhfamTu45iYGDg6OuLgwYOZ2xG1TgSIABEgAkSACPwQAVJwfggTFSICGU/g5s2bYBtSwcjICA8ePEDZsmUzvpNc2iKPJMf3BuLrcfh+OqdOncqlI6VhEQEiQASIABEgAj9LgBScnyVG5YlABhBgOygLUdz09PSEl/PChQtnQKt5r4k9e/agevXq6NatG9Q3Bc17JGjERIAIEAEikB4CsbGx6alGdTScACk4Gj5BJF7uJMD3deEbWs6ePRuFChXKnYPMglHxQBFTpkzBx48fMWbMGKFHCjqQBeCpCyJABIhADifAgw2tXLlS2GQ6hw+FxE+FACk4qUChLCKQmQQiIiLQpUsXVKxYUXCvysy+8kLbVapUwYABA4TNUE+cOJHtQQfyAnMaIxEgAkQgNxDo27cv+AbTlHIfAVJwct+c0og0nAD/haqvr4958+ZBR0dHw6XNGeLNnTtXYDp69GjExcXlDKFJSiJABIiAhhOQx4Yi4OVLFuXzJV6yc8LhB/837xAUkvMjR3IrDqXcSUCaO4dFoyICmkkgPj4efN1Iq1atBAuOZkqZ86Tia5lWrFgBvhEoj0zHw25TIgJEgAgQgf9GINR7Ncp7jsZHcxvYGWglNiaCllgCSYEK+G3cNPRqWAjKJ/+tN6pNBDKOACk4GceSWiIC/0rg7t274AEGKleu/K9lqcDPEWjatCmio6OF/YRIwfk5dlSaCBABIpAaAZFEB3piJ4xctRP9PPPznZWZG7AC8RFB+N/8nujfzguWDx+jjWNqtSmPCGQfAXJRyz721HMeJODt7Q0esaVatWp5cPSZO2S+Oaq5uTmePn2auR1R60SACBCBPERAIdaGhY0DnNgeZE5OTihQwBkFPcpjwO+zUCXsCWYeeJQ+GoqkaspL5Zk/Ub9OKpnySr2U+nVSuWSBZ1IvklSYrnINAVJwcs1U0kByAoF79+4JYpYoUSIniJvjZCxXrhyePXuG8PDwHCc7CUwEiAAR0FQCzHDzbTI0hgXLjfn0VXimCPbBlgnd4WbLXNgMrFGz20I8/BShqvdwXVNm/emBm8oc0RdscTGFaMIFKFfCiAL2CIFifj0WpcqLC7yH5YNawsFcBF0zJzQdshGvI5VrLUXw31qU1WmAk5HKVngH9zCAra+pf/iD0N6T5Ubs/AfeqhUJOTUKuiIj9Nr5PFEiOb6+uoJpnarCQl8KkUNR9Jm+C345f6mRknieOpOLWp6abhpsdhN48eIFLC0ts1uMXNs/D9pw+/ZtfPjwAa6urrl2nLlyYHEReHT3Cp4HJFdOFcylU9c0P+wdXOFeOB+0c+XgaVBEQHMJKERiaOvqpRBQgbf7d+MEzDCscTkg9Ab6V2uG/9l1wZx9z1HF+B22Th2GCtXv4fCVTahlJoJYqgt99hOc9M26CFIWcAfakqS2RRIw3QI6yqzXB9CyTEf41h6P1WcXwkPxCMtHDEKxGvdw/uJilNYFRFI9pgzpQKKmvID1og1d6CZmirX0IdHVUilNiPfGuKELEGPtCL3EMtEvN6NFuSGIazENh+7uhEXQGSyfPBb1b/jhyD9jUZj1RSnnECAFJ+fMFUmaCwhIJBIEBQUhJiaGIqhlwnzy/XA4Y4qMkwlwM7vJyPf4a2IHLD0ZAkMTfdWLCPP4h7Y8FHEmlfDLwHGYNqIZrGlFc2bPBrVPBBIIMCuITtxLbJrUB3fyMWVEWIMjQmyYP84dv4PSvVdiXEVd3Fq8HLvErXD38Hw4CW+WhTBu1zHIy9jg19/7w3duJdXP9I+h5dpKBA7NmYsTHpPwefc4GAkVnTH/dCHIXNwxbFUfnB/m8WPNJSslw4Wh3XChwgL8+nYOouO5yhWLQ0NG4abnbLxfPwgmvLxbVyzbVwzty9XDhoNtMbNdQSj1rmTN0Y1GEiAFRyOnhYTK7QS4lYECDWT8LPv7+8PGxgZ8A1BKOY2AmH1ry140mk/Dwz+7Q0v1dSx70ZHH4fKiNmg3bhzyexTFhOYuoD9eOW1+Sd4cSYC5pinYa702c0czNTZkQ1BAIZfA2LU8uo1fA89iBWEc/xnnHjyHadEW+Pr4AcIEEw23zujA2dMAbzdcxAem4CRZbn6ABFOsIA/E7vsBKFbZBe+fPMQrGfeTY+3qSVCoPLBn502EMAVHLKzW0YJhMiOTEbPpfJu42qR4ugndrpTCmkvtcKn1NLxmViPgEU6c/AyjcQUQ/OIJXkfHC5XlsVGwcjSEz2M/xCgKQp83QClHEKC/ETlimkjI3EaAFJyMn1FuFeOuaU5OThCLf+pPacYLQy2mjwB39NczZkqqLfNaSf4m0XzKSnTbXQ6H/3cSQxv2hSn3VVPIwUOvy+Q8spMYEqkUEnFSPYVcxvZFkkGircXcVxLyFQqWF8vytFiesixrJ5btnySSarPwt2r1ZfGIZy5yctY+64CVZ+1LxewVi0WRYuV5v6klkUgKbaXbzb/IyN7iEBcTx/5PJbExSbVYn1x2JncsH4uWdgpXnFTqpcxSl4GF95UyTmrDZKUVkMtkkMnYWPkccJbMEirlCqd6kscjhsnwTWLyaTG51Nvk7PncJCBi7KQsrDC3rvLKrJ3oeLlQR32aFYx3XJwCUuZKlKLnb7qkjKwioECc1BFtf5uFkVVYFLXUUlg4voYE4tWecSi/e2KyEuyjBGNzX3xkuXpJP1rJynz3JvgDwuKjcXdBJ3gsSl5ZJNaFaxl/BLPKEhFzTxPvRYXEn3FVewbmaK+6SbiQIhwbJm5D3V8Xoa6BGGf4Dx77mUDgK2xlilzsjJYoODN5JRn72Wjq+Zp9nlk+WY+Tw9HgO/odosGTQ6LlXgJXrlzJvYPLppFduHBB6Jnc07JpAjK5W6nUCc4sNse7r+EQ3rEjA3BmzQQ0rOgMSwsTOHmUxC9jt+Dpl1iVJB/Pz4CZrjuW3QhMyru5Ah66Jph+NikPz7fDSV8XjTcGqMpFBNzA0iGtUL5sETiaGME6nx0qtByBf+58BuLeYkyX6jAxMYOFuYVgMeRWQ1NzS1hYmKFEhS1gpYCoTzizbipaVnFGPj1L2DqWRttJG/HsU5KMiDqDxqyurq4hLNj6PAsLC+EwM2J5RmWx+tZH4fvp0NsLkU+/CJY/DFPJ+EMX8cG4smUMqno4wcjcBNYl62DmrluIUClncoQ8O41p3Zuiahk3mJpYwMqqMOr2mo4z/sn7ijrWUxirMRunpSCnJUz0mJzWbtjlkyRN+NvbWDq6M2qXtYe1lTlMjZxQud1gHLz9XlDkIk+Nhp5OAcy+xV9PlSkGt2Z2gI5ec5yKSvj2XPmEztlNgCnATNH/btIxgJm+KTwnHBGUWq7YKo+49y9x33sBeFgdprv+XDK2gpFChKbrfFXtKduNef0YZ46MRAHWolwRy+RrgM0P3+CV73M892Ebkr49jO4R0YhO0ePrJwexV1EEgzox1zalPEwZRz5ndI6NR53tgd/0FR30EuvHd4ERKTcpaGr2LSk4mj0/JF0uI8DDVfJQxsePHwffE4dSxhDgUdPGjh0LQ0PDtP8QZ0x31Eo2EJBofcUn9hJtZWwJXb0onJrcEi0G/A3nDktw6sIt7Fg4CDg1HHV6LMCL8AQrg1hLD6ZMmdFVs0SI2EJnEz0z6GmpfSPM9vowNQMMdRL/JH65iRGta+P3x84YMX8rzty6gf/tWI7KkdvRrnkn3IhwwJjZ63Dt6lVcungBYxoChev3w5Gz13H50lXs3V6fRZcKw75JnVFn4G7kaz8HR+9cwaH1w6C1pycqtJuIJ8pYCiLmWsN4FujzF67c4vUvs+MKTv4zCyWZpUWaaOLgcpuZ8bGoyf2v8xCP53sXofHAPSj925+4fPk0lrQzx8IBbbDppqCCIerdBQxr+gv2R5fCuD/34ua1izi8dRSsbk1H8xYbhG/eld3IpExSrf7Yf+cWrjI5r1y7jQOz6gC6BknrxGUvMb95I0y9qI9f5x/G+QvXcPLgHHgGn0Tnfr/jGRu3SMrWcpiYQk+afCxSPUO29sGQ3A+VwHPKWdsIlUu74eG2zbiTFDQNkD1G73IF0GD6RWEkCbPNrIOqcTHrJL/mFhRlYpY+IXFLotQWLcra4PDCFXitfM7PERfR2sMF3Vc9EHJ5uwrmkOZY2B4FXAqhkKsznO2cWfgDZpEUSvD/RJDF+mLr+rUoySzAxczUHJi4ggM31KhtiTPLVuGdqg67eH0E9cqUwdwTPkjFdqlekq41jIDaDGuYZCQOEciFBLip29nZWYj0NXXqVOzcuRN6eskch3PhqDN/SPPnzwcPwd2yZUu8fp3sT2Hmd049ZCAB9lKjzV+Wk7/4QvYJWyd2xp8vHTBhcR0YPdqIdktuouzsS1gzqkpC/2WKwaOAEbwaDMPGk+0xvaVLOuWS4fnlEzh9twr+8JuLzraJP5/FSqGi1jksr78Rl/0Az9JFYS30oMAVU/aOL7JB8dIesEr8ljf43l+Yvf4EWszzxtohiWHhSxVnaxa0ULfArxi+uSuODSimklEvvxtKuCUtmA4zfgwj5jKm/JJZVfAnLhTRobh09h+4dhqN2X1bwoy9O5ayCsPfWxvhn0s+GFDBHP6X92CvaRXs+2Mqajsnrl0rVRpmvjuw57cTuB81BHUTEXwIOAmJfABKubnBJlEO6/ts6bf8vUqqyPNrsPuLHkZsXY5uVZW/24rDNdYP+70u4EloLJzF7LWTTzH3X8qGZGTEZKb0YwS4ovGvSQeVe/yGHuuboE6NHpj7x3DUNXuDlaMGY21YCxyYwr4BYIkHDBHjK/xe+sAwnrkiGocgIIZZ6768wnt/S4TGSWAa+CbRrZH3a4DWk2fAy6M1yteJw5JZfVFGfhez+g3CftNeuDS0QmK7Ca0zD0c1FzLmHik8Vf7HfjDl23HqyTDsn1tcTcniz3lJPbTbtBI7irVFPa8oLJreA/k+HsMfw8fjud1ALK/nQYq3EmUOOZOCk0MmisTMHQS4BYcrNN26dcOuXbvAXdXq1KmTOwaXTaO4yr5FX7ZsGfgeOFWqVIGvr282SULd/mcCuuzFc0svSLb1TtEUc5Fhlg7PwWsxspE9Hiz6HV9F+ujTIVG5SSxt6VIdFUqKcOzqbUzxSq+CwxYwNx2PZ1ET2FquOHz9HAA/79vMWnMG+3ZthFhbm63LSRKPrzURbtnPNtNHElMMXpy7gedf62NGNzdlpnCWOHqhU/3umL3lJN4xBYdtGZKQ2DoZ9cRdglK+WvIXRNFPrC8T6Zqjx58P0J2tTUhYHyPDg9NHcNXXEgOKFWDdieHWZgm+thFDLI9C2KfnuHvnIe5eOoSda26x/mswd50kqeJDvkDcln8znpRSrkPSrzULD/1mQ8zGE/fRFzdePMWjs8exf8s2BMBTWOcjsXWBe3A4Pn/4whrKOmVD6b5at27dpAHQVaoE+OfPs2JlXFzfTbCKp/wsflPJtAKW336AegumY3znEuj32RSV2vyGaw9Ho4J14odcoQNdnW1oVXBX8uqLO8J2cfIslQelTTPsf/sUm6ePx9jGReAflx+Nu07Ho7kD4cFNnzyxzxoLfZBwrfY/+63Bg74JSdjsUxSFjpMmwpUp+sokZ3WVfWnbt8E/vg+wYvQQdKw4G1/0C6Btr6W4NrM7nCg+vRJZjjmTgpNjpooEzS0EYmNjsWLFCpw7dw5TpkxBoUKF4OjomFuGl6Xj4GGhuSUsMjJSUBi3bNmSpf1TZxlMQBYHuFRDz/pFEl/ImdIQr4OCpaqhVsOGqOhiLHR4/SUrF++AndOG4LIWW+yf+BIjkUfj1rNY3DHwT6aE/KyUInkILq4Yg87T1yIoxgRGhvqwdimLKkUr4dRz1TaF329WEY8vwaGIN/DF6uFDcJAFJlC+fokluvD/DIRH70Ng2G+w/dEXJ2btMAi6g77FTTCImz+Y0mJTpCoatOmO3/q2RhFr5vaVSuIKEX+9jDjaG4ZN1gklSnVehgHVbBNKs/Dc+xcMx4i5BxCkbQhu3cjHxlqknCmuHVFvUIan1+KhV9CK7S6SRooPx5WNE/HrxDXwjdCDlYkeDEyLoXyx4jB8xpx8WIABqUtdtCnfD/8s2YI2bn3hYipFbPQHPA8MYmsmkkKEp9HLf3rEFRwnJydyZ02DIvc2KFjQBdpF+rDoZX3SKKn2SNsGXuNWCodarurSo/tWfGLHjyb+MyOoRgYu6Pr7TuH4pi7TYBw73oGiI3+iqsEuS2CJIkYozpUb935voeiXUFtVilld554MTchM/F/PohhGrDvDDvVsVQ31TLrWcAKk4Gj4BJF4uY8A/2WrzzY3W7t2LerXr4927dph9erVKFmyZO4bbCaOyM/PD/369cP169dx4sQJuLi4sG+H2QsUpZxLII4tCa7UGWtWpv1CpWfEzQpiFkqaRVETvr1NGLJMrI2yDTuiRGVPMJ0inUmGexsnoMmYg+iwdB/GNKoKJzvzBPeUS0Ox+u8b/94uUz50eEQ2ttWglkiezHdfLouAQ4WhqFDQDdY8ji1/d/qRxH5vRBsWxOi/1qCNiz6zFskR8OgoVk4egDq3InD/QD9YptGOdqnBbG1PD3y4dxgTps5G3x1VcLBXCVzbOAzd5tzB8OVH0ZVt2FjQJkGJfLqiBnYnU3Be48rRMDTcmNwilbLLwINs3VGfw2jzx3Hs7eQJDzvmv8dS4OEZuL7nNBuuHCKJEwYsWoO73cejabXNcHZwglgrEB9fPkcMWqZsMsPuhW/xWWujRo0CWXEyDGumNSQoN//WOvtZS0pq1+qXycokKk1JlX7gSq2xHyhNRTSDACk4mjEPJEUeJMD/wP7111/o3bs3WrVqheXLl6NRo0Z5kMTPD/n+/fto06YNfHx8BG7VqlVjrgg8VDD9Ifp5mppUg81ffAximUnmm3U4amIWLV2RvaU8Qte5y9HcXO1BhlyG4iJbPB9efTAW/to8mQPVs1vnmF71I5qTLmzcraEjd0T/pWtQK3XjSoK0KcM8fXcMzJrFAia4lqmE8m6JNpRKlVAIr1Cp92acC+yLNvmSf/5jw32xedo22Hbph0YlSqAyN9pUccfnc0fRZ9sphPQqhrsX/4Gd11QM7lYblqo3ggg8vhTKFDPlGhpWz+88/g6vgXnV01KjgMsHD0Fi1xPjR9WHh2osMgS888cbppQyJzvhDdOmSg9sPV8RDx++QnCcFqydLBG0Yw46zIr/YZ1P1fxPXnCLLyUiQARyN4Ef+U2duwnQ6IhANhL49ddfhWhqL1++RKdOnbB+/fpslCZndM3XLXHlkCs3ixYtwsCBA3OG4CRlhhGwaDMB3XV9MbLvqmRRvmLfn0OHKrZos/QGs+wkdseUXjHbf0WZ+N4uXA0QS1Rv8yxaE/tTqNINpLAxYvuY37iF++pRkp9tRYepjyFi0ddSxkBQtp10FqNw9Tao6nAVHZjyoR5YCtEX0dXJEE1/+zshlDTf54ZVVKQVhjep4RRX4fC79xqRxm5wtFINQFVGrNDD8zszMXz+LoQpeYQF4RFTNkSOViximQgmZjZ45vMGn1QFgE9X1mDaiXusHbZvjdCsjFl6NuFVs9ZobqVqXrhIiPLGmCQiNs8vQhSLcnXfN6mcPPAs5kxbhzimMKnvlWNqWwRV6zdC0yZ14VnUAzbG7HmmqzdJctEVESACuZeA2m/43DtIGhkR0GQCpUqVYpvbxaFFixbo1asX+KL5uXPnspCwZrRhpdrEBQcHY9u2bZg4caKwT8GRI0fQuHFjtRJ0mbMJMOcl5m6mWvGb1mBEnlh1aRGq1x0C98Lb0b5xBRh+9cXfh/ch1KUHdrcqKigh/J1eK+oFti+YDJ/8Bux1XoGIwDt4HRuGQ4snI2gfM62wXczlwU/xNoiFehaUACPUbN8GNfcPQFXnMujaqT5MvtzGrrMRGLp0Dsy6jcMBH38ML1NAJaEgdkKoAVUerCtj7brpaNq6H0xcl6Nno4bQibqNI5tPI8SmClb0rYVX+//CpHULsEfPFJ0qFk2qy6+YRTJloAFpkA92zh2DFxa6zEUtCPdOHMeFRyFovWI+PFP5ulJqZIWegyfgf52HoMDDE2hfyxUvT67F6ZclsXqpF+tEjOrtx6LcpqEoW+EFOjUrD72AW9jzUITRI/ti5LjVePQUsH04jCmNV+Fc3h5TRrENDxNXZYskWmzn+sdAaCD+WrsNZUf/gpq/rkXlRf3RtXJxHGndGOYx97F/lzdqjhyPcn+twyPfSLR2TC2wAFsmzpS8xJANyVnQHREgAkTgJwmQgvOTwKg4EcgMAnxn8QMHDmD8+PFYvHgxTp8+jdGjR6NLly4wMDDIjC5zTJt8Y7dbt24J+9ycP39eWLM0e/ZstgC2ILml5ZhZ/AFB2V4aZeu0QxM992Tf8qdek+16UXoYrj6pjk1rNuCE93MEMnewYX+eRIeWdZGfr21hSde6GNp61YUfW8Du+zLBhCESW6Bu++aQxXzACyGP5bMIbQ1btkAl5wSXLMsKvXHoWGGsXL8al1/4Qr9MO/xvQW+UyvcOtke88VIcJagzXKfgbpHu1ZqgKUpCL4WSYVZ1KC7fr4oNW/7GufN38N6iAPquOISO3evBURqBC6cD8AUVMG5Zf0xtaiHIrPxPy9gZDTs1RWFzXcG4JDVzR2s2Fp/QN/AJ4aXEsK3YE+tX90DnKi7KainOWnBvMQXnb9XB2o0rcPn5G9g3noYzffqghktCCCqHmkNw9IYLVi7eCe+XL2BeeRAurGkNV8VNPHgSBnH4K7bXzznE2lRGZdNoPPV9kWTsYgqjSK80Wld9hj0H9uHlgFZwKNQTp/1csWLhRlx55g9ZxVbY53MMZS39sTDKF1IWgCH1JIF5sSro0DgG+f/dRJZ6E5RLBIgAEVASYC9WimnTpjH3dUpEIO8QePv2rYJtCqmYN29elg66Xr16ivLly3+3T2bJUdy8eVPRtGlT/jYmnC9duvTd8rn9wbt37xRdu3ZVaGtrK5ilS7F582ZFVFRUqsNm33YrJk+erChRooSC18uqxOXhc8X2NMqqLrOtHxb1T6Grq6t48+ZNtsmQ2R3LM7uDxPazqp//PJy4L4p5naorui668d2mwu7+pSjp1kJx/l3qP5vfrZjFD169eiX8rLIvk7K4Z+qOCBCBrCLA9sMTfs5TfN+kVHvoTASIQHYQ4JYcvp8L3wCUu2PxzSurVq2KIUOGgC+szyvpy5cvYMqnsK/NwYMHMWPGDLYL+2V07twZ7AU7r2CgcWYDgW9XsmSOEFnVz3+Wnm36ExcdgdCwcETz14ZvkgLh4eEIjYj6T6G5v2mWMogAESAC/4EAKTj/AR5VJQKZRYC7pfGgA8yag549e2LNmjXga3V4WGn+ws9fKHJTSGS+1oCvQ/L29kbfvn2RL18+TJo0CWXLlsWTJ08Edz0eWpuipGXWJ47aJQLfIaBrgXF7bmHfpFrQTVUrEyF/1d/w8s1x1LajLx++Q5GyiQARyGICtAYni4FTd0TgZwjkz58f69atw5gxY4SNLLdv3w4vLy9hc1C+f0779u1hY2MDS8u0Q7f+TJ9ZWZYrasydTNjHZteuXcJaGz5mPl4+tuLFi2elONQXESACRIAI/CSB+LA3uHPzAd5HSWFbqBTKFbZWW6cFhLx5hEcv3uJzSBS0jK3gVKgo3BxM1crEwvfa//DoIws0wfoW9GgW/MPI2g6l2Rd7polr6mKD3+Dx4yd4+zmSlTOBfZHCKOJiB132VX3sB2+cfRyC8tWqw1wrYQDy+FA8unwbWgU94WZvAPnn5zj76CsqVK4Ao8S333i20e2di49gXLIS3IRAJD85eCqusQRIwdHYqSHBiEASgcKFCwsWjf79++PGjRuCC9vKlSuFaGuenp6oXLmyYO0oU6YM3NzS3ogvqdXsuQoMDBRCY1+7dg085DN3wwsLC0OzZs2wceNG8D1tbG0Td1nPHhGpVyJABIgAEfgBAooPZzGiywhci7ODk3UMfJ5FoNpva7CguwfbHDcGDzfPwtB5p2FUqhBMZGEIev0CL0IdMHDtVgzxTNgEFviKDcObY5WkFRoVYBECmZYT/vIijgQXwfkz/0NVGyDiwXb0Gb4MwSZ2MNPTRdiHl8xqGInmY9Zjco8yCD07CQ27X8fpgEDUTvy+LzbcBzPaNIXlzFtY0rcIom+tRr3up3H76T2UYZHgeXrw93BU6L4Hg7fdw6KOHj8QAj6hHv2v+QRIwdH8OSIJiYCKALfU8NDINWvWxMePH4XIa8ePH8fChQuFiGLm5uZwdXUVXNl42Gnu4qUJ6fnz5+Bhnfft2yfsXxMUFCSEwK1Tpw5GjBiBjh07wsLCIs9HjNOEuSIZiAARIAI/SuDS6qk4FlATO67/gZIs6vrdBdVQcdwwdGx7AhWjL2Py7N9hMuQhtvVyYHH/ABkL0b6mqzUWjtqG9ucHIp/QkRgSaxM06bMUmxpYIUYmwZt9g3Fsun+iwvEVu//4HQ91emPP1t5wYJEL42O+4uryfui0YiXat14DW6keJEaGyRQUtjsT9IyMoKuVsPeVSKoDQ0ODpCiNXy9h4YRDkOoUh640Vf/LH8VA5TSQACk4GjgpJBIR+DcCfD2Kk5MThg4dKhx8DcvRo0cFBYKfZ86cKRwStvte6dKlhfU7JUuWBD+KFSsGU1PTNEMsp7XWhUVC+UY8ZV5sbCzbmfyhYJXhlpm7d+8KB4s0JtTha2tYhBPBWsOVND4OSkSACBABIpAzCVSbch7PpyTJXrRUZchDt+HZG6Cie23sfRqT8JD93RDcz3R00bx5c8yc9x6RqmqR0I3SQ9UCdnxvWejwQyoRyicUMUOPLd7oIdywdlhD2tqWKFqtFqy2nkcYizwu0tKDKJW/TaouUrk4ObM1LjVbgf7vNrG91b79u5ZKFcrKQQRIwclBk0WiEoHvERCLxWChpYWDl+FKBrfsXL9+Hb6+vsK+Ovv370dISIiwmF9PT09wZStSpIhgNTE2NoYR+6ZLebAQ2qprLS0thIaGCm5kfM0MdydT3vNrfrx+/RqPHj0Cj37GZTExMYGyzYYNGwqR4bh8LITz94ZA+USACBABIpAjCcgR8c4fL32fYsPshXAq9QdqJnpKyyM+4on3fTx49hiPX7zH+1cPcO3SGRhZqXkXyF7h7XltOKW15Zs8Ei8f3sM970d4/eolnr96De9rp/HYsB7ETDmxKN0QZeP3YvvhuyjbzgOi2Ai883uBoHAxrFIYZ8Q6DPKdacxNjlmenjfD3q5rEJcjuZPQaREgBSctOvSMCKRBgFst0rJ0pFE10x9xKw0/lIkrNgEBAcKCfn5m+wAJSsmHDx/w+fNnREdHg1tZ1A9lHo/WxhUi9YOHala/d3Z2Ro0aNeDo6Ag7OzvhsLe3F9zOlDLQmQgQASJABHIPAcEiIwxHgbeXD2H+X/tw5wlg094FplypiPDBvP5dsfiaHHVqesLCOh8qtp2CNqVk6LZJTaXweYSzBuXQ67tLLyNxaUEv9F98AzbV68Dd2goFK7VFw9quGDX3MYsoGgsUaINFv5/EwNmd0GCbM+wszBAV5o+bn/RRnPvGKZNYCr3ITxg7fBvKb7mAimbB2CHn2+ZSym0ESMHJbTNK48kyAqdOnRIW/POIX3z/Gk1O3KLCDw8PD5WYXEGLjIwUwk3Hx8erzvxa/Z6X4+Pj7m78nPKa3+vo6Gg8A9XA6YIIEAEiQAT+MwERfLBq2BKEt5mOkW0HYHXTPgh9tQltPQZjSqcGmPhxGqZvicbv9y5hUMkk88z1aZegEFVS9e9/cz/eVugCN21VVtIFc1fDx6MYMX4njObdwolhSZaft4fv4ANXTgQLjRSV+q3AwZqP8PJDMCQGFjDWCcSMB90RJ1M2J2J/p2JwZ91UXHQZgWNN8jMlzFctmpuyHJ1zAwHNfivLDYRpDLmWQL169YT1L7NmzRLWu/D1MFwJyCmJW5/4fjuUiAARIAJEgAj8PIH8ED/5E4uXeaJv1a4w0pNC190dVgjBu8BwxChCIGOLaizyqf2dCfwbk6eGQ6dsOOLY2hlIP+Hg0pNoNnEP1EqpvCPYnymWRJDHS2FskRj6TBA0BJuXz0AoOjAFhmk5QtKBvXsZdiTcxYTcg55ErraWh0Vn872P4TtKYNr6ljAW/lyn8F9LbIlOOZ8AKTg5fw5pBNlIYPr06Wjbtq0QCWz+/PlYsGAB6tatCysrq2yUiromAkSACBABIpDZBIzQe8l6bPQchOq/PMaAKhY4vnUxrpXujcP18sMufiI6eXihR9N2eNOvMYw/3sJfy++i0ZiuuLf7JILehMDv4CAMueWM4f4HsH4d8yhQMIVDJMaX2w8g+/QB5689g2dTL4ztbYbeo9pjSEAflDT+irN7N+CVdS8UjXqO92x/HdjpfTtY5n0gYx4JcnYWkkLOoq9FoXD1qmjnYZ1YnpVhQXrEFGPgW345PIcUnBw+gSR+9hJo06aNEJnM29sb79+/R6dOnYSF9L179xY25HRwcMheAal3IkAEiAARIAKZQoCtQ3XvgZO3bLFq3T6cPx8Et46LMLNbOxQRAmRWwPorx1Bj6RYcOXcWjsXrYKvvcnhEX4Gx/Cx03u7DL1OfokXfuvhy8xhOM+VGaU8Ra7mgU+kg7D1yCL3rjkTrv3xgXGERdp8/hds2VdF9xT3ULRSEtbP+gikLA520HihpoBIdS9Tt2guGRcyEdrXsK6LDwEnoPpBZbxI3A4W2Cap7tQIKszLKzpOaoKscTIAUnBw8eSS6ZhDgG27yjTaV6f79+xg8eDBWrFgBrgCNGzdOWJCvfE5nIkAEiAARIAI5n0CCRmBQuAFG/N4g9eGYlEa3SexQf6pXGWP+YH8zX25hG+PUwYRVC1FO/XniddCVBRh1XOl+ZoJ6vaayQ72gA36dOEM9I9m1VM8B3Wf+rsqTuHthx3Iv1b1woWuJtkNGJM+ju1xBgAJH5IpppEGkl4C2dmqrGn+utUqVKqFVK/YNUIr05MkTzJ49G9bW1sKZP85Ja3RSDCfH3PIw1Vm5vw6PKEeJCBABIkAEfpKALB5RLNBNpDx1/7DIiAhEx8QnW0Pzkz1Q8TxMgCw4eXjy8/LQeWQwrtwoN8rMCBZ80T5vVz3xEMt875gJEyYIFh1+z0MpU8ocAlyB5BuM8o1MszLxkNkp5z4r+6e+iAARIAI5jkChHvgQ3+O7YjvWm4wd9b77mB4QgTQJkIKTJh56mFsJ8G/4vby8hE0q/+sY+YvtrVu34O/v/92mnJyc0KRJE5w5c+a7ZTLuQWreyBnXuia3xOeCW1R4oIestKxwZZkUV03+ZJBsRIAIEAEikJcIkIKTl2abxqoiYG5ujvXr16vu/+uFi4tLqk3Y2NhgwIABgjJVvHhxNGrUSNhYM9XCGZYpwufrszDmL1/ExcWxCDLJG5bHxcKeOTJP6lofhsqFlsmL5Ng7OYuGU6RIEWzbtg3GxsY5dhwkOBEgAkSACBABIpB+AqTgpJ8d1SQCAoF58+bBz88vGQ3urjZz5kx0794d+fOzvQLYuhCeuItaVqTwlwewbv1N2HiUhKWWLJkPsyw2Gp+cGyNexjQfrYRFolkhU1b1wRlHMN9tUnCyijj1QwSIABEgAkRAswiQgqNZ80HS5DAC3EIyfvx4QWqu1PDUr18/8D1xsnKhu9Cx2n8ikUQIi/nHsXvoTEt+1MjQJREgAkSACBABIpDbCZCCk9tnmMaXqQTGjBmDeLaRmL29PRo0aAC+8aetrW2m9vkzjbMgNT+cYr++xXO/1/j4MQxyXX3ksy8Ed9f8UPdik4e8gfcjX3yIVMDK3g2l3G2R/JdILAJf+ODV+0B8jZDDwNQaTm5F4GCm3soPi0QFiQARIAJEgAgQASLw0wSSv5v8dHWqQATyLoGHDx/iwoULQoS0du3aCRt85kwaCgTe2o4Jo+fjfJQBHOKj8CU0EO9j86HegEVYM6o6+B7Rsa9PYeSgIdh1H7AwiUZQmAm8Rv+FVf3KQ8IHLv+Ew3MmYuqWM9DO5wh58Be8//gOhkXrYNzStejsIez8ljMRkdREgAgQASJABIhAjiFACk6OmSoSVNMI8EAF//zzD3iENE1NBib/Lpks6BEm/zYQVwrOwKHpbZGPRR6Qy2Nwe1UfNJjQAnVafkEP14/YNHQElj2tgYtXpqGYfhyuruyClr+1QbUG/ujqLMPzHdPQZ+p5/HrwIAaXzw+pSI7YsDuY3Kg+Rnepg0b/b+9O4Gyq/z+Ov++dfczGjG3sSyFrdhIRohINRVqpfshSCb8U+mdJob1fWrQpRUUptMmSLSWMLZTsxpJlxgxmvf9zzmx3NDS4M/eaeZ3H45pzz/2e7/L8Wu7H93u+39/uV/i/V4cUCCCAAAIIIIDAJQmw0ecl8XFzURYwp6J5cnBjrmtwW4RN5rNBmS9fv5q6sc9wzY8+nLG6WpoO7V9nLHHdSaOeuEM1K5ZR8RLhCo+IVIf2TeWdclzRe415bgd3aGNqrPo/+5RaRZYy9pkpp8ZNqigodY+WbjouOY7q5607lfqfJzW2cy2VjCiu4uHhKl25vW5o6qsT+9Yr5qzV3Iry7x3ajgACCCCAAAL5J8AITv7ZkjMCbhVwpEmDX1qg9uUTlGQs3mYzIp7D2xfp85mv6+YGH2vY3JWafEslRda/W9/uuVP7/1hn7NPzq/ZujtZG47Vq+bdKMYOSNOPmMi30yle7rPacPvKHtvy5Q59NWS1HWG/1blncyFy6Z9x83ZNwQJtWLdbeQ3u1ef1GbVy/UksXJMm/lFspKBwBBBBAAAEEipAAAU4R6myaWrQEzNikWY/OuqWcc7ujNKB/b/Vpe72mDHlDA26ZqKoJe/TR2H4a9vF6la9cR5UrVVa5CvV1722++nnzdOPmnEtJ7/56tLqMWa6/98eoTv8n1dCIb4wFsHVw5Sw99tAwLT5WVrXqV1H5MpGqdv29KpO0Wq+vda4D5wgggAACCCCAQP4JEODkny05I+B2gZTEXKpQoo661m2kD2as0sajRviyZKoeeW2Xhsz+Wg+1qKXiocXSFw2InqRBT//z/qrdX9KaTmmK/eUD3XDnAPW8rrW+75aoF55+RN9H9tfSuUNUqUxxFfOzlh7Qgk1D9Opv/8yHKwgggAACCCCAQH4I8AxOfqiSJwKeLOBI0O6Ek8bmn+VUsrhDu3Zs1dHarRTVtJ4iMoMbo/6bln1tPadjs6cpLvpj9Wr8kJbEJ8o3tIy1FHatrreoa3CyMQVttU6fOaQ/9xzRjVFRuqpSRFZwI23Wwo9T5c0q0Z78O4K6IYAAAgggUKgECHAKVXfSGARyCpyJl1JOxyv+pPGKj9fJE39r4w+zNW3FBpV7vJda2o39bCIrKfjXZfp6zZ86EWekiTuhXUve0ZDX/rJGck6l2hQSEaEjx6Zq2BNf6sCJOMWfOqU9P87Xt7GJqmOM+gT4RCiyTKi+NEaBdhw5rpPxJxV3Yrdmj3xE7/nY5eM4ZazMlrNuvEMAAQQQQAABBPJDgClq+aFKngi4WSAt+ZQxQiO98EAnzTZGWVKtFcxsSjkWo80x+1W+/SQtfPImI4VdV3Tqq5F3/qQxUdfo47oNFRnhpYSEMur76iSV7niXZixdqzfbt9fzT4/R0PEDVPe7iqpRykt7tu1X2Zuf1Yf31pICEjVg8BPaOmyUal81S80blpNPYoJ8rr5PC54vqZZ9Z2jjzndUr7qbYSgeAQQQQAABBAq9AAFOoe9iGlgUBUpd95KxR89RJSclZSwHna5g9w5RZLVqqlO7hkr4pw/g+kXU04ip36j9/Su14+AZ+ZSspCaNmqpi8VQ1n+2v3uUrGksI2NXg7qc1p3VPrdmwXgfjfRRRvoYaNzemtVnTz/xUO2qYPq7XTr/9ZowEyUcVajRW4waV5H/8Gs0MvUMNSphDOAwaF8Xfj7QZAQQQQACBghQgwClIbcpCoIAEAiu0VfcKeS/MK7i0mrS9VU1y3OKtq6K66yqna2GVrlJ745X7YVep6o3V2XjlOIrXUs8oY5SHAwEEEEAAAQQQKAAB/ju1AJApAgEEEEAAAQQQQAABBApGgACnYJwpBQEEEEAAAQQQQAABBApAgACnAJApAgEEEEAAAQQQQAABBApGgACnYJwpBQEEEEAAAQQQQAABBApAgEUGCgCZIhBAAIHCJJCSkiKHw6HU1NTC1CzaUogFbDYbv18Lcf/SNATOFiDAOVuE9wgggAACuQqYAc2ZM2d00003KclYgpzDtQJ2u11eXl5KTk52bcbkZgmkGbsNm8ZmcM6BAAKFW4AAp3D3L61DwAMF4rXi7ecUcPs4NQw1q3dY85+YqXKPD1GDEA+sLlXKEmjevLmGDh0q84sih2sFzC/eu3fv1ooVK9S7d2+MXcublVtgYKCqGXuBcSCAQOEWIMAp3P1L6xDwQIEgnd7+iXr3DdFnE25RzKf91OOjq7XxGQ+sKlXKIdC5c2ceYx60AAAgMElEQVRr9CbHRd64TGDixImaPXu27r77bjVo0MBl+ZIRAgggUNQEWGSgqPU47UXAAwSuG7tEj4fO0fV1aqrfkkZatu5F1fSAelGF8wuYowwc+SOwd+9effjhh1bmgwcPzp9CyBUBBBAoIgL8a1VEOppmFi4Bx+lj2v3HVm3YtEV/HTimlKzmpepkzG5t3ndMOWeZp+jY1t+1dftxp7TGTcnxOrTnT23dskEbN27Trv2HdSo7MyPBGcVs3qp9JxKzSjBPUk4f11+/b9fRU+kPmackHNWf2/YoPtl56lKa4vb9pS2bN+tExuMaKfF7jbJ264xfeQ14d5VOpjh0cNHzaujYpg3bdujv0zy0ngOaN0VG4Pvvv9fvv/8u82H45cuXa/HixUWm7TQUAQQQcLUAAY6rRckPgXwWSD2yRs8O6qKW13VSpy7t1OL6rnry42ilhwZxmj+iu+r0f1epac4hzkG9Xesq1bp6uv7OqJ/j7181+dG7dePNt6hnzx66+fp2atm2rQY/95kOnMlsRLT+W6eW7p+1PfOC8dOhvzdMV/urGup/vx413qcpZvlUXVv7Di3adzI73enNerJbY9WuU0cz/kq/fOTHPqpVu7u+P5GdTNqv8Z1rqn7d6/Ti+jjnDzhHoEgImAs3PPHEE1ZbMx+Af/LJJ4tE22kkAgggkB8CBDj5oUqeCOSbwHF9PuJhPfFdOb367UKtWb5Er/Sw6aV+PfXpbrNQm3yLBUtBfmfVwC7/UF8FhfoZKczjiN7t0VMj5gdq2Htfa/43S7Vs9SLNHNVBP4x6RK8s2pdxv7cCFWBk55Xx3vxhk93LTyH+YfL3Ts/N7uOv0LBg+djT3xtDQ1r7zhv68Lfj1n1+GX/T2H2CjNyMdJnJjE//eusujVtjnJQuroCM/Kyb+AWBIiLw0ksv6fDhwzlaGx0dbT2Pk+MibxBAAAEE8iRAgJMnJhIh4DoBcwrKxR4p+7dr5aGd6j1hoqLqVldkuZrq2LG+SiRv07drzdGUf/8jbZW+banmnTqpW595SXc0qqby5cuqYpUaan3PHbpOJ/Tnqv3G5LSLP84cWq8X5v2h2wZWzwiozpHX/nm6c2S8nhr/mJRw+hyJuIxA4RUwl9seNWqUNTXNuZWnTp3S9OnTZf7kQAABBBC4MAFWUbswL1IjcEkCfn5+//if2gvJ0LtcM7284IB1i/ncy+Eje/XJ6z8rLqWjbm0Wblw35n6ZAdSpE9q/f7+8rREVY/QmLEYnjClrZnBjTVyr0UNf/NJDSbEHtWvjGv2x13gG5pfV+vmb+ZqnYopyfpTGmIJ26vghHThcQo5kYyKczaEjh48rKTW3QM28lqK1H03W/pAueq7FAr3/vz+t+ub4xbo1Vl9MfkaH7x2l0dev19PP5ig0R/K8vjly5IgCAgKsvUTyeg/pEHCnwMiRI8+5AeXChQv1888/q127du6sImUjgAACl50AAc5l12VU+HIWaNSokebNm2dtkujr63tJTdk580HVf+RHnY5PUMuhn6t92YzsfAMV9M2zatFsqhHQZAQh9hQlxCfLmCGWfjhOauXb4/XIM9O0TWVVu1JJhQRVU5O7btOhX97IsRCBlxL17dieajzZJyM3Ywf75DgdSo5U1oy0zJbY/ZUaM1MjX1inXt9/qoo75mZ+kuOnWau4X77QxGVheumzLkrbtzbH5xfzxnx2wfwyWK9ePZUoUeJisuAeBApUYN++fZoxY4Y1epP57I1zBczRm2nTpunaa6+Vj4+P80ecI4AAAgicR+Df57Oc52Y+QgCBCxOoX7++9WVmyZIlF3ZjLqkrdn1e0Wt/1Yr3HtfONx/U3V/GGKmMP9JJpxV/w2NasnSZflr2k/FaoV+iv9SQIB/jyZj0SWynV09S736TFNp3jqJ/Wa6lSxbr2/nTNG5wT9VQUo4AJ02+6vDEh1r+8wotM/JbtnyZvnp7hGr4nFaOdQyMsosV+1sz+wxSbNRU9attLD+Q7LzQQXYjHMZGkbOnv6YKtwxQh6rGzuLZH130mTn1b926dapVq5a8vfm/m4uG5MYCE3jrrbesEV3n4ObsKayffPKJNm3aVGB1oiAEEECgMAgQ4BSGXqQNl42AGeD4+/tby8BeeKUdOrThC/XrMFzLTybKL6KKrrjiSrW87y7dXvyMvp69wsjSGGVxGFO9gkqpWvVq1o7d1apVVrnwyoowhlvMQML8Q79zY7QOqYUeGthGlUuFZT/0/8cv+k7eRkiTfTjkpeBSFVW1YmVVNXYAr1q1mqpUKC1/r5xhiVdAoLbNfER9f+6mqS+2t8rJddKZPUBxP72q93+M0MAHusg/u6hLOtuwYYN1/xVXXHFJ+XAzAgUhsHPnTmsRgczgpnTp0rrrrrus6ZUPPfRQjioMGzYsx3veIIAAAgicX4AA5/w+fIqASwWqVq2qoKAgYyRk2UXka1NYUDH9+dcUjZjwg+JTkpWS6lDsbyu0NC5BVa6uZuSZmjEa4lDmF6f0goz3GSWaP8MjS6iY1yp9Mn+HdU+y8WxNWly0Rt4xQHuNddPsZpDkfBjTv5yPnHkbn9h9VGzfbA0a+Klue/95tTjnAIq3/PxXa3D/kQoa8rzalXPO9dLO58yZo/DwcCPoI8C5NEnuzm8B88/PDz/8oC1btig0NFSTJ0/WwYMH1bVrV6WkpOiVV17RoUOHjOXbe1rPlC1atEgrV67M72qRPwIIIFBoBAhwCk1X0pDLRWD8+PEyp6i9/PLLF1xlv6rX6pkRjyhpeg9VbtheXaPaq+GNQxVbf7hm/udqI79kpSYZm3Imnb1hpsPYnDNJZ86kWtPPSl//uB696Rot7FtHlVveqvvu7q7G9Xrqj3t+0KSeR7Rpx1pj4QKzemlGjmeM7HIGPA5HihKNvTtSMi470lLSV1275Q1N7WYudpB+OFITrfKM/Tytw0p36phspUfojQHGHLbMw7hfZxKVY5/QzM/y8NNcUnfs2LFqa+zjU7du3TzcQRIE3CeQkJCgL774QuZeNzExMcocoUlNTf9zm5ycrFKlSmnmzJlasWKFbrvtNk2ZMsV9FaZkBBBA4DIT8LLb7f/Xpk0bmS8OBBDIfwFzoYGffvpJc+fOVffu3RUWFnYBhfqofONOirqpo2qU8VZwyVq68Z7HNH7sA6pZzMzGLr/gCFWp30gtrihjLaiWnrmXAiPKqE6nNmrWsLR8vCPU+vab1KphDVUqHq7IOtfqobGT9WinmoosXVmlqlVX/SuqyM/LR8EhldSgbUtdWTIgq5527wCVqlRLza5prMhgH2MAJ0DhJWpr0NA7dWV49qQzL79QlanaVG1atVQp47LdN8R430B3/neImpV02qvHp5j8qtRTp5ZXq1zQOYd/ssp3PjEfxO7du7fML4Xz589XYGCg88ecI+BxAuYoTfPmza0RGufFAzZv3qzPP//cWjY68zmysmXLWgGOOfobHBwscyVGDgQQQACB3AVmzZqlrVu3ymb8JeoYPXq0xowZk3tKriKAgMsFdu/ebY009O3bV88//zzLGl+C8NSpU2U+s/Dpp8b0OON/ujkQuFwFzH+Ye/XqpdOnT1vP6l2u7aDeCCCAgLsEoqKirBFypqi5qwcot0gLlC9fXo8//rg1Te3LL78s0haX0njzf7zHjRunHj16ENxcCiT3IoAAAgggUIgECHAKUWfSlMtHwMvLSw8++KBuvvlm68v566+/rjRj6WSOvAuYz920a9fOWljgtddey/uNpEQAAQQQQACBQi1AgFOou5fGebJAyZIlNX36dOv5kYEDB8qcKpqUlOTJVfaYun322Wdq1aqVatasqW+++UbmErscCCCAAAIIIICAKXBhT/NihgACLhUoXry4tVN5ZGSknnnmGcXGxorRiPMTv/jiixo+fLhuuOEGmZsghoSEnP8GPkUAAQQQQACBIiVAgFOkupvGeqJAQECAJk6caO2HYY7irF69Wm+++aYaNmzoidV1W53MB6/NRQTMldLMVdNmzJjhtrpQMAIIIIAAAgh4rgBT1Dy3b6hZERIwl4QdNWqU9aX92LFjMpeSHjFihI4ePVqEFHJvqrlniDmqZS6nbe4J8vTTTxPc5E7FVQQQQAABBBAwBAhw+G2AgAcJmCMT5h455gpr06ZNs5aSfu+996ypax5UzQKpirnogrkZormQwJAhQ9StWzcrwGFJ+wLhpxAEEEAAAQQuWwECnMu266h4YRUoV66cNWXt22+/VYsWLazV1swv+c8995wOHTpUWJud1a74+Hi988471ubD5nr2ZqDz448/WgsyXHXVVVnpOEEAAQQQQAABBHITIMDJTYVrCHiAQNOmTWWuFmbuk+Pv72+N6lx55ZW65557tG3bNg+ooWurYE5FM0euqlevrgceeEB79uzRBx98oEWLFqlt27bs4O5abnJDAAEEEECg0AoQ4BTarqVhhUHAbrdbe+WYz56sXbtWHTt21Jw5c6zlkdu3b6/vvvtOJ0+etHY+v9z20UlMTJQ5WrNmzRoraAsKCtKUKVNUu3Ztff3119q9e7d1PTg4uDB0JW1AAAEEEEAAgQISYBW1AoKmGAQuVeDqq6+2RnTML/4ffvihZs+erU6dOqlYsWLWCIc5jc1cnKBChQqqXLmybDbbpRbp8vsPHDhgjcxs2bLFmna2cOFCHT58WObI1KBBg9SnTx9Wj3O5OhkigAACCCBQtAQIcIpWf9PaQiBQqVIla8W1AQMGaN26dYqOjrYWJhg3bpyOHz9uTfEyN8A0N8Js0KCBFexUrVpVPj4+Bd56MxjbuXOnzIBm5cqV2rBhgzZv3mwFX23atJHZBjMoq1evnsx2cSCAAAIIIIAAApcqQIBzqYLcj4CbBMLDw2VOUzNf/fv3t6Z77du3zxrZmTt3rubNmydz+Wlznx3zGR5zM1EzkKhbt27Wy1zQwBXHiRMnrOBl48aNMl9m0GUGNmfOnLGmzyUlJals2bLWSmiTJ09W/fr1FRgYKHNamjkNjwMBBBBAAAEEEHCVAAGOqyTJBwE3CpjT1MxX6dKlrRGRZ555xtpDZ9WqVVawsX79emu0Z+bMmfr444+VmpqaVVsz+AkNDbX2mTH3mnE+N9+bIz/m3jyxsbEyA5nMl/nefJnP0WQeXl5eMl8lSpSw6mGOIJlT68xXtWrVMpPxEwEEEEAAAQQQyDcBApx8oyVjBNwrYI7w3HzzzdbLuSZbt25V5mvXrl3WIgVxcXEyX+aD/0eOHJH5rExKSoq2b99uLdNsTnkzR1p8fX2tlxnAmFPKQkJCrFeZMmVUq1Yt61WjRg1r1Mi5TM4RQAABBBBAAIGCEiDAKShpykHAQwTMYMV8netwOBzW1DJzeluHDh20Y8cOa9qZGfyYoz3mCA0HAggggAACCCDgqQIEOJ7aM9QLATcJmKuvmc/tmEdmQGMGO+aLAwEEEEAAAQQQ8HQBnu719B6ifggggAACCCCAAAIIIJBnAQKcPFOREAEEEEAAAQQQQAABBDxdgADH03uI+iGAAAIIIIAAAggggECeBQhw8kxFQgQQQAABBBBAAAEEEPB0AQIcT+8h6ocAAggggAACCCCAAAJ5FiDAyTMVCRFAAAEEEEAAAQQQQMDTBQhwPL2HqB8CCCCAAAIIIIAAAgjkWYAAJ89UJEQAAQQQQAABBBBAAAFPFyDA8fQeon4IIIAAAggggAACCCCQZwECnDxTkRABBBBAAAEEEEAAAQQ8XYAAx9N7iPohgAACCCCAAAIIIIBAngUIcPJMRUIEEEAAAQQQQAABBBDwdAECHE/vIeqHAAIIIIAAAggggAACeRYgwMkzFQkRQAABBBBAAAEEEEDA0wUIcDy9h6gfAggggAACCCCAAAII5FmAACfPVCREAAEEEEAAAQQQQAABTxcgwPH0HqJ+CCCAAAIIIIAAAgggkGcBApw8U5EQAQQQQAABBBBAAAEEPF3A29MrSP0QQACBy1MgTQnHDungkWM6nSwFhpVWubIR8vO6PFtzrlonx+7Vtn0nZZMj1yQ2m00+JSrqijJBZ32eohOHYnTkaJwS0xwKCCmhiJKlFRpQyIDOajVvEUAAAQTyX4AAJ/+NKQEBBIqcQJp2LpymYWPf00FjnNye6lBqaqDq9RimZ4feqLBC5LH/03tV9z+LFVGhuor7SY6sOMcmu3eiYrbtUWKfr5T4bpfsVsdv1UcvvKhPF2/VycQ0pXilKCDQTwERzXX3Y8PVo2G4FS7Zsu/gDAEEEEAAgTwLEODkmYqECCCAQN4EEnYv0GP3T5J3v2f1wf3tVbaYQ3uXfaS7Bj6g/1ZcrDd71MhbRpdBKruvMTITUUvPzVqoGys6lJIV4XjJP2y//lequV4O9MluSep2jet+g95IaKsp49/SdfXKKtjXobiD2/Xdm09rcNeO2vn5Ug1vdvaIT3YWnCGAAAIIIHA+AQKc8+nwGQIIIHARAtFz3tKSsi20rF8PVQ9Pz6Bm53s1st4Hun3aD3rBCHCK5ZqvOfyRMW7hdJpr0lwu5n6LwxgNsWXmmstd5qXc7zxH4n9e9vZVeJlIlSl39kcOhdlzTl5bNaGDxi9qqu/+fl/XhWanD6reRH0mvyPFNNV/bhutTrtfVF2GcLKBOEMAAQQQyLMAiwzkmYqECCCAQN4EvEIqaWBUd5Ut7pzeJn9vuxx/xuigefnUTt3TqpTqjlnklMimXR9Wl832hP7I+HKfevR3vT/yPjVqUNG4blNYZHXd9PAH2peUlnHf73o43C7bmJU5gpijs7rKFnC/NprBjWONehr39voq3qms45rUyia/ys20Jja9sJO/fqA7rqmiYJtdPr6+8vX1Mcq0q3Wv75TgdOeFnJqhU9aRsFwvPLdfoc+NyRHcZH2u0uoz6kn5731JL39zsSVm58YZAggggEDRFCDAKZr9TqsRQCAfBZrd/6rGjeimEvbsr/cpe1bpk80H1Kx/Z1UzyzYCB//AIAWeteqA3ccc2/GT9Zfzqa0ac2trjVpTXmM/WKhD+3bq22n9dOzj+9T64R8zWmCXX1CQbGflY/MOkF+wv9If2TfKCrApwDt7SOTA+wM0fnWISoUFyMscy/97rm5sfp/+bDxBS//aqV3Ga+eeaD3R0qiJlSCjuEv4kbhpkRYkpWroNXXPnUvNlrrfqOfcr5efOw2fIIAAAgggcB4BpqidB4ePEEDA+B5u/M8/x8UK2LRzbk/1f+Ok4nb9rtiaA/TdwFZ5zywtVJ1HvmuM9HRRjeD020qVG67po6boyiejdWBqB0XmPbfslAcXKOqVo3p6/J2a8O462YwoKHXTMi03BoVmP9lbDUtlJg1Wce+0c6yPlpkm7z9jj/9uLLggY0GB890TpgrGtDYt2afjRrIcg2Dnu60QfGa383+OhaAbaQICCHiAAAGOB3QCVUDAkwUSExO1a9cuxcXFeXI13V43h/Fwvbe3t2rXrp2jLiEVu6nn7Qna+sP/9MasSer/ahvNH5ER5Bj3ePnlfBonyHmZ5KCyatU5ffWxk/s3KfqPP7Vu8QJ98vphY4zHKzvwMAaKbGflE2w82G/W6Z/HKc0f94oi75io/k2/0ug3jQDGCDq86l6jlnpe/5vxm6IebZRxWzH5GsFPrtn8M+N/v5KRUZ5C5iCHDp0+rr3bdhvL0BX+L/5eXl46eNCavPjvjqRAAAEEEDivAAHOeXn4EIGiLWB+QY6JiVGVKlWKNkQeWx8WFqajR48qLTlJqTYf4xkWL4VffYf6Xm1k0OcB3dO+mxrdf7te6XJAQ6pLvsHFtWp4E9lHOH/lN4OSrhklpmn77NG6udck7TCepQkMLal23R/X7fcE6dfXnSoVEKK0EfWMfJyuGeFPRMWHnS8YUZARrGz7TuN3V9Kk8Q1lWz83/XMjwFH4rfps4VPqGtVYtqHpl83RO4cjRJ3uS39/qb+WqtJZAb6ztDvmtFQ3IPfszuzUytQ0+XWsofcnPKvnJkzKPR1XEUAAAQQQOIcAAc45YLiMAAJSw4YN1ahR5v/mI3I+ATMYLFYsyBhsSNAnj3TTLP8H9eGLveS0UJjqdOijkMC5WvhbjIbUtCs5IU4NH5up2YOayNjrUl6+Idr3ZSu1GmTFIor9+S3dcMfzavLaYm3p10qZf2FHjx9rhC9OQVFivGzDZ+vvhxvqRGKqbMZzPLHz+qnlU8YOo85HyjHNfXua6rUeoabF7cpcpiAzSeT1o/XyU7s0+LOD6j/2WbWvadObvRppZVJmikv8WbO1HqpeTC/PmKtJHXtlPB+UM88T33+uOWmlNKFbU7U6kaC0pPSRsZypCu+7U6dOWSOBhbeFtAwBBBDIf4HMfy/zvyRKQACBy0rA/MI+ceLEy6rOnlLZutdW1mMDX9S8Pl10Z73sKWgxaxYr9lSEmtaKkFJijNGRNPmEl1PlylWzqu5d0t86N8OXw/s2KyG5jQbenx3cKGWTXpsVKy+vMzIHXqzDyEdhFVQispJKZFyKLR2gNKcIxmb30dGl7+rdNcH675w2xhQ3yRhHyXEc/v4x9XhsvvrO3agHO5QxPjupCBc+gyNV0dDXB+mDNoP1UJeGxn5AV+YoP23fAj346KuqfvdMPdzEz1hKu5Nad+iUIw1vEEAAAQQQ+DeBwj+x+d8E+BwBBHIVYHGBXFnydLHuLaM07Jo49bmxh577arm2bVmvz164V61ve1mNHntbwxoZG1+mpD8f40jLClOsvFPNoRzjMGOTK+q1UWTJJXrwwRf0y+at+nXB2+rZ7mEdKFvXeG5mh45ZKTN+yS0fp0EeLx8f/fjOy6o16CVdkxkFZd5v/ktwcrEG3fmqknpN1rBbzODGPFL/McqTfv3ifw1pPVY/zB2glQPrqEX3UZq7IlpbtqzV7BcGqUn9LtrSfIoWvnLrOfYJuvhyuRMBBBBAoOgIEOAUnb6mpQggUEACtqAqGvbVT1rw3ys1c1Bb1azXTI9+kaaHv96knyZ1U/oYjfnsvF32f6xSZ1zLnH52ZQ8tnv+2Gm55Rc3q1lWPF1ar92tfav6zvZSc8qO27TQbZOxzY+VzVuOMfLPzNjf6TJG3sQT00B6ZwYt5q3mvl/yMVc1+/L8Bmn2sud588T6FOWVl7oPzjyo6fW59aK56do7DvD+7HmYiX1W/Zax+3vCL7ii/ScM7NlWdOk00YbFDg2f/obUfDVWlUCMA5EAAAQQQQOAiBWzGqj+O0aNHa8yYMReZBbchgAACCFyogDlO84+wwJgWmBVNOJ+fM3OH9SxOZj7ZtzjnnjONtSSaFbHkTJNdm7PSZ5btnDzzmrWOW2bpWRezTrLrY1zK9f6spJwggAACCCBwyQJRUVH64osv0veSu+TcyAABBBBA4IIEcg0LnIdKnM/PmbM5MpN9ZN+S42qONFkBVI6r50mfmb1zksxrOfLIuph1kl0f41Ku92cl5QQBBBBAAAGXCTBFzWWUZIQAAggggAACCCCAAALuFiDAcXcPUD4CCCCAAAIIIIAAAgi4TIAAx2WUZIQAAggggAACCCCAAALuFiDAcXcPUD4CCCCAAAIIIIAAAgi4TIAAx2WUZIQAAggggAACCCCAAALuFiDAcXcPUD4CCCCAAAIIIIAAAgi4TIAAx2WUZIQAAggggAACCCCAAALuFiDAcXcPUD4CCCCAAAIIIIAAAgi4TIAAx2WUZIQAAggggAACCCCAAALuFiDAcXcPUD4CCCCAAAIIIIAAAgi4TIAAx2WUZIQAAggggAACCCCAAALuFiDAcXcPUD4CCCCAAAIIIIAAAgi4TIAAx2WUZIQAAggggAACCCCAAALuFiDAcXcPUD4CCCCAAAIIIIAAAgi4TIAAx2WUZIQAAggggAACCCCAAALuFiDAcXcPUD4CCCCAAAIIIIAAAgi4TIAAx2WUZIQAAggggAACCCCAAALuFiDAcXcPUD4CCCCAAAIIIIAAAgi4TIAAx2WUZIQAAggggAACCCCAAALuFiDAcXcPUD4CCCCAAAIIIIAAAgi4TIAAx2WUZIQAAggggAACCCCAAALuFiDAcXcPUD4CCCCAAAIIIIAAAgi4TIAAx2WUZIQAAggggAACCCCAAALuFiDAcXcPUD4CCCCAAAIIIIAAAgi4TIAAx2WUZIQAAggggAACCCCAAALuFiDAcXcPUD4CCCCAAAIIIIAAAgi4TIAAx2WUZIQAAggggAACCCCAAALuFiDAcXcPUD4CCCCAAAIIIIAAAgi4TIAAx2WUZIQAAggggAACCCCAAALuFiDAcXcPUD4CCCCAAAIIIIAAAgi4TIAAx2WUZIQAAggggAACCCCAAALuFiDAcXcPUD4CCCCAAAIIIIAAAgi4TIAAx2WUZIQAAggggAACCCCAAALuFiDAcXcPUD4CCCCAAAIIIIAAAgi4TIAAx2WUZIQAAggggAACCCCAAALuFiDAcXcPUD4CCCCAAAIIIIAAAgi4TIAAx2WUZIQAAggggAACCCCAAALuFiDAcXcPUD4CCCCAAAIIIIAAAgi4TIAAx2WUZIQAAggggAACCCCAAALuFiDAcXcPUD4CCCCAAAIIIIAAAgi4TIAAx2WUZIQAAggggAACCCCAAALuFiDAcXcPUD4CCCCAAAIIIIAAAgi4TIAAx2WUZIQAAggggAACCCCAAALuFiDAcXcPUD4CCCCAAAIIIIAAAgi4TIAAx2WUZIQAAggggAACCCCAAALuFiDAcXcPUD4CCCCAAAIIIIAAAgi4TIAAx2WUZIQAAggggAACCCCAAALuFiDAcXcPUD4CCCCAAAIIIIAAAgi4TIAAx2WUZIQAAggggAACCCCAAALuFiDAcXcPUD4CCCCAAAIIIIAAAgi4TMAKcLy8vFyWIRkhgAACCCCAAAIIIIAAAgUtkBnTeNtsNm3btk0TJkxQampqQdeD8hBAAAEEEEAAAQQQQACBSxLw8/PT5s2brTxsxq8OHx8fORyOS8qUmxFAAAEEEEAAAQQQQAABdwmYgzVmTPP/zgClo7EAQ/8AAAAASUVORK5CYII=;" vertex="1" parent="1">
          <mxGeometry x="13" y="-10" width="824" height="530" as="geometry" />
        </mxCell>
        <mxCell id="iuNo3M5YxEnQVM3zlHZQ-11" value="" style="rounded=0;html=1;whiteSpace=wrap;strokeColor=none;" vertex="1" parent="1">
          <mxGeometry x="30" y="130" width="120" height="100" as="geometry" />
        </mxCell>
        <mxCell id="iuNo3M5YxEnQVM3zlHZQ-10" value="&lt;font style=&quot;font-size: 18px;&quot;&gt;Система классификации нефти&lt;/font&gt;" style="text;html=1;strokeColor=none;fillColor=none;align=center;verticalAlign=middle;whiteSpace=wrap;rounded=0;labelBackgroundColor=default;" vertex="1" parent="1">
          <mxGeometry x="30" y="120" width="140" height="110" as="geometry" />
        </mxCell>
      </root>
    </mxGraphModel>
  </diagram>
</mxfile>
